<svg width="176" height="176" viewBox="0 0 176 176" fill="none" xmlns="http://www.w3.org/2000/svg">
<rect width="44" height="44" fill="black" fill-opacity="0" transform="scale(4)"/>
<rect width="44" height="44" fill="black" fill-opacity="0" transform="scale(4)"/>
<rect width="44" height="44" fill="black" fill-opacity="0" transform="scale(4)"/>
<rect width="44" height="44" fill="black" fill-opacity="0" transform="scale(4)"/>
<path d="M95.1345 176H80.7976C75.3704 176 70.9608 171.589 70.9608 166.159V148.695C65.6241 147.202 60.5134 145.008 55.742 142.158L44.4805 153.333C42.6262 155.165 40.1614 156.183 37.5608 156.183C34.9151 156.183 32.4276 155.142 30.5733 153.288L20.4651 143.108C16.6435 139.262 16.6661 133.018 20.5103 129.195L32.2693 117.522C30.1663 113.54 28.4703 109.355 27.2717 105.034H9.83682C4.40961 105.012 0 100.601 0 95.1712V80.8288C0 75.3995 4.40961 70.9882 9.83682 70.9882H27.2944C28.7868 65.6494 30.9803 60.5594 33.8296 55.7635L20.8722 42.6879C17.0505 38.8422 17.0731 32.5985 20.94 28.7753L31.116 18.6632C32.9703 16.8308 35.4126 15.8129 38.0357 15.8129C40.6815 15.8129 43.169 16.8535 45.0233 18.7085L58.4782 32.2817C62.4582 30.1553 66.6643 28.4812 70.9834 27.2823V9.84062C70.9834 4.41131 75.393 0 80.8203 0H95.1571C100.584 0 104.994 4.41131 104.994 9.84062V27.3049C109.471 28.5491 113.813 30.3136 117.929 32.5532L131.497 19.0931C133.351 17.2607 135.793 16.2427 138.417 16.2427C141.062 16.2427 143.55 17.2833 145.404 19.1383L155.512 29.3183C157.367 31.1733 158.362 33.6617 158.362 36.2859C158.362 38.91 157.321 41.3758 155.467 43.2309L142.419 56.1933C145.156 60.8535 147.258 65.8303 148.706 71.0108H166.163C171.59 71.0108 176 75.4221 176 80.8514V95.1712C176 100.601 171.59 105.012 166.163 105.012H148.706C147.462 109.491 145.698 113.834 143.46 117.952L155.128 129.715C156.982 131.57 157.977 134.059 157.977 136.683C157.977 139.307 156.937 141.773 155.083 143.628L144.907 153.74C143.053 155.572 140.61 156.59 137.987 156.59C135.341 156.59 132.854 155.55 131 153.695L119.851 142.451C115.193 145.189 110.241 147.293 105.062 148.74V166.205C104.971 171.589 100.562 176 95.1345 176ZM55.0862 136.479L56.6013 137.429C61.9155 140.8 67.6819 143.288 73.7423 144.804L75.4383 145.234V166.159C75.4383 169.123 77.8355 171.521 80.7976 171.521H95.1345C98.0969 171.521 100.494 169.123 100.494 166.159V145.234L102.19 144.804C108.092 143.334 113.723 140.936 118.924 137.678L120.439 136.728L134.097 150.505C135.115 151.523 136.449 152.088 137.896 152.088C139.321 152.088 140.655 151.546 141.673 150.55L151.849 140.438C152.867 139.443 153.409 138.086 153.432 136.66C153.432 135.213 152.889 133.878 151.894 132.86L137.829 118.698L138.688 117.228C141.402 112.5 143.46 107.478 144.748 102.252L145.178 100.555H166.095C169.058 100.555 171.455 98.1573 171.455 95.1938V80.8514C171.455 77.8879 169.057 75.49 166.095 75.49H145.178L144.748 73.7933C143.278 67.8889 140.881 62.2334 137.625 57.0303L136.676 55.5147L152.234 40.0638C153.251 39.0684 153.794 37.7111 153.816 36.2859C153.816 34.838 153.274 33.5033 152.279 32.4853L142.171 22.3054C141.153 21.2874 139.819 20.7219 138.372 20.7219C136.947 20.7219 135.613 21.2648 134.595 22.2602L118.63 38.1183L117.16 37.2586C112.456 34.544 107.414 32.508 102.19 31.1959L100.494 30.7661V9.84062C100.494 6.87712 98.0969 4.47918 95.1348 4.47918H80.7979C77.8355 4.47918 75.4385 6.87712 75.4385 9.84062V30.7661L73.7425 31.1959C68.6545 32.4627 63.77 34.4309 59.1569 37.0324L57.6644 37.8694L41.835 21.8756C40.8174 20.8576 39.4832 20.292 38.0359 20.292C36.6113 20.292 35.2771 20.835 34.2595 21.8303L24.0835 31.9424C21.9804 34.0237 21.9804 37.417 24.0609 39.5208L39.5284 55.1075L38.5787 56.6231C35.2093 61.9393 32.7218 67.708 31.2067 73.7481L30.777 75.4447H9.83682C6.87447 75.4447 4.47745 77.8427 4.47745 80.8062V95.1712C4.47745 98.1347 6.87447 100.533 9.83682 100.533H30.7542L31.1839 102.229C32.4502 107.319 34.4176 112.206 37.0181 116.798L37.8548 118.291L23.6762 132.362C21.5732 134.443 21.5732 137.836 23.6536 139.94L33.7618 150.12C34.7794 151.138 36.1136 151.704 37.5608 151.704C38.9855 151.704 40.3197 151.161 41.3373 150.165L55.0862 136.479Z" fill="white"/>
<rect width="16.7791" height="16.7799" fill="black" fill-opacity="0" transform="translate(54.4082 54.4292) scale(4)"/>
<path d="M87.9665 121.549C69.4687 121.549 54.4082 106.482 54.4082 87.9778C54.4082 69.4729 69.4687 54.4292 87.9665 54.4292C106.464 54.4292 121.525 69.4955 121.525 88.0004C121.525 106.505 106.464 121.549 87.9665 121.549ZM87.9665 58.9081C71.9336 58.9081 58.8857 71.9611 58.8857 88.0002C58.8857 104.039 71.9336 117.07 87.9665 117.07C103.999 117.07 117.047 104.017 117.047 87.9776C117.047 71.9385 103.999 58.9081 87.9665 58.9081Z" fill="white"/>
</svg>
