<svg width="856" height="312" viewBox="0 0 856 312" fill="none" xmlns="http://www.w3.org/2000/svg">
<g filter="url(#filter0_d)">
<rect width="206" height="56" fill="black" fill-opacity="0" transform="translate(16) scale(4)"/>
<rect x="16" width="824" height="224" rx="28" fill="white"/>
<rect width="179.054" height="40.25" fill="black" fill-opacity="0" transform="translate(71.6289 31.5) scale(4)"/>
<rect width="40.1551" height="40.25" fill="black" fill-opacity="0" transform="translate(71.6289 31.5) scale(4)"/>
<path d="M91.8267 31.5H212.052C223.273 31.5 232.249 40.498 232.249 51.7455V172.255C232.249 183.502 223.273 192.5 212.052 192.5H91.8267C80.6057 192.5 71.6289 183.502 71.6289 172.255V51.7455C71.6289 40.498 80.6057 31.5 91.8267 31.5Z" fill="#FF5722"/>
<g opacity="0.5">
<rect width="56.2" height="50.1" fill="black" fill-opacity="0" transform="translate(109.229 81.5) scale(4)"/>
<g opacity="0.5">
<rect width="56.2" height="50.1" fill="black" fill-opacity="0" transform="translate(109.229 81.5) scale(4)"/>
<g opacity="0.5">
<rect width="56.2" height="50.1" fill="black" fill-opacity="0" transform="translate(109.229 81.5) scale(4)"/>
<path opacity="0.03" d="M331.228 178.7V228.7H306.028C306.028 242.7 317.228 253.9 331.228 253.9V279.1C303.628 279.1 281.228 256.7 281.228 229.1V178.7H331.228ZM206.428 178.7V228.7C206.428 256.3 228.828 278.7 256.428 278.7V253.5C242.428 253.5 231.228 242.3 231.228 228.3H256.428V178.7H206.428Z" fill="#8C6B6B"/>
<path opacity="0.06" d="M328.429 175.9V225.9H303.229C303.229 239.9 314.429 251.1 328.429 251.1V276.3C300.829 276.3 278.429 253.9 278.429 226.3V175.9H328.429ZM203.229 175.9V225.9C203.229 253.5 225.629 275.9 253.229 275.9V250.7C239.229 250.7 228.029 239.5 228.029 225.5H253.229V175.9H203.229Z" fill="#8C6B6B"/>
<path opacity="0.09" d="M325.628 173.1V223.1H300.428C300.428 237.1 311.628 248.3 325.628 248.3V273.5C298.028 273.5 275.628 251.1 275.628 223.5V173.1H325.628ZM200.428 173.1V223.1C200.428 250.7 222.828 273.1 250.428 273.1V247.9C236.428 247.9 225.228 236.7 225.228 222.7H250.428V173.1H200.428Z" fill="#8C6B6B"/>
<path opacity="0.11" d="M322.829 169.9V219.9H297.629C297.629 233.9 308.829 245.1 322.829 245.1V270.3C295.229 270.3 272.829 247.9 272.829 220.3V169.9H322.829ZM197.629 169.9V219.9C197.629 247.5 220.029 269.9 247.629 269.9V244.7C233.629 244.7 222.429 233.5 222.429 219.5H247.629V169.9H197.629Z" fill="#8C6B6B"/>
<path opacity="0.14" d="M320.028 167.1V217.1H294.828C294.828 231.1 306.028 242.3 320.028 242.3V267.5C292.428 267.5 270.028 245.1 270.028 217.5V167.1H320.028ZM194.828 167.1V217.1C194.828 244.7 217.228 267.1 244.828 267.1V241.9C230.828 241.9 219.628 230.7 219.628 216.7H244.828V167.1H194.828Z" fill="#8C6B6B"/>
<path opacity="0.17" d="M316.829 164.3V214.3H291.629C291.629 228.3 302.829 239.5 316.429 239.5V264.7C288.829 264.7 266.429 242.3 266.429 214.7V164.3H316.829ZM192.029 164.3V214.3C192.029 241.9 214.429 264.3 242.029 264.3V239.5C228.029 239.5 216.829 228.3 216.829 214.3H242.029V164.3H192.029Z" fill="#8C6B6B"/>
<path opacity="0.2" d="M314.029 161.5V211.5H288.829C288.829 225.5 300.029 236.7 314.029 236.7V261.9C286.429 261.9 264.029 239.5 264.029 211.9V161.5H314.029ZM189.229 161.5V211.5C189.229 239.1 211.629 261.5 239.229 261.5V236.3C225.229 236.3 214.029 225.1 214.029 211.1H239.229V161.5H189.229Z" fill="#8C6B6B"/>
<path opacity="0.23" d="M311.228 158.7V208.7H286.028C286.028 222.7 297.228 233.9 311.228 233.9V259.1C283.628 259.1 261.228 236.7 261.228 209.1V158.7H311.228ZM186.428 158.7V208.7C186.428 236.3 208.828 258.7 236.428 258.7V233.5C222.428 233.5 211.228 222.3 211.228 208.3H236.428V158.7H186.428Z" fill="#8C6B6B"/>
<path opacity="0.26" d="M308.428 155.9V205.9H283.228C283.228 219.9 294.428 231.1 308.428 231.1V256.3C280.828 256.3 258.428 233.9 258.428 206.3V155.9H308.428ZM183.229 155.9V205.9C183.229 233.5 205.628 255.9 233.228 255.9V230.7C219.228 230.7 208.029 219.5 208.029 205.5H233.228V155.9H183.229Z" fill="#8C6B6B"/>
<path opacity="0.29" d="M305.628 153.1V203.1H280.428C280.428 217.1 291.628 228.3 305.628 228.3V253.5C278.028 253.5 255.628 231.1 255.628 203.5V153.1H305.628ZM180.428 153.1V203.1C180.428 230.7 202.828 253.1 230.428 253.1V227.9C216.428 227.9 205.228 216.7 205.228 202.7H230.428V153.1H180.428Z" fill="#8C6B6B"/>
<path opacity="0.31" d="M302.829 149.9V199.9H277.629C277.629 213.9 288.829 225.1 302.829 225.1V250.3C275.229 250.3 252.829 227.9 252.829 200.3V149.9H302.829ZM177.629 149.9V199.9C177.629 227.5 200.029 249.9 227.629 249.9V224.7C213.629 224.7 202.429 213.5 202.429 199.5H227.629V149.9H177.629Z" fill="#8C6B6B"/>
<path opacity="0.34" d="M300.028 147.1V197.1H274.828C274.828 211.1 286.028 222.3 300.028 222.3V247.5C272.428 247.5 250.028 225.1 250.028 197.5V147.1H300.028ZM174.828 147.1V197.1C174.828 224.7 197.228 247.1 224.828 247.1V221.9C210.828 221.9 199.628 210.7 199.628 196.7H224.828V147.1H174.828Z" fill="#8C6B6B"/>
<path opacity="0.37" d="M296.829 144.3V194.3H271.629C271.629 208.3 282.829 219.5 296.429 219.5V244.7C268.829 244.7 246.429 222.3 246.429 194.7V144.3H296.829ZM172.029 144.3V194.3C172.029 221.9 194.429 244.3 222.029 244.3V219.5C208.029 219.5 196.829 208.3 196.829 194.3H222.029V144.3H172.029Z" fill="#8C6B6B"/>
<path opacity="0.4" d="M294.029 141.5V191.5H268.829C268.829 205.5 280.029 216.7 294.029 216.7V241.9C266.429 241.9 244.029 219.5 244.029 191.9V141.5H294.029ZM169.229 141.5V191.5C169.229 219.1 191.628 241.5 219.228 241.5V216.3C205.228 216.3 194.029 205.1 194.029 191.1H219.228V141.5H169.229Z" fill="#8C6B6B"/>
<path opacity="0.43" d="M291.228 138.7V188.7H266.028C266.028 202.7 277.228 213.9 291.228 213.9V239.1C263.628 239.1 241.228 216.7 241.228 189.1V138.7H291.228ZM166.428 138.7V188.7C166.428 216.3 188.828 238.7 216.428 238.7V213.5C202.428 213.5 191.228 202.3 191.228 188.3H216.428V138.7H166.428Z" fill="#8C6B6B"/>
<path opacity="0.46" d="M288.428 135.9V185.9H263.228C263.228 199.9 274.428 211.1 288.428 211.1V236.3C260.828 236.3 238.428 213.9 238.428 186.3V135.9H288.428ZM163.229 135.9V185.9C163.229 213.5 185.628 235.9 213.228 235.9V210.7C199.228 210.7 188.029 199.5 188.029 185.5H213.228V135.9H163.229Z" fill="#8C6B6B"/>
<path opacity="0.49" d="M285.628 133.1V183.1H260.428C260.428 197.1 271.628 208.3 285.628 208.3V233.5C258.028 233.5 235.628 211.1 235.628 183.5V133.1H285.628ZM160.428 133.1V183.1C160.428 210.7 182.828 233.1 210.428 233.1V207.9C196.428 207.9 185.228 196.7 185.228 182.7H210.428V133.1H160.428Z" fill="#8C6B6B"/>
<path opacity="0.51" d="M282.829 129.9V179.9H257.629C257.629 193.9 268.829 205.1 282.829 205.1V230.3C255.229 230.3 232.829 207.9 232.829 180.3V129.9H282.829ZM157.629 129.9V179.9C157.629 207.5 180.029 229.9 207.629 229.9V204.7C193.629 204.7 182.429 193.5 182.429 179.5H207.629V129.9H157.629Z" fill="#8C6B6B"/>
<path opacity="0.54" d="M280.028 127.1V177.1H254.828C254.828 191.1 266.028 202.3 280.028 202.3V227.5C252.428 227.5 230.028 205.1 230.028 177.5V127.1H280.028ZM154.828 127.1V177.1C154.828 204.7 177.228 227.1 204.828 227.1V201.9C190.828 201.9 179.628 190.7 179.628 176.7H204.828V127.1H154.828Z" fill="#8C6B6B"/>
<path opacity="0.57" d="M276.829 124.3V174.3H251.629C251.629 188.3 262.829 199.5 276.429 199.5V224.7C248.829 224.7 226.429 202.3 226.429 174.7V124.3H276.829ZM152.029 124.3V174.3C152.029 201.9 174.429 224.3 202.029 224.3V199.5C188.029 199.5 176.829 188.3 176.829 174.3H202.029V124.3H152.029Z" fill="#8C6B6B"/>
<path opacity="0.6" d="M274.029 121.5V171.5H248.829C248.829 185.5 260.029 196.7 274.029 196.7V221.9C246.429 221.9 224.029 199.5 224.029 171.9V121.5H274.029ZM149.229 121.5V171.5C149.229 199.1 171.628 221.5 199.228 221.5V196.3C185.228 196.3 174.428 185.1 174.428 171.1H199.228V121.5H149.229Z" fill="#8C6B6B"/>
<path opacity="0.63" d="M271.228 118.7V168.7H246.028C246.028 182.7 257.228 193.9 271.228 193.9V219.1C243.628 219.1 221.228 196.7 221.228 169.1V118.7H271.228ZM146.428 118.7V168.7C146.428 196.3 168.828 218.7 196.428 218.7V193.5C182.428 193.5 171.228 182.3 171.228 168.3H196.428V118.7H146.428Z" fill="#8C6B6B"/>
<path opacity="0.66" d="M268.428 115.9V165.9H243.228C243.228 179.9 254.428 191.1 268.428 191.1V216.3C240.828 216.3 218.428 193.9 218.428 166.3V115.9H268.428ZM143.229 115.9V165.9C143.229 193.5 165.628 215.9 193.228 215.9V190.7C179.228 190.7 168.029 179.5 168.029 165.5H193.228V115.9H143.229Z" fill="#8C6B6B"/>
<path opacity="0.69" d="M265.628 113.1V163.1H240.428C240.428 177.1 251.628 188.3 265.628 188.3V213.5C238.028 213.5 215.628 191.1 215.628 163.5V113.1H265.628ZM140.428 113.1V163.1C140.428 190.7 162.828 213.1 190.428 213.1V187.9C176.428 187.9 165.228 176.7 165.228 162.7H190.428V113.1H140.428Z" fill="#8C6B6B"/>
<path opacity="0.71" d="M262.829 109.9V159.9H237.629C237.629 173.9 248.829 185.1 262.829 185.1V210.3C235.229 210.3 212.829 187.9 212.829 160.3V109.9H262.829ZM137.629 109.9V159.9C137.629 187.5 160.029 209.9 187.629 209.9V184.7C173.629 184.7 162.429 173.5 162.429 159.5H187.629V109.9H137.629Z" fill="#8C6B6B"/>
<path opacity="0.74" d="M260.028 107.1V157.1H234.828C234.828 171.1 246.028 182.3 260.028 182.3V207.5C232.428 207.5 210.028 185.1 210.028 157.5V107.1H260.028ZM134.828 107.1V157.1C134.828 184.7 157.228 207.1 184.828 207.1V181.9C170.828 181.9 159.628 170.7 159.628 156.7H184.828V107.1H134.828Z" fill="#8C6B6B"/>
<path opacity="0.77" d="M256.829 104.3V154.3H231.629C231.629 168.3 242.829 179.5 256.429 179.5V204.7C228.829 204.7 206.429 182.3 206.429 154.7V104.3H256.829ZM132.029 104.3V154.3C132.029 181.9 154.429 204.3 182.029 204.3V179.5C168.029 179.5 156.829 168.3 156.829 154.3H182.029V104.3H132.029Z" fill="#8C6B6B"/>
<path opacity="0.8" d="M254.029 101.5V151.5H228.829C228.829 165.5 240.029 176.7 254.029 176.7V201.9C226.429 201.9 204.029 179.5 204.029 151.9V101.5H254.029ZM129.229 101.5V151.5C129.229 179.1 151.629 201.5 179.229 201.5V176.3C165.229 176.3 154.428 165.1 154.428 151.1H179.629V101.5H129.229Z" fill="#8C6B6B"/>
<path opacity="0.83" d="M251.228 98.7V148.7H226.028C226.028 162.7 237.228 173.9 251.228 173.9V199.1C223.628 199.1 201.228 176.7 201.228 149.1V98.7H251.228ZM126.428 98.7V148.7C126.428 176.3 148.828 198.7 176.428 198.7V173.5C162.428 173.5 151.228 162.3 151.228 148.3H176.428V98.7H126.428Z" fill="#8C6B6B"/>
<path opacity="0.86" d="M248.428 95.8999V145.9H223.228C223.228 159.9 234.428 171.1 248.428 171.1V196.3C220.828 196.3 198.428 173.9 198.428 146.3V95.8999H248.428ZM123.229 95.8999V145.9C123.229 173.5 145.629 195.9 173.229 195.9V170.7C159.229 170.7 148.029 159.5 148.029 145.5H173.229V95.8999H123.229Z" fill="#8C6B6B"/>
<path opacity="0.89" d="M245.628 93.1001V143.1H220.428C220.428 157.1 231.628 168.3 245.628 168.3V193.5C218.028 193.5 195.628 171.1 195.628 143.5V93.1001H245.628ZM120.428 93.1001V143.1C120.428 170.7 142.828 193.1 170.428 193.1V167.9C156.428 167.9 145.228 156.7 145.228 142.7H170.428V93.1001H120.428Z" fill="#8C6B6B"/>
<path opacity="0.91" d="M242.829 89.8999V139.9H217.629C217.629 153.9 228.829 165.1 242.829 165.1V190.3C215.229 190.3 192.829 167.9 192.829 140.3V89.8999H242.829ZM117.629 89.8999V139.9C117.629 167.5 140.029 189.9 167.629 189.9V164.7C153.629 164.7 142.429 153.5 142.429 139.5H167.629V89.8999H117.629Z" fill="#8C6B6B"/>
<path opacity="0.94" d="M240.028 87.1001V137.1H214.828C214.828 151.1 226.028 162.3 240.028 162.3V187.5C212.428 187.5 190.028 165.1 190.028 137.5V87.1001H240.028ZM114.828 87.1001V137.1C114.828 164.7 137.228 187.1 164.828 187.1V161.9C150.828 161.9 139.628 150.7 139.628 136.7H164.828V87.1001H114.828Z" fill="#8C6B6B"/>
<path opacity="0.97" d="M236.829 84.3V134.3H211.629C211.629 148.3 222.829 159.5 236.429 159.5V184.7C208.829 184.7 186.429 162.3 186.429 134.7V84.3H236.829ZM112.029 84.3V134.3C112.029 161.9 134.429 184.3 162.029 184.3V159.5C148.029 159.5 136.829 148.3 136.829 134.3H162.029V84.3H112.029Z" fill="#8C6B6B"/>
<path opacity="0.5" d="M234.029 81.5V131.5H208.829C208.829 145.5 220.029 156.7 234.029 156.7V181.9C206.429 181.9 184.029 159.5 184.029 131.9V81.5H234.029ZM109.229 81.5V131.5C109.229 159.1 131.629 181.5 159.229 181.5V156.3C145.229 156.3 134.428 145.1 134.428 131.1H159.629V81.5H109.229Z" fill="#8C6B6B"/>
</g>
</g>
</g>
<path d="M201.792 71.6697V111.839H181.594C181.594 123.087 190.571 132.085 201.792 132.085V152.33C179.67 152.33 161.717 134.334 161.717 112.161V71.6697H201.792Z" fill="white"/>
<path d="M141.841 71.6697V111.839H121.643C121.643 123.087 130.62 132.085 141.841 132.085V152.33C119.719 152.33 101.766 134.334 101.766 112.161V71.6697H141.841Z" fill="white"/>
<rect width="129.843" height="27.6367" fill="black" fill-opacity="0" transform="translate(268.475 71.3481) scale(4)"/>
<path d="M439.996 112.16C439.996 89.9868 455.706 71.6694 478.148 71.6694C503.795 71.6694 515.658 91.5936 515.658 113.446C515.658 115.053 515.658 117.302 515.337 119.23H461.797C463.079 128.55 471.415 134.977 480.712 134.334C487.766 134.334 494.498 131.442 499.307 126.3L511.81 137.548C504.116 147.188 492.574 152.33 480.392 152.009C456.988 152.009 439.996 135.62 439.996 112.16ZM494.177 105.733C492.895 96.0926 487.124 89.3441 477.827 89.3441C468.529 89.3441 462.759 95.7712 461.156 105.733H494.177Z" fill="#212121"/>
<path d="M527.84 112.16C527.84 89.9868 543.549 71.6694 565.991 71.6694C591.639 71.6694 603.501 91.5936 603.501 113.446C603.501 115.053 603.501 117.302 603.181 119.23H549.641C550.923 128.55 559.259 134.977 568.556 134.334C575.609 134.334 582.342 131.442 587.151 126.3L599.654 137.548C591.96 147.188 580.418 152.33 568.235 152.009C545.152 152.009 527.84 135.62 527.84 112.16ZM582.342 105.733C581.059 96.0926 575.289 89.3441 565.991 89.3441C556.694 89.3441 550.923 95.7712 549.32 105.733H582.342Z" fill="#212121"/>
<path d="M655.438 133.37C643.576 133.37 633.958 123.729 633.958 111.839C633.958 99.949 643.576 90.3083 655.438 90.3083C663.453 90.3083 670.827 94.8073 674.354 101.877H694.231C688.781 80.3462 666.98 67.4919 645.5 72.955C624.019 78.4181 611.195 100.27 616.646 121.801C622.096 143.332 643.897 156.187 665.377 150.723C679.483 147.189 690.384 135.941 694.231 121.801H674.354C670.506 128.871 663.453 133.37 655.438 133.37Z" fill="#212121"/>
<path d="M268.475 140.119L277.772 125.658C284.825 131.121 293.481 134.334 302.458 134.977C308.87 134.977 311.756 132.727 311.756 129.192V128.871C311.756 124.051 304.061 122.444 295.726 119.873C284.825 116.66 272.642 111.518 272.642 96.414V96.0926C272.642 80.3461 285.466 71.3481 300.855 71.3481C311.114 71.6695 321.053 74.5617 329.709 80.3461L321.374 95.4499C314.962 91.2723 307.908 88.7014 300.535 88.0587C295.084 88.0587 292.52 90.3082 292.52 93.5218V93.8432C292.52 98.0208 299.893 100.27 308.229 103.163C319.129 106.697 331.633 112.161 331.633 126.3V126.622C331.633 143.975 318.809 151.687 301.817 151.687C289.634 152.009 278.093 147.831 268.475 140.119Z" fill="#212121"/>
<path d="M747.772 90.3082C759.634 90.3082 769.252 99.9489 769.252 111.839C769.252 123.729 759.634 133.37 747.772 133.37C735.91 133.37 726.292 123.729 726.292 111.839C726.292 99.9489 735.91 90.3082 747.772 90.3082ZM747.772 71.6694C725.651 71.6694 707.697 89.6654 707.697 111.839C707.697 134.013 725.651 152.009 747.772 152.009C769.894 152.009 787.847 134.013 787.847 111.839C787.847 89.6654 769.894 71.6694 747.772 71.6694Z" fill="#212121"/>
<path d="M366.898 181.895V145.582C385.493 156.829 409.858 151.045 421.079 132.406C432.3 113.767 426.53 89.3441 407.935 78.0966C395.431 70.384 379.401 70.384 366.898 78.0966V71.6694H347.662V181.895H366.898ZM387.416 91.9149C398.317 91.9149 407.294 100.913 407.294 111.839C407.294 122.765 398.317 131.763 387.416 131.763C376.516 131.763 367.539 122.765 367.539 111.839C367.539 100.913 376.516 91.9149 387.416 91.9149Z" fill="#212121"/>
</g>
<defs>
<filter id="filter0_d" x="0" y="0" width="856" height="311.1" filterUnits="userSpaceOnUse" color-interpolation-filters="sRGB">
<feFlood flood-opacity="0" result="BackgroundImageFix"/>
<feColorMatrix in="SourceAlpha" type="matrix" values="0 0 0 0 0 0 0 0 0 0 0 0 0 0 0 0 0 0 127 0"/>
<feOffset dy="4"/>
<feGaussianBlur stdDeviation="2"/>
<feColorMatrix type="matrix" values="0 0 0 0 0 0 0 0 0 0 0 0 0 0 0 0 0 0 0.25 0"/>
<feBlend mode="normal" in2="BackgroundImageFix" result="effect1_dropShadow"/>
<feBlend mode="normal" in="SourceGraphic" in2="effect1_dropShadow" result="shape"/>
</filter>
</defs>
</svg>
