<svg width="1140" height="1668" viewBox="0 0 1140 1668" fill="none" xmlns="http://www.w3.org/2000/svg">
<rect width="285" height="417" fill="black" fill-opacity="0" transform="scale(4)"/>
<rect width="285" height="417" fill="black" fill-opacity="0" transform="scale(4)"/>
<path d="M1112.19 1195.4C1112.19 1348.3 987.071 1473.4 834.146 1473.4C681.221 1473.4 556.1 1348.3 556.1 1195.4C556.1 1042.5 681.221 917.4 834.146 917.4C987.071 917.4 1112.19 1042.5 1112.19 1195.4Z" fill="#DD3859"/>
<path d="M1028.78 1195.4C1028.78 1348.3 923.119 1473.4 792.439 1473.4C661.759 1473.4 556.1 1348.3 556.1 1195.4C556.1 1042.5 661.756 917.4 792.439 917.4C923.123 917.4 1028.78 1042.5 1028.78 1195.4Z" fill="#E4667F"/>
<path d="M739.607 934.08C745.169 911.839 750.728 886.818 750.728 861.798V305.801C750.728 152.902 625.607 27.8018 472.681 27.8018C319.756 27.8018 194.635 152.899 194.635 305.801V861.802C194.635 1014.7 319.756 1139.8 472.681 1139.8C506.047 1139.8 536.633 1134.24 567.217 1123.12C589.461 1034.16 656.193 964.661 739.607 934.08Z" fill="#FFA800"/>
<path d="M658.976 934.08C664.538 911.839 667.317 886.818 667.317 861.798V305.801C667.317 152.902 561.658 27.8018 430.978 27.8018C300.297 27.8018 194.635 152.899 194.635 305.801V861.802C194.635 1014.7 300.294 1139.8 430.974 1139.8C458.778 1139.8 486.585 1134.24 508.827 1123.12C531.071 1034.16 586.682 964.661 658.976 934.08Z" fill="#FFE100"/>
<path d="M750.731 1640.2H194.635C194.635 1579.04 244.683 1529 305.853 1529H639.51C700.683 1529 750.731 1579.04 750.731 1640.2Z" fill="#FFA800"/>
<path d="M667.317 1640.2H194.635C194.635 1579.04 244.683 1529 305.853 1529H556.096C617.268 1529 667.317 1579.04 667.317 1640.2Z" fill="#FFE100"/>
<path d="M472.681 27.7988C478.243 27.7988 481.023 27.7988 486.585 27.7988C342.001 36.1388 278.049 155.678 278.049 305.798V861.799C278.049 1011.92 342.001 1131.46 486.585 1139.8C481.023 1139.8 478.243 1139.8 472.681 1139.8C319.756 1139.8 194.635 1014.7 194.635 861.799V305.801C194.635 152.899 319.756 27.7988 472.681 27.7988Z" fill="white"/>
<path d="M583.904 583.799C583.904 644.958 533.856 694.998 472.686 694.998C411.517 694.998 361.465 644.958 361.465 583.799C361.465 522.641 411.513 472.601 472.683 472.601C533.852 472.601 583.904 522.641 583.904 583.799Z" fill="#DD3859"/>
<path d="M472.683 1556.8C456 1556.8 444.879 1545.68 444.879 1529V1306.6C444.879 1289.92 456 1278.8 472.683 1278.8C489.365 1278.8 500.486 1289.92 500.486 1306.6V1529C500.49 1545.68 489.365 1556.8 472.683 1556.8Z" fill="black"/>
<path d="M361.464 361.399H194.636C177.953 361.399 166.832 350.28 166.832 333.6C166.832 316.92 177.953 305.801 194.636 305.801H361.464C378.147 305.801 389.268 316.92 389.268 333.6C389.268 350.28 378.147 361.399 361.464 361.399Z" fill="black"/>
<path d="M750.732 361.399H583.903C567.22 361.399 556.1 350.28 556.1 333.6C556.1 316.92 567.22 305.801 583.903 305.801H750.732C767.415 305.801 778.536 316.92 778.536 333.6C778.536 350.28 767.415 361.399 750.732 361.399Z" fill="black"/>
<path d="M750.732 528.198H667.317C650.634 528.198 639.514 517.08 639.514 500.4C639.514 483.72 650.634 472.601 667.317 472.601H750.732C767.415 472.601 778.535 483.72 778.535 500.4C778.535 517.08 767.415 528.198 750.732 528.198Z" fill="black"/>
<path d="M750.732 694.999H667.317C650.634 694.999 639.514 683.88 639.514 667.2C639.514 650.52 650.634 639.401 667.317 639.401H750.732C767.415 639.401 778.535 650.52 778.535 667.2C778.535 683.88 767.415 694.999 750.732 694.999Z" fill="black"/>
<path d="M750.732 861.799H583.903C567.22 861.799 556.1 850.68 556.1 834C556.1 817.32 567.22 806.201 583.903 806.201H750.732C767.415 806.201 778.536 817.32 778.536 834C778.536 850.68 767.415 861.799 750.732 861.799Z" fill="black"/>
<path d="M278.05 528.198H194.636C177.953 528.198 166.832 517.08 166.832 500.4C166.832 483.72 177.953 472.601 194.636 472.601H278.05C294.733 472.601 305.854 483.72 305.854 500.4C305.854 517.08 294.733 528.198 278.05 528.198Z" fill="black"/>
<path d="M278.05 694.999H194.636C177.953 694.999 166.832 683.88 166.832 667.2C166.832 650.52 177.953 639.401 194.636 639.401H278.05C294.733 639.401 305.854 650.52 305.854 667.2C305.854 683.88 294.733 694.999 278.05 694.999Z" fill="black"/>
<path d="M361.464 861.799H194.636C177.953 861.799 166.832 850.68 166.832 834C166.832 817.32 177.953 806.201 194.636 806.201H361.464C378.147 806.201 389.268 817.32 389.268 834C389.268 850.68 378.147 861.799 361.464 861.799Z" fill="black"/>
<path d="M750.732 1668H194.636C177.953 1668 166.832 1656.88 166.832 1640.2C166.832 1562.36 228.001 1501.2 305.857 1501.2H639.514C717.367 1501.2 778.539 1562.36 778.539 1640.2C778.536 1656.88 767.415 1668 750.732 1668ZM228.001 1612.4H720.146C709.025 1579.04 678.439 1556.8 642.294 1556.8H305.854C269.709 1556.8 239.122 1579.04 228.001 1612.4Z" fill="black"/>
<path d="M472.683 222.401C456 222.401 444.879 211.282 444.879 194.602V27.8018C444.879 11.1218 456 0.00292969 472.683 0.00292969C489.365 0.00292969 500.486 11.1218 500.486 27.8018V194.602C500.49 211.279 489.365 222.401 472.683 222.401Z" fill="black"/>
<path d="M472.683 1167.6C456 1167.6 444.879 1156.48 444.879 1139.8V973.001C444.879 956.321 456 945.202 472.683 945.202C489.365 945.202 500.486 956.321 500.486 973.001V1139.8C500.49 1156.48 489.365 1167.6 472.683 1167.6Z" fill="black"/>
<path d="M472.681 722.801C394.829 722.801 333.656 661.642 333.656 583.8C333.656 505.958 394.826 444.799 472.681 444.799C550.537 444.799 611.706 505.961 611.706 583.8C611.706 661.639 550.537 722.801 472.681 722.801ZM472.681 500.4C425.412 500.4 389.267 536.539 389.267 583.8C389.267 631.061 425.412 667.2 472.681 667.2C519.95 667.2 556.096 631.061 556.096 583.8C556.096 536.539 519.95 500.4 472.681 500.4Z" fill="black"/>
<path d="M834.147 1501.2C664.538 1501.2 528.293 1364.98 528.293 1195.4C528.293 1025.82 664.535 889.598 834.147 889.598C1003.76 889.598 1140 1025.82 1140 1195.4C1140 1364.98 1003.75 1501.2 834.147 1501.2ZM834.147 945.199C695.122 945.199 583.904 1056.4 583.904 1195.4C583.904 1334.4 695.122 1445.6 834.147 1445.6C973.171 1445.6 1084.39 1334.4 1084.39 1195.4C1084.39 1056.4 973.168 945.199 834.147 945.199Z" fill="black"/>
<path d="M742.391 961.879C736.829 961.879 728.487 959.1 722.929 953.539C714.587 945.199 711.808 936.859 714.587 925.74C720.149 903.499 722.929 881.261 722.929 861.799V583.8C722.929 567.12 734.049 556.001 750.732 556.001H917.561C934.244 556.001 945.365 567.12 945.365 583.8V861.799C945.365 884.04 942.585 906.278 939.803 934.08C939.803 942.42 934.241 947.981 925.899 953.539C917.558 959.1 911.996 959.1 903.654 956.318C853.606 942.417 800.778 942.417 750.729 961.879C747.95 961.879 745.17 961.879 742.391 961.879ZM778.536 611.599V861.799C778.536 872.918 778.536 884.04 775.757 895.159C811.902 886.819 850.829 886.819 886.975 895.159C886.975 884.04 889.754 872.918 889.754 861.799V611.599H778.536Z" fill="black"/>
<path d="M472.682 1334.4C211.318 1334.4 0 1123.12 0 861.799V583.8C0 567.12 11.1208 556.001 27.8037 556.001H194.632C211.315 556.001 222.436 567.12 222.436 583.8V861.799C222.436 1000.8 333.654 1112 472.679 1112C500.483 1112 528.29 1106.44 556.093 1098.1C564.435 1095.32 575.556 1098.1 583.897 1103.66C592.238 1112 595.018 1120.34 592.238 1131.46C586.676 1153.7 583.897 1173.16 583.897 1195.4C583.897 1225.98 589.459 1256.56 600.58 1284.36C603.359 1292.7 603.359 1301.04 597.8 1306.6C595.021 1314.94 586.68 1317.72 578.338 1320.5C544.976 1328.84 508.831 1334.4 472.682 1334.4ZM55.6106 611.599V861.799C55.6106 1092.54 241.901 1278.8 472.682 1278.8C494.927 1278.8 517.169 1276.02 539.414 1273.24C531.072 1248.22 528.293 1220.42 528.293 1195.4C528.293 1184.28 528.293 1173.16 531.072 1162.04C511.61 1164.82 492.144 1167.6 472.682 1167.6C303.074 1167.6 166.829 1031.38 166.829 861.799V611.599H55.6106Z" fill="black"/>
<path d="M472.684 1167.6C303.076 1167.6 166.83 1031.38 166.83 861.799V305.801C166.833 136.219 303.076 0 472.684 0C642.292 0 778.537 136.219 778.537 305.801V861.802C778.537 886.822 775.758 914.621 767.416 939.641C764.637 947.981 759.075 956.321 750.734 959.1C672.881 986.899 614.491 1050.84 592.246 1128.68C589.467 1137.02 583.905 1145.36 575.563 1148.14C542.198 1162.04 506.049 1167.6 472.684 1167.6ZM472.684 55.6011C333.659 55.6011 222.441 166.8 222.441 305.801V861.802C222.441 1000.8 333.659 1112 472.684 1112C497.708 1112 519.953 1109.22 542.194 1100.88C569.998 1014.7 633.95 947.984 717.365 911.842C720.144 895.162 722.927 878.482 722.927 861.802V305.801C722.927 166.8 611.709 55.6011 472.684 55.6011Z" fill="black"/>
<path d="M1000.97 1223.2H667.317C650.634 1223.2 639.514 1212.08 639.514 1195.4C639.514 1178.72 650.634 1167.6 667.317 1167.6H1000.97C1017.66 1167.6 1028.78 1178.72 1028.78 1195.4C1028.78 1212.08 1017.66 1223.2 1000.97 1223.2Z" fill="black"/>
</svg>
