<svg width="3040" height="2628" viewBox="0 0 3040 2628" fill="none" xmlns="http://www.w3.org/2000/svg">
<path opacity="0.1" d="M1806.31 2628C1988.31 2628 2135.84 2603.28 2135.84 2572.8C2135.84 2542.31 1988.31 2517.59 1806.31 2517.59C1624.32 2517.59 1476.78 2542.31 1476.78 2572.8C1476.78 2603.28 1624.32 2628 1806.31 2628Z" fill="#FF5722"/>
<path opacity="0.1" d="M1936.47 324.475C1801.57 438.889 1626.54 431.496 1473.33 371.978C1320.12 312.461 1178.99 206.457 1029.6 131.136C907.322 68.9323 775.604 27.3491 639.767 8.06525C449.364 -18.3356 236.682 13.826 103.994 198.786C-43.7616 404.756 -32.3911 776.247 127.413 965.428C208.702 1061.6 315.136 1108.8 407.98 1183.91C500.824 1259.01 586.704 1383.68 578.816 1528.63C571.513 1662.82 486.372 1765.83 398.366 1830.53C330.296 1880.43 246.481 1934.96 238.13 2038.38C230.18 2138.43 300.653 2216.84 367.983 2261.44C587.506 2406.91 857.934 2405.49 1076.72 2257.78C1154.77 2205.07 1226.48 2134.98 1308.32 2093.89C1523.16 1986.07 1759.94 2094.6 1987.41 2134.31C2179.97 2167.92 2377.43 2150.51 2565.03 2083.38C2677.69 2043.09 2790.78 1981.48 2869.94 1866.69C2927.01 1783.92 2962.57 1679.14 2995.94 1575.7C3031.56 1465.37 3065.79 1354.27 3098.62 1242.41C3118.31 1175.25 3137.72 1106.86 3142.8 1034.96C3152.05 904.74 3113.16 776.186 3060.25 666.146C2934.74 405.033 2723.14 221.583 2494.1 174.973C2265.05 128.363 2022.36 219.395 1844.62 418.557" fill="#FF5722"/>
<g opacity="0.35">
<path opacity="0.2" d="M1399.77 632.563V612.077H1076.84C1061.98 612.077 1071.04 632.686 1071.04 632.686H895.586V1092.16H1665.95V632.563H1399.77Z" fill="#FF5722"/>
</g>
<path d="M2424.11 975.281C2424.11 975.281 2521.21 803.321 2667.55 753.785C2729.01 733.393 2782.2 693.612 2819.12 640.418C2836.46 615.043 2851.43 588.129 2863.84 560.014" stroke="#535461" stroke-width="2" stroke-miterlimit="10"/>
<path d="M2955.66 528.222C2939.02 544.396 2861.43 561.123 2861.43 561.123C2861.43 561.123 2880.44 484.108 2897.12 467.904C2905.12 460.142 2915.87 455.876 2927.02 456.043C2938.17 456.211 2948.79 460.799 2956.56 468.797C2964.32 476.796 2968.59 487.551 2968.42 498.695C2968.25 509.839 2963.66 520.461 2955.66 528.222Z" fill="#FF5722"/>
<path d="M2911.78 667.528C2889.01 672.056 2814.78 643.93 2814.78 643.93C2814.78 643.93 2872.65 589.619 2895.42 585.09C2900.83 584.016 2906.41 584.019 2911.82 585.098C2917.23 586.177 2922.38 588.311 2926.97 591.379C2931.56 594.447 2935.5 598.389 2938.56 602.979C2941.63 607.569 2943.76 612.717 2944.83 618.13C2945.9 623.543 2945.9 629.114 2944.82 634.526C2943.74 639.938 2941.61 645.084 2938.54 649.671C2935.47 654.258 2931.53 658.196 2926.94 661.26C2922.35 664.324 2917.2 666.453 2911.78 667.528Z" fill="#FF5722"/>
<path d="M2751.95 818.478C2730.01 810.899 2680.15 749.164 2680.15 749.164C2680.15 749.164 2757.53 731.45 2779.47 739.059C2784.68 740.866 2789.49 743.682 2793.62 747.346C2797.75 751.01 2801.11 755.452 2803.52 760.416C2805.93 765.381 2807.34 770.772 2807.67 776.281C2808 781.79 2807.23 787.309 2805.43 792.524C2803.62 797.738 2800.8 802.546 2797.14 806.673C2793.47 810.799 2789.03 814.163 2784.06 816.573C2779.1 818.983 2773.71 820.392 2768.2 820.719C2762.69 821.046 2757.16 820.284 2751.95 818.478Z" fill="#FF5722"/>
<path d="M2605.3 905.382C2582.41 901.655 2522.81 849.284 2522.81 849.284C2522.81 849.284 2596.09 818.786 2619.01 822.545C2624.46 823.445 2629.68 825.408 2634.36 828.324C2639.05 831.239 2643.12 835.049 2646.33 839.536C2649.55 844.023 2651.85 849.099 2653.1 854.474C2654.35 859.849 2654.53 865.419 2653.63 870.864C2652.73 876.309 2650.77 881.524 2647.85 886.21C2644.94 890.896 2641.13 894.963 2636.64 898.177C2632.15 901.39 2627.07 903.689 2621.7 904.941C2616.32 906.194 2610.75 906.375 2605.3 905.475V905.382Z" fill="#FF5722"/>
<path d="M2750.07 583.827C2750.07 607.055 2792.07 674.367 2792.07 674.367C2792.07 674.367 2834.16 607.086 2834.16 583.858C2834.32 578.242 2833.34 572.653 2831.3 567.42C2829.25 562.187 2826.18 557.417 2822.26 553.391C2818.34 549.365 2813.65 546.165 2808.48 543.98C2803.3 541.795 2797.74 540.67 2792.12 540.67C2786.5 540.67 2780.93 541.795 2775.76 543.98C2770.58 546.165 2765.89 549.365 2761.97 553.391C2758.06 557.417 2754.98 562.187 2752.94 567.42C2750.89 572.653 2749.92 578.242 2750.07 583.858V583.827Z" fill="#FF5722"/>
<path d="M2579.88 687.644C2586.81 709.794 2647.05 761.579 2647.05 761.579C2647.05 761.579 2667.05 684.779 2660.12 662.629C2658.68 657.122 2656.15 651.964 2652.66 647.468C2649.17 642.971 2644.8 639.23 2639.82 636.472C2634.84 633.713 2629.35 631.994 2623.69 631.419C2618.03 630.845 2612.31 631.426 2606.88 633.128C2601.44 634.831 2596.41 637.618 2592.09 641.322C2587.77 645.026 2584.25 649.569 2581.73 654.675C2579.22 659.781 2577.77 665.345 2577.47 671.028C2577.18 676.711 2578.04 682.396 2580 687.736L2579.88 687.644Z" fill="#FF5722"/>
<path d="M2428.27 811.238C2431.35 834.25 2482.01 895.37 2482.01 895.37C2482.01 895.37 2514.71 823.068 2511.63 800.056C2511.23 794.318 2509.66 788.723 2507.01 783.616C2504.37 778.509 2500.7 773.999 2496.25 770.365C2491.79 766.73 2486.63 764.049 2481.09 762.486C2475.56 760.923 2469.76 760.512 2464.06 761.278C2458.36 762.044 2452.87 763.972 2447.95 766.941C2443.02 769.91 2438.76 773.858 2435.42 778.541C2432.08 783.223 2429.73 788.541 2428.53 794.165C2427.33 799.789 2427.29 805.6 2428.43 811.238H2428.27Z" fill="#FF5722"/>
<path opacity="0.25" d="M2955.66 528.222C2939.02 544.396 2861.43 561.123 2861.43 561.123C2861.43 561.123 2880.44 484.108 2897.12 467.904C2905.12 460.142 2915.87 455.876 2927.02 456.043C2938.17 456.211 2948.79 460.799 2956.56 468.797C2964.32 476.796 2968.59 487.551 2968.42 498.695C2968.25 509.839 2963.66 520.461 2955.66 528.222Z" fill="black"/>
<path opacity="0.25" d="M2911.78 667.528C2889.01 672.056 2814.78 643.93 2814.78 643.93C2814.78 643.93 2872.65 589.619 2895.42 585.09C2900.83 584.016 2906.41 584.019 2911.82 585.098C2917.23 586.177 2922.38 588.311 2926.97 591.379C2931.56 594.447 2935.5 598.389 2938.56 602.979C2941.63 607.569 2943.76 612.717 2944.83 618.13C2945.9 623.543 2945.9 629.114 2944.82 634.526C2943.74 639.938 2941.61 645.084 2938.54 649.671C2935.47 654.258 2931.53 658.196 2926.94 661.26C2922.35 664.324 2917.2 666.453 2911.78 667.528Z" fill="black"/>
<path opacity="0.25" d="M2751.95 818.478C2730.01 810.899 2680.15 749.164 2680.15 749.164C2680.15 749.164 2757.53 731.45 2779.47 739.059C2784.68 740.866 2789.49 743.682 2793.62 747.346C2797.75 751.01 2801.11 755.452 2803.52 760.416C2805.93 765.381 2807.34 770.772 2807.67 776.281C2808 781.79 2807.23 787.309 2805.43 792.524C2803.62 797.738 2800.8 802.546 2797.14 806.673C2793.47 810.799 2789.03 814.163 2784.06 816.573C2779.1 818.983 2773.71 820.392 2768.2 820.719C2762.69 821.046 2757.16 820.284 2751.95 818.478Z" fill="black"/>
<path opacity="0.25" d="M2605.3 905.382C2582.41 901.655 2522.81 849.284 2522.81 849.284C2522.81 849.284 2596.09 818.786 2619.01 822.545C2624.46 823.445 2629.68 825.408 2634.36 828.324C2639.05 831.239 2643.12 835.049 2646.33 839.536C2649.55 844.023 2651.85 849.099 2653.1 854.474C2654.35 859.849 2654.53 865.419 2653.63 870.864C2652.73 876.309 2650.77 881.524 2647.85 886.21C2644.94 890.896 2641.13 894.963 2636.64 898.177C2632.15 901.39 2627.07 903.689 2621.7 904.941C2616.32 906.194 2610.75 906.375 2605.3 905.475V905.382Z" fill="black"/>
<path opacity="0.25" d="M2750.07 583.827C2750.07 607.055 2792.07 674.367 2792.07 674.367C2792.07 674.367 2834.16 607.086 2834.16 583.858C2834.32 578.242 2833.34 572.653 2831.3 567.42C2829.25 562.187 2826.18 557.417 2822.26 553.391C2818.34 549.365 2813.65 546.165 2808.48 543.98C2803.3 541.795 2797.74 540.67 2792.12 540.67C2786.5 540.67 2780.93 541.795 2775.76 543.98C2770.58 546.165 2765.89 549.365 2761.97 553.391C2758.06 557.417 2754.98 562.187 2752.94 567.42C2750.89 572.653 2749.92 578.242 2750.07 583.858V583.827Z" fill="black"/>
<path opacity="0.25" d="M2579.88 687.644C2586.81 709.794 2647.05 761.579 2647.05 761.579C2647.05 761.579 2667.05 684.779 2660.12 662.629C2658.68 657.122 2656.15 651.964 2652.66 647.468C2649.17 642.971 2644.8 639.23 2639.82 636.472C2634.84 633.713 2629.35 631.994 2623.69 631.419C2618.03 630.845 2612.31 631.426 2606.88 633.128C2601.44 634.831 2596.41 637.618 2592.09 641.322C2587.77 645.026 2584.25 649.569 2581.73 654.675C2579.22 659.781 2577.77 665.345 2577.47 671.028C2577.18 676.711 2578.04 682.396 2580 687.736L2579.88 687.644Z" fill="black"/>
<path opacity="0.25" d="M2428.27 811.238C2431.35 834.25 2482.01 895.37 2482.01 895.37C2482.01 895.37 2514.71 823.068 2511.63 800.056C2511.23 794.318 2509.66 788.723 2507.01 783.616C2504.37 778.509 2500.7 773.999 2496.25 770.365C2491.79 766.73 2486.63 764.049 2481.09 762.486C2475.56 760.923 2469.76 760.512 2464.06 761.278C2458.36 762.044 2452.87 763.972 2447.95 766.941C2443.02 769.91 2438.76 773.858 2435.42 778.541C2432.08 783.223 2429.73 788.541 2428.53 794.165C2427.33 799.789 2427.29 805.6 2428.43 811.238H2428.27Z" fill="black"/>
<path d="M2429.72 971.862C2429.72 971.862 2448.76 775.318 2562.22 670.793C2610.16 627.264 2642.65 569.349 2654.82 505.765C2660.39 475.534 2663.17 444.855 2663.11 414.116" stroke="#535461" stroke-width="2" stroke-miterlimit="10"/>
<path d="M2734.48 347.821C2725.79 369.386 2661.63 416.088 2661.63 416.088C2661.63 416.088 2647.79 337.902 2656.48 316.337C2658.55 311.218 2661.6 306.555 2665.47 302.614C2669.33 298.674 2673.94 295.534 2679.02 293.372C2684.1 291.211 2689.56 290.072 2695.08 290.019C2700.6 289.966 2706.07 291 2711.2 293.063C2716.32 295.127 2720.98 298.178 2724.92 302.043C2728.86 305.909 2732 310.512 2734.17 315.591C2736.33 320.67 2737.47 326.125 2737.52 331.645C2737.57 337.164 2736.54 342.64 2734.48 347.76V347.821Z" fill="#FF5722"/>
<path d="M2750.84 493.042C2731.86 506.411 2652.6 510.755 2652.6 510.755C2652.6 510.755 2683.42 437.652 2702.46 424.313C2706.97 421.137 2712.07 418.882 2717.46 417.675C2722.84 416.468 2728.41 416.333 2733.85 417.278C2739.29 418.224 2744.49 420.231 2749.15 423.185C2753.81 426.139 2757.85 429.982 2761.02 434.495C2764.2 439.007 2766.46 444.101 2767.66 449.486C2768.87 454.871 2769.01 460.44 2768.06 465.877C2767.11 471.313 2765.11 476.51 2762.15 481.171C2759.2 485.832 2755.35 489.866 2750.84 493.042Z" fill="#FF5722"/>
<path d="M2665.85 695.715C2642.71 697.656 2572.11 661.428 2572.11 661.428C2572.11 661.428 2635.68 613.894 2658.83 611.953C2664.33 611.492 2669.87 612.119 2675.12 613.797C2680.38 615.476 2685.26 618.174 2689.48 621.737C2693.69 625.3 2697.17 629.658 2699.7 634.563C2702.23 639.467 2703.77 644.823 2704.23 650.322C2704.69 655.822 2704.07 661.359 2702.39 666.617C2700.71 671.875 2698.01 676.75 2694.44 680.965C2690.88 685.18 2686.52 688.653 2681.62 691.183C2676.71 693.714 2671.35 695.254 2665.85 695.715Z" fill="#FF5722"/>
<path d="M2567.03 834.559C2544.57 840.412 2468.82 816.599 2468.82 816.599C2468.82 816.599 2523.46 759.022 2545.86 753.2C2551.2 751.814 2556.77 751.494 2562.24 752.258C2567.7 753.023 2572.97 754.856 2577.72 757.654C2582.48 760.451 2586.64 764.158 2589.97 768.564C2593.29 772.969 2595.72 777.986 2597.11 783.328C2598.49 788.67 2598.81 794.233 2598.05 799.699C2597.28 805.164 2595.45 810.426 2592.65 815.183C2589.85 819.94 2586.14 824.1 2581.74 827.424C2577.33 830.749 2572.31 833.173 2566.97 834.559H2567.03Z" fill="#FF5722"/>
<path d="M2569.03 481.951C2578.43 503.177 2644.13 547.692 2644.13 547.692C2644.13 547.692 2655.31 469.136 2645.91 447.911C2641.42 437.698 2633.05 429.688 2622.65 425.644C2612.25 421.6 2600.66 421.853 2590.45 426.346C2580.23 430.84 2572.22 439.207 2568.18 449.606C2564.13 460.005 2564.38 471.584 2568.88 481.797L2569.03 481.951Z" fill="#FF5722"/>
<path d="M2455.51 645.963C2470.92 663.4 2546.85 686.258 2546.85 686.258C2546.85 686.258 2534 607.948 2518.68 590.481C2511.33 582.107 2500.94 576.996 2489.82 576.274C2478.7 575.552 2467.74 579.277 2459.36 586.631C2450.99 593.984 2445.88 604.363 2445.15 615.484C2444.43 626.605 2448.16 637.558 2455.51 645.932V645.963Z" fill="#FF5722"/>
<path d="M2367.01 820.203C2379.34 839.98 2450.21 875.346 2450.21 875.346C2450.21 875.346 2450.98 795.989 2438.66 776.212C2432.7 766.967 2423.36 760.421 2412.64 757.978C2401.91 755.535 2390.66 757.388 2381.29 763.141C2371.91 768.895 2365.17 778.089 2362.49 788.756C2359.82 799.422 2361.43 810.711 2366.98 820.203H2367.01Z" fill="#FF5722"/>
<path d="M328.968 1766.94C328.968 1766.94 208.791 1618.05 216.341 1468.64C219.931 1406.01 203.107 1343.9 168.393 1291.63C151.714 1266.95 132.807 1243.85 111.91 1222.62" stroke="#535461" stroke-width="2" stroke-miterlimit="10"/>
<path d="M116.131 1128.45C124.759 1149.24 112.156 1225.12 112.156 1225.12C112.156 1225.12 49.5403 1180.45 40.9122 1159.66C36.7769 1149.68 36.7766 1138.46 40.9114 1128.48C45.0462 1118.5 52.9773 1110.57 62.9601 1106.44C72.9428 1102.3 84.1594 1102.3 94.1424 1106.44C104.125 1110.57 112.057 1118.5 116.192 1128.48L116.131 1128.45Z" fill="#FF5722"/>
<path d="M226.171 1217.82C222.104 1239.94 170.243 1296.71 170.243 1296.71C170.243 1296.71 141.862 1225.12 146.053 1203.06C146.959 1197.74 148.912 1192.66 151.8 1188.1C154.687 1183.54 158.452 1179.6 162.875 1176.51C167.298 1173.42 172.291 1171.24 177.565 1170.1C182.838 1168.95 188.286 1168.87 193.593 1169.84C198.9 1170.82 203.96 1172.84 208.479 1175.79C212.998 1178.74 216.886 1182.56 219.917 1187.02C222.948 1191.48 225.061 1196.5 226.135 1201.79C227.209 1207.08 227.221 1212.53 226.171 1217.82Z" fill="#FF5722"/>
<path d="M304.871 1415.65C290.173 1432.72 216.711 1455.55 216.711 1455.55C216.711 1455.55 228.42 1379.55 243.119 1362.48C250.309 1354.81 260.188 1350.22 270.689 1349.66C281.191 1349.1 291.501 1352.63 299.462 1359.5C307.423 1366.37 312.419 1376.05 313.404 1386.51C314.39 1396.98 311.288 1407.42 304.748 1415.65H304.871Z" fill="#FF5722"/>
<path d="M330.755 1578.77C319.169 1598.06 250.638 1632.99 250.638 1632.99C250.638 1632.99 249.312 1555.98 260.93 1536.82C266.559 1527.69 275.56 1521.16 285.979 1518.62C296.398 1516.09 307.396 1517.77 316.586 1523.29C325.776 1528.81 332.418 1537.74 335.07 1548.12C337.723 1558.51 336.172 1569.52 330.755 1578.77Z" fill="#FF5722"/>
<path d="M92.743 1333.49C113.666 1341.78 189.347 1328.01 189.347 1328.01C189.347 1328.01 143.741 1266.09 122.849 1257.77C112.875 1254.12 101.868 1254.5 92.17 1258.83C82.4721 1263.17 74.8498 1271.11 70.9259 1280.98C67.0021 1290.85 67.0866 1301.86 71.1615 1311.67C75.2363 1321.48 82.9797 1329.31 92.743 1333.49Z" fill="#FF5722"/>
<path d="M125.467 1523.94C147.9 1525.6 216 1489.84 216 1489.84C216 1489.84 153.94 1444.37 131.507 1442.7C126.171 1442.3 120.808 1442.95 115.724 1444.62C110.64 1446.28 105.934 1448.94 101.875 1452.42C97.8164 1455.91 94.484 1460.16 92.0683 1464.93C89.6527 1469.7 88.201 1474.91 87.7964 1480.24C87.3917 1485.57 88.0419 1490.94 89.7098 1496.02C91.3778 1501.1 94.0308 1505.81 97.5174 1509.86C101.004 1513.92 105.256 1517.25 110.03 1519.67C114.805 1522.08 120.008 1523.53 125.344 1523.94H125.467Z" fill="#FF5722"/>
<path d="M182.661 1704.55C204.478 1710.01 277.662 1686.07 277.662 1686.07C277.662 1686.07 224.168 1630.96 202.352 1625.6C191.866 1622.99 180.773 1624.65 171.512 1630.22C162.252 1635.78 155.582 1644.8 152.971 1655.28C150.36 1665.76 152.021 1676.85 157.589 1686.11C163.157 1695.37 172.176 1702.04 182.661 1704.65V1704.55Z" fill="#FF5722"/>
<path d="M2896.25 2016.84C2896.25 2016.84 2919.76 2047.64 2885.4 2093.85C2851.05 2140.06 2822.7 2179.43 2834.16 2208.39C2834.16 2208.39 2886.02 2122.13 2928.21 2120.99C2970.39 2119.85 2942.69 2068.65 2896.25 2016.84Z" fill="#FF5722"/>
<path opacity="0.1" d="M2896.25 2016.84C2898.3 2019.81 2899.92 2023.05 2901.06 2026.48C2942.23 2074.84 2964.17 2119.98 2924.6 2121.12C2887.63 2122.16 2843.5 2188.06 2832.9 2204.72C2833.25 2206.01 2833.67 2207.27 2834.16 2208.51C2834.16 2208.51 2886.02 2122.26 2928.21 2121.12C2970.39 2119.98 2942.69 2068.65 2896.25 2016.84Z" fill="black"/>
<path d="M2939.98 2055.99C2939.98 2066.84 2938.75 2075.58 2937.27 2075.58C2935.79 2075.58 2934.55 2066.84 2934.55 2055.99C2934.55 2045.15 2936.06 2050.29 2937.64 2050.29C2939.21 2050.29 2939.98 2045.18 2939.98 2055.99Z" fill="#FFD037"/>
<path d="M2954.96 2068.93C2945.46 2074.11 2937.18 2077.22 2936.47 2075.92C2935.76 2074.63 2942.88 2069.33 2952.37 2064.16C2961.86 2058.98 2958.13 2062.74 2958.84 2064.16C2959.55 2065.57 2964.48 2063.75 2954.96 2068.93Z" fill="#FFD037"/>
<path d="M2772.07 2016.84C2772.07 2016.84 2748.56 2047.64 2782.92 2093.85C2817.28 2140.06 2845.63 2179.43 2834.16 2208.39C2834.16 2208.39 2782.3 2122.13 2740.12 2120.99C2697.93 2119.85 2725.63 2068.65 2772.07 2016.84Z" fill="#FF5722"/>
<path opacity="0.1" d="M2772.07 2016.84C2770.01 2019.8 2768.39 2023.05 2767.27 2026.48C2726.07 2074.84 2704.16 2119.98 2743.72 2121.12C2780.7 2122.16 2824.83 2188.06 2835.43 2204.72C2835.06 2205.99 2834.66 2207.25 2834.16 2208.51C2834.16 2208.51 2782.3 2122.26 2740.12 2121.12C2697.93 2119.98 2725.63 2068.65 2772.07 2016.84Z" fill="black"/>
<path d="M2728.31 2055.99C2728.31 2066.84 2729.55 2075.58 2731.02 2075.58C2732.5 2075.58 2733.74 2066.84 2733.74 2055.99C2733.74 2045.15 2732.23 2050.29 2730.65 2050.29C2729.08 2050.29 2728.31 2045.18 2728.31 2055.99Z" fill="#FFD037"/>
<path d="M2713.34 2068.93C2722.86 2074.11 2731.15 2077.22 2731.83 2075.92C2732.5 2074.63 2725.42 2069.33 2715.93 2064.16C2706.44 2058.98 2710.16 2062.74 2709.46 2064.16C2708.75 2065.57 2703.85 2063.75 2713.34 2068.93Z" fill="#FFD037"/>
<path opacity="0.1" d="M2834.16 2443.63C2969.93 2443.63 3080 2426.74 3080 2405.92C3080 2385.09 2969.93 2368.21 2834.16 2368.21C2698.39 2368.21 2588.32 2385.09 2588.32 2405.92C2588.32 2426.74 2698.39 2443.63 2834.16 2443.63Z" fill="#FF5722"/>
<path d="M2960.69 2167.08L2959.52 2176.66L2957.85 2190.21L2957.17 2195.88L2955.54 2209.44L2954.8 2215.11L2953.17 2228.66L2934.34 2382.69C2932.68 2396.46 2910.18 2407.34 2883.03 2407.34H2785.29C2758.14 2407.34 2735.68 2396.62 2733.98 2382.69L2715.16 2228.66L2713.49 2215.11L2712.81 2209.44L2711.15 2195.88L2710.44 2190.21L2708.81 2176.66L2707.61 2167.08C2706.68 2159.28 2718.85 2152.72 2734.2 2152.72H2934.12C2949.47 2152.72 2961.64 2159.28 2960.69 2167.08Z" fill="#65617D"/>
<path d="M2959.51 2176.66L2957.85 2190.21H2710.44L2708.81 2176.66H2959.51Z" fill="#9D9CB5"/>
<path d="M2957.17 2195.88L2955.51 2209.44H2712.81L2711.12 2195.88H2957.17Z" fill="#9D9CB5"/>
<path d="M2954.8 2215.1L2953.17 2228.63H2715.16L2713.49 2215.1H2954.8Z" fill="#9D9CB5"/>
<path d="M2332.5 576.865H2329.91C2333.98 572.244 2336.07 567.623 2335.74 563.526L2312.32 540.113L2321.25 520.089H2291.15L2296.72 504.471H2278.88L2081.49 570.211C2081.49 570.211 2081.27 572.953 2081.49 576.865H1954.38V1149.4H2506.45V576.865H2332.5Z" fill="url(#paint0_linear)"/>
<path d="M2502.23 578.867H1958.47V1143.36H2502.23V578.867Z" fill="#F6F7F9"/>
<path opacity="0.1" d="M2330.99 578.867C2305.23 616.79 2133.16 666.727 2133.16 666.727L2134.24 627.202H2102.41C2103.28 623.396 2102.89 619.41 2101.3 615.843C2099.71 612.276 2097.01 609.322 2093.59 607.425C2084.35 602.342 2083.46 585.86 2083.58 578.867H2330.99Z" fill="black"/>
<path d="M2278.14 507.49L2083.73 572.183C2083.73 572.183 2081.52 597.444 2093.6 604.005C2097 605.91 2099.7 608.865 2101.29 612.43C2102.88 615.994 2103.27 619.977 2102.41 623.783H2134.24L2133.16 663.307C2133.16 663.307 2337.46 604.005 2334.16 565.59L2311.11 542.516L2319.9 522.739H2290.22L2295.74 507.336L2278.14 507.49Z" fill="#9D9CB5"/>
<g opacity="0.35">
<path opacity="0.2" d="M2401.71 761.856H2058.99V771.468H2401.71V761.856Z" fill="#FF5722"/>
</g>
<g opacity="0.35">
<path opacity="0.2" d="M2401.71 812.532H2058.99V822.144H2401.71V812.532Z" fill="#FF5722"/>
</g>
<g opacity="0.35">
<path opacity="0.2" d="M2401.71 863.177H2058.99V872.789H2401.71V863.177Z" fill="#FF5722"/>
</g>
<g opacity="0.35">
<path opacity="0.2" d="M2401.71 913.823H2058.99V923.434H2401.71V913.823Z" fill="#FF5722"/>
</g>
<g opacity="0.35">
<path opacity="0.2" d="M2401.71 964.468H2058.99V974.08H2401.71V964.468Z" fill="#FF5722"/>
</g>
<g opacity="0.35">
<path opacity="0.2" d="M2401.71 1015.14H2058.99V1024.76H2401.71V1015.14Z" fill="#FF5722"/>
</g>
<path d="M490.158 530.471H488.864C498.602 505.518 507.599 481.181 507.199 476.53C506.336 467.288 487.817 487.373 486.954 482.352C486.091 477.331 486.954 458.292 478.541 458.292C470.129 458.292 465.045 468.181 460.053 468.181C455.061 468.181 434.754 464.854 434.754 464.854L408.9 530.471H214.152V1141.94H697.448V530.471H490.158Z" fill="url(#paint1_linear)"/>
<path d="M691.933 533.86H219.576V1137.85H691.933V533.86Z" fill="#F6F7F9"/>
<path opacity="0.1" d="M489.389 533.86C479.435 559.706 468.219 586.939 465.661 593.439C460.7 605.761 457.434 599.2 451.641 597.567C445.848 595.934 438.483 599.2 435.186 597.567C431.888 595.934 412.537 597.567 412.537 597.567C412.753 594.542 412.753 591.505 412.537 588.479C412.106 585.214 389.857 588.479 389.857 588.479L411.058 533.86H489.389Z" fill="black"/>
<path d="M435.186 469.074L389.857 585.213C389.857 585.213 412.106 581.917 412.506 585.213C412.739 588.228 412.739 591.256 412.506 594.27C412.506 594.27 431.888 592.607 435.186 594.27C438.483 595.934 445.878 592.607 451.641 594.27C457.403 595.934 460.7 602.496 465.661 590.142C470.622 577.789 506.86 489.653 506.028 480.596C505.196 471.539 487.077 491.316 486.245 486.357C485.413 481.397 486.245 462.605 478.018 462.605C469.79 462.605 464.829 472.371 459.899 472.371C454.969 472.371 435.186 469.074 435.186 469.074Z" fill="#9D9CB5"/>
<g opacity="0.35">
<path opacity="0.2" d="M627.13 694.175H284.41V703.786H627.13V694.175Z" fill="#FF5722"/>
</g>
<g opacity="0.35">
<path opacity="0.2" d="M627.13 730.434H284.41V740.045H627.13V730.434Z" fill="#FF5722"/>
</g>
<g opacity="0.35">
<path opacity="0.2" d="M627.13 766.662H284.41V776.273H627.13V766.662Z" fill="#FF5722"/>
</g>
<g opacity="0.35">
<path opacity="0.2" d="M627.13 802.921H284.41V812.532H627.13V802.921Z" fill="#FF5722"/>
</g>
<g opacity="0.35">
<path opacity="0.2" d="M627.13 839.149H284.41V848.76H627.13V839.149Z" fill="#FF5722"/>
</g>
<g opacity="0.35">
<path opacity="0.2" d="M627.13 875.376H284.41V884.988H627.13V875.376Z" fill="#FF5722"/>
</g>
<path d="M2272.63 1434.6H2271.33C2283.29 1403.79 2294.32 1373.7 2293.8 1368.06C2292.78 1356.75 2270.04 1381.43 2269.15 1375.27C2268.25 1369.11 2269.15 1345.57 2258.82 1345.57C2248.5 1345.57 2242.31 1357.89 2236.11 1357.89C2229.92 1357.89 2205.11 1353.77 2205.11 1353.77L2173.25 1434.6H1934.59V2189.01H2526.94V1434.6H2272.63Z" fill="url(#paint2_linear)"/>
<path d="M2521.36 1439.84H1939.34V2184.11H2521.36V1439.84Z" fill="#F6F7F9"/>
<path opacity="0.1" d="M2271.49 1439.84C2259.35 1471.44 2245.73 1504.53 2242.55 1512.48C2236.39 1527.7 2232.41 1519.56 2225.3 1517.56C2218.18 1515.56 2209.06 1519.56 2204.99 1517.56C2200.92 1515.56 2177.07 1517.56 2177.07 1517.56C2177.34 1513.84 2177.34 1510.1 2177.07 1506.38C2176.55 1502.34 2149.15 1506.38 2149.15 1506.38L2175.13 1439.84H2271.49Z" fill="black"/>
<path d="M2204.99 1359.99L2149.15 1503.08C2149.15 1503.08 2176.55 1499.02 2177.07 1503.08C2177.34 1506.8 2177.34 1510.52 2177.07 1514.23C2177.07 1514.23 2200.92 1512.23 2204.99 1514.23C2209.06 1516.24 2218.18 1512.23 2225.3 1514.23C2232.41 1516.24 2236.45 1524.4 2242.55 1509.18C2248.65 1493.96 2293.3 1385.34 2292.29 1374.19C2291.27 1363.04 2268.93 1387.38 2267.91 1381.31C2266.89 1375.24 2267.91 1352.01 2257.77 1352.01C2247.64 1352.01 2241.53 1364.05 2235.43 1364.05C2229.33 1364.05 2204.99 1359.99 2204.99 1359.99Z" fill="#9D9CB5"/>
<g opacity="0.35">
<path opacity="0.2" d="M2401.71 1647.81H2058.99V1672.24H2401.71V1647.81Z" fill="#FF5722"/>
</g>
<g opacity="0.35">
<path opacity="0.2" d="M2401.71 1806.49H2058.99V1830.92H2401.71V1806.49Z" fill="#FF5722"/>
</g>
<g opacity="0.35">
<path opacity="0.2" d="M2401.71 1965.21H2058.99V1989.63H2401.71V1965.21Z" fill="#FF5722"/>
</g>
<path d="M589.29 1460.39V1369.29H461.378V1460.39H194.309V2178.11H821.601V1460.39H589.29Z" fill="url(#paint3_linear)"/>
<path d="M814.975 1464.02H200.934V2173.42H814.975V1464.02Z" fill="#F6F7F9"/>
<path opacity="0.1" d="M587.594 1464.02H462.363V1560.66H587.594V1464.02Z" fill="black"/>
<path d="M587.594 1373.97H462.363V1557.36H587.594V1373.97Z" fill="#9D9CB5"/>
<g opacity="0.35">
<path opacity="0.2" d="M679.3 1635.61H336.58V1660.04H679.3V1635.61Z" fill="#FF5722"/>
</g>
<g opacity="0.35">
<path opacity="0.2" d="M679.3 1684.19H336.58V1708.62H679.3V1684.19Z" fill="#FF5722"/>
</g>
<g opacity="0.35">
<path opacity="0.2" d="M679.3 1732.8H336.58V1757.23H679.3V1732.8Z" fill="#FF5722"/>
</g>
<g opacity="0.35">
<path opacity="0.2" d="M679.3 1781.39H336.58V1805.81H679.3V1781.39Z" fill="#FF5722"/>
</g>
<g opacity="0.35">
<path opacity="0.2" d="M679.329 1835.48H587.594V1909.6H679.329V1835.48Z" fill="#FF5722"/>
</g>
<g opacity="0.35">
<path opacity="0.2" d="M428.315 1927.16H336.58V2001.28H428.315V1927.16Z" fill="#FF5722"/>
</g>
<path d="M1470.25 1459.25H1469.39C1479.37 1420.21 1486.89 1389.13 1486.89 1389.13L1444.3 1409.15C1444.3 1409.15 1414.07 1369.11 1402.89 1375.79C1391.7 1382.48 1367.14 1399.14 1367.14 1399.14L1334.54 1382.45L1322.06 1459.25H1064.61V2013.42L1081.15 2023.31C1094.8 2018.41 1117.27 2010.09 1117.27 2010.09L1106.94 2038.74L1113.91 2042.87L1125.65 2032.24L1129.99 2052.54L1143.95 2060.89L1165.99 2046.87L1159.82 2070.47L1180.5 2082.79L1240.62 2060.21L1222.5 2107.9L1234.42 2115.05L1261.63 2110.27C1261.63 2110.27 1260.4 2119.79 1259.63 2130.11L1286.93 2146.44C1298.12 2142.09 1308.66 2137.81 1308.66 2137.81C1308.66 2137.81 1307.58 2148.23 1307.09 2158.45L1325.39 2169.42C1339.84 2160.98 1358.24 2149.49 1358.24 2149.49L1342.83 2178.14H1690.73V1459.25H1470.25Z" fill="url(#paint4_linear)"/>
<path d="M1683.88 1464.02V2173.42H1342.67L1357.9 2145.18C1357.9 2145.18 1339.87 2156.48 1325.7 2164.83L1307.76 2153.99C1308.25 2143.91 1309.33 2133.62 1309.33 2133.62C1309.33 2133.62 1298.98 2137.84 1288.01 2142.13L1261.23 2126.01C1262 2115.85 1263.17 2106.45 1263.17 2106.45L1236.52 2111.17L1224.84 2104.11L1242.59 2057.04L1183.64 2079.34L1163.33 2067.02L1169.25 2043.73L1147.68 2057.56L1134 2049.34L1129.75 2029.31L1118.22 2039.85L1111.38 2035.75L1121.52 2007.5C1121.52 2007.5 1099.49 2015.7 1086.08 2020.53L1069.87 2010.8V1464.02H1683.88Z" fill="#F6F7F9"/>
<g opacity="0.35">
<path opacity="0.2" d="M1548.21 1684.19H1205.49V1708.62H1548.21V1684.19Z" fill="#FF5722"/>
</g>
<g opacity="0.35">
<path opacity="0.2" d="M1548.21 1757.23H1205.49V1781.66H1548.21V1757.23Z" fill="#FF5722"/>
</g>
<g opacity="0.35">
<path opacity="0.2" d="M1548.21 1830.24H1205.49V1854.67H1548.21V1830.24Z" fill="#FF5722"/>
</g>
<g opacity="0.35">
<path opacity="0.2" d="M1274.14 1903.29H1205.49V1927.71H1274.14V1903.29Z" fill="#FF5722"/>
</g>
<path opacity="0.1" d="M1467.63 1464.02C1450.93 1529.88 1426.58 1621.13 1420.24 1619.53C1410.38 1616.85 1394.97 1597.97 1394.97 1597.97C1394.97 1597.97 1358.73 1632.01 1341.17 1614.45C1323.6 1596.89 1299.41 1608.93 1299.41 1608.93L1322.83 1463.99L1467.63 1464.02Z" fill="black"/>
<path d="M1334.57 1388.39L1299.41 1605.82C1299.41 1605.82 1323.57 1593.75 1341.14 1611.34C1358.7 1628.93 1394.97 1594.79 1394.97 1594.79C1394.97 1594.79 1410.38 1613.65 1420.24 1616.36C1430.1 1619.07 1483.96 1394.98 1483.96 1394.98L1442.21 1414.76C1442.21 1414.76 1412.56 1375.21 1401.56 1381.8C1390.56 1388.39 1366.53 1404.87 1366.53 1404.87L1334.57 1388.39Z" fill="#9D9CB5"/>
<path d="M1621.76 439.747V418.891H1294.76C1279.75 418.891 1288.93 439.747 1288.93 439.747H1111.26V904.735H1891.17V439.562L1621.76 439.747Z" fill="url(#paint5_linear)"/>
<path d="M1886.49 441.965H1116.19V901.562H1886.49V441.965Z" fill="#F6F7F9"/>
<path opacity="0.1" d="M1620.41 516.916H1314.76C1314.76 516.916 1311.46 481.489 1322.18 474.928C1332.91 468.366 1291.68 445.261 1291.68 445.261C1291.22 444.184 1290.82 443.084 1290.47 441.965H1620.41V452.686C1620.41 452.686 1662.44 489.745 1620.41 516.916Z" fill="black"/>
<path d="M1297.44 421.386H1620.41V449.389C1620.41 449.389 1662.44 486.357 1620.41 513.62H1314.76C1314.76 513.62 1311.46 478.193 1322.18 471.631C1332.91 465.07 1291.68 441.965 1291.68 441.965C1291.68 441.965 1282.62 421.386 1297.44 421.386Z" fill="#9D9CB5"/>
<g opacity="0.35">
<path opacity="0.2" d="M1791.92 586.107H1210.82V595.718H1791.92V586.107Z" fill="#FF5722"/>
</g>
<g opacity="0.35">
<path opacity="0.2" d="M1557.95 622.335H1210.82V631.946H1557.95V622.335Z" fill="#FF5722"/>
</g>
<g opacity="0.35">
<path opacity="0.2" d="M1791.92 658.594H1210.82V668.205H1791.92V658.594Z" fill="#FF5722"/>
</g>
<g opacity="0.35">
<path opacity="0.2" d="M1791.92 694.822H1210.82V704.433H1791.92V694.822Z" fill="#FF5722"/>
</g>
<g opacity="0.35">
<path opacity="0.2" d="M1791.92 731.05H1210.82V740.661H1791.92V731.05Z" fill="#FF5722"/>
</g>
<path d="M2030.95 2562.94C2025.43 2539.46 2022.04 2518.88 2022.04 2518.88C2022.04 2518.88 2023.31 2493.35 2011.84 2474.18V2467.81V2420.64C2015.09 2412.1 2019.07 2403.86 2023.74 2396C2032.24 2381.15 2023.74 2326.81 2023.74 2326.81C2023.74 2326.81 1992.24 2250.19 1999.92 2201.61C2007.59 2153.03 1935.21 1985.82 1935.21 1985.82C1935.65 1969.68 1937.94 1953.65 1942.02 1938.03C1942.77 1934.75 1943.08 1931.39 1942.94 1928.02C1942.94 1927.62 1942.94 1927.22 1942.94 1926.79V1927.19C1941.86 1895.15 1916.53 1835.08 1916.53 1835.08L1919.92 1720.57C1919.92 1720.57 1936.1 1653.05 1909.72 1562.45C1900.48 1530.81 1894.59 1505.52 1890.86 1485.99C1890.43 1483.77 1890.03 1481.64 1889.66 1479.61C1943.99 1471.32 1985.46 1464.42 1985.46 1464.42C1985.46 1464.42 1953.94 1332.57 1932.68 1309.53C1911.42 1286.48 1894.38 1214.03 1894.38 1214.03C1894.38 1214.03 1883.28 1120.96 1901.19 1093.88C1919.09 1066.81 1921.59 1019.73 1921.59 1019.73C1921.59 1019.73 1962.45 990.099 1967.56 976.914C1972.68 963.729 1981.18 934.093 1981.18 918.382C1981.18 902.671 1976.07 888.716 1977.79 880.491C1979.52 872.265 1965.87 840.966 1972.68 826.118C1974.45 821.559 1975.37 816.714 1975.39 811.824C1975.41 811.68 1975.41 811.536 1975.39 811.392C1975.39 811.392 1975.39 811.392 1975.39 811.238C1975.43 798.265 1974.23 785.318 1971.78 772.577C1971.78 772.577 1953.29 756.28 1931.39 751.012L1930.49 747.47L1928.18 738.228C1926.88 737.355 1925.53 736.552 1924.14 735.825V732.467L1923.77 719.097L1930.18 689C1942.73 636.629 1872.93 628.897 1872.93 628.897C1868.75 620.83 1861.7 614.612 1853.18 611.46C1839.13 606.501 1850.84 690.139 1857.4 695.469C1862.36 699.504 1877.61 725.72 1884.95 738.597L1886.15 740.723C1885.04 741.759 1884.01 742.882 1883.07 744.081L1885.72 762.226L1886.12 764.998C1881.5 770.756 1877.75 777.16 1874.99 784.006C1874.99 784.006 1887.78 797.992 1885.23 813.641C1882.67 829.291 1889.14 848.791 1889.45 849.869C1888.68 849.007 1879.71 839.272 1870.74 841.644C1861.78 844.016 1836.85 851.533 1836.85 851.533C1836.85 851.533 1818.11 854.829 1819.84 858.957C1821.56 863.085 1807.05 881.199 1807.05 881.199L1756.73 833.511C1756.24 832.094 1755.74 830.677 1755.28 829.198C1753.18 822.385 1751.72 815.394 1750.9 808.312C1756.38 807.004 1761.76 805.295 1766.99 803.198C1772.28 801.394 1777.06 798.34 1780.92 794.295C1785.97 788.134 1787.08 780.093 1789.02 772.731C1793 758.067 1801.56 745.005 1807.7 731.112C1818.05 707.642 1821.54 681.715 1817.74 656.345C1816.95 648.541 1814.3 641.041 1810.01 634.473C1801.81 623.167 1786.9 618.577 1776.11 609.55C1765.33 600.524 1758.3 586.785 1745.67 580.007C1734.26 573.846 1720.34 574.616 1707.49 576.711C1682.3 580.856 1658.11 589.652 1636.15 602.65C1628.82 606.994 1620.74 611.892 1612.3 610.475C1605.09 609.181 1599.79 603.389 1595.14 597.875C1595.19 597.635 1595.27 597.398 1595.35 597.166L1594.8 596.519C1589.47 608.345 1586.8 621.195 1586.97 634.165C1586.97 636.167 1586.97 638.169 1587.22 640.326C1587.22 641.034 1587.22 641.743 1587.22 642.451C1587.26 643.026 1587.26 643.602 1587.22 644.177C1587.22 645.073 1587.09 645.964 1586.85 646.826C1585.78 649.404 1584.17 651.725 1582.13 653.634C1580.6 655.361 1579.22 657.228 1578.03 659.21C1578.25 658.532 1578.47 657.855 1578.71 657.177C1575.5 661.85 1573.69 667.345 1573.5 673.011C1573.23 677.15 1574.59 681.232 1577.29 684.379C1579.8 686.841 1582.55 689.049 1585.49 690.971C1582.02 710.297 1584.56 730.221 1592.77 748.057C1600.98 765.894 1614.47 780.785 1631.41 790.721C1631.99 792.138 1632.55 793.586 1633.13 795.034C1639.54 811.978 1644.38 831.694 1642.38 849.9C1642.19 851.256 1642.01 852.58 1641.76 853.905C1641.11 854.583 1640.5 855.291 1639.94 856C1639.94 856 1556.74 856.801 1537.3 839.087C1517.85 821.374 1487.99 882.216 1487.99 882.216C1487.99 882.216 1458.2 888.007 1452.25 882.216C1446.3 876.424 1411.39 881.415 1411.39 881.415C1411.39 881.415 1390.1 860.805 1359.47 862.469C1347.83 853.63 1335 846.493 1321.35 841.274L1320.39 840.935C1314.4 838.771 1308 837.961 1301.66 838.563C1301.66 838.563 1260.8 804.677 1248.9 786.686C1237.01 768.695 1180.22 701.353 1179.97 701.045L1179.76 697.964L1179.11 688.168C1177.43 688.433 1175.73 688.577 1174.02 688.599L1172.88 685.21C1169.62 675.653 1165.58 666.38 1160.81 657.485C1160.81 657.485 1160.81 645.162 1164.41 642.082C1168.02 639.001 1162.93 593.685 1162.93 593.685C1162.93 593.685 1126.11 507.613 1093.14 571.875C1093.14 571.875 1030.8 613.432 1083.12 661.828C1083.12 661.828 1103.98 671.964 1106.94 679.973C1108.88 685.18 1115.97 699.689 1120.75 709.362C1121.55 710.964 1122.26 712.443 1122.87 713.675L1122.29 714.168L1123.06 722.239L1123.37 725.32C1113.51 730.927 1106.82 736.441 1108.45 740.723C1111.36 747.857 1113.36 755.33 1114.4 762.965C1114.4 762.965 1186.75 853.566 1196.12 892.351C1196.12 892.351 1390.25 1007.66 1454.04 1015.91L1442.97 1073.55C1442.97 1073.55 1439.55 1108.15 1440.42 1120.5C1441.28 1132.85 1432.74 1188.89 1432.74 1188.89C1432.74 1188.89 1421.68 1271.24 1412.31 1282.76C1402.95 1294.28 1404.67 1343.72 1404.67 1343.72C1402.42 1367.39 1398.14 1390.81 1391.88 1413.74C1382.64 1445.04 1389.36 1483.74 1389.36 1483.74C1389.36 1483.74 1357 1557.89 1434.47 1507.64C1434.47 1507.64 1472.49 1505.27 1516.28 1503.79C1516.28 1505.21 1516.28 1506.66 1516.28 1508.13C1516.28 1513.77 1516.1 1519.87 1516.04 1526.31C1515.45 1568.76 1515.2 1627.26 1517.11 1671.53C1520.5 1749.78 1544.35 1904.64 1544.35 1904.64V1982.43C1542.82 1989.74 1542.06 1997.2 1542.1 2004.67C1541.58 2032.09 1548.86 2059.1 1563.09 2082.55L1568.36 2133.9C1568.36 2133.9 1582.35 2168.09 1582.63 2188.52C1582.56 2190.19 1582.35 2191.85 1582.01 2193.48C1581.49 2196.1 1581.26 2198.76 1581.33 2201.43C1580.53 2224.99 1594.74 2281.34 1594.74 2281.34C1594.74 2281.34 1595.6 2338.18 1603.98 2341.47C1611.25 2344.28 1594.27 2374.22 1589.19 2382.81C1589.19 2382.26 1588.97 2381.74 1588.88 2381.18C1588.23 2382.29 1587.83 2382.91 1587.83 2382.91C1586.08 2387.49 1585.19 2392.36 1585.18 2397.26C1584.7 2401.15 1585.33 2405.09 1587 2408.62C1588.67 2412.16 1591.31 2415.16 1594.61 2417.26C1610.79 2427.14 1619.48 2435.37 1605.77 2438.82C1600.72 2439.59 1595.71 2440.62 1590.76 2441.9C1590.51 2441.25 1590.27 2440.61 1590.05 2439.99C1588.14 2440.78 1586.54 2442.19 1585.53 2444C1584.51 2445.8 1584.13 2447.89 1584.44 2449.94C1584.07 2454.1 1585.46 2460.17 1589.53 2469.23C1603.15 2499.69 1612.58 2511.24 1612.58 2511.24L1619.11 2510.51C1618.11 2512.98 1616.84 2515.34 1615.32 2517.53C1612.83 2521.1 1609.53 2524.03 1605.68 2526.06C1602.13 2528.2 1598.17 2529.56 1594.06 2530.04C1589.44 2530.19 1584.9 2531.32 1580.74 2533.34C1576.59 2535.36 1572.9 2538.23 1569.93 2541.77C1561.46 2552.74 1556.13 2567.71 1573.01 2580.84L1633.9 2601.85C1633.9 2601.85 1738.67 2615.43 1733.03 2591.96C1727.39 2568.48 1724.13 2547.9 1724.13 2547.9C1724.13 2547.9 1725.3 2524.98 1715.62 2506.25C1714.54 2504.11 1713.3 2502.05 1711.92 2500.09L1715.62 2499.66C1715.62 2499.66 1723.26 2447.78 1733.49 2438.05C1735.84 2435.77 1736.36 2434.01 1735.81 2432.69C1736.88 2429.85 1734.2 2428.19 1730.78 2427.27L1730.04 2429.3C1726.7 2428.57 1723.29 2428.19 1719.87 2428.16C1719.87 2428.16 1716.45 2400.99 1727.52 2391.19C1728.42 2390.07 1729.07 2388.77 1729.45 2387.38C1729.82 2386 1729.89 2384.54 1729.67 2383.12C1729.77 2379.4 1729.38 2375.69 1728.53 2372.06C1728.53 2372.25 1728.29 2372.49 1728.13 2372.68C1722.55 2348.03 1703.7 2308.82 1703.7 2308.82C1703.7 2308.82 1702.83 2284.17 1709.64 2274.25C1716.45 2264.33 1708.81 2139.97 1708.81 2139.97C1708.81 2139.97 1711.37 2079.87 1703.7 2051.86C1696.02 2023.86 1712.94 1990.9 1712.94 1990.9C1712.94 1990.9 1712.94 1990.25 1712.76 1989.11L1712.97 1988.68C1712.97 1988.68 1712.6 1984.98 1711.99 1979.22C1711.9 1979.4 1711.83 1979.59 1711.77 1979.78C1710.08 1963.88 1706.81 1935.05 1704.44 1921.71C1701.02 1902.76 1705.27 1812.16 1705.27 1812.16L1720.68 1773.47L1747.92 1840.16L1776.88 1929.13C1776.88 1929.13 1791.21 1947.92 1791.55 1966.96C1791.55 1967.89 1791.55 1968.81 1791.36 1969.73C1791.13 1971.71 1791.02 1973.69 1791.02 1975.68C1790.52 1986.91 1793.6 1998.02 1799.84 2007.38C1799.84 2007.38 1807.51 2049.37 1819.44 2060.09C1831.36 2070.81 1831.33 2091.39 1831.33 2091.39C1831.33 2091.39 1845.81 2152.32 1852.62 2163.04C1858.35 2172.07 1858.79 2196.93 1858.6 2204.48C1858.6 2205.89 1858.6 2206.7 1858.6 2206.7C1858.6 2206.7 1860.6 2228.48 1860.54 2246.74C1860.54 2248.99 1860.54 2251.18 1860.33 2253.24V2252.78C1860.31 2257.77 1859.72 2262.74 1858.57 2267.6C1858.47 2267.87 1858.39 2268.15 1858.32 2268.43C1858.32 2267.41 1858.32 2266.37 1858.57 2265.35C1855.6 2277.79 1854.18 2290.55 1854.32 2303.33C1853.92 2325.24 1857.4 2351.21 1870.53 2366.42C1893.51 2392.8 1908 2389.5 1908 2389.5C1908 2389.5 1896.9 2422.43 1883.35 2429.02C1882.83 2429.28 1882.35 2429.59 1881.9 2429.95C1881.9 2429.3 1881.65 2428.68 1881.56 2428.04C1878.72 2430.5 1877.58 2434.94 1877.58 2440.36C1876.6 2454.84 1885.72 2478.37 1894.44 2489.19C1897.66 2492.34 1901.61 2494.65 1905.93 2495.9C1905.24 2496.38 1904.52 2496.82 1903.78 2497.23C1902.26 2498.06 1900.7 2498.79 1899.09 2499.42C1896.89 2500.39 1894.55 2501 1892.16 2501.23C1887.54 2501.34 1882.99 2502.43 1878.82 2504.42C1874.65 2506.42 1870.95 2509.28 1867.97 2512.82C1859.49 2523.75 1854.16 2538.72 1871.05 2551.85L1931.94 2572.86C1931.94 2572.86 2036.52 2586.41 2030.95 2562.94Z" fill="url(#paint6_linear)"/>
<path d="M1631.1 2601.85L1572.18 2580.84C1555.91 2567.71 1561.09 2552.74 1569.32 2541.77C1572.14 2538.26 1575.68 2535.4 1579.7 2533.37C1583.73 2531.35 1588.14 2530.21 1592.64 2530.04C1596.64 2529.55 1600.48 2528.19 1603.89 2526.06C1607.61 2523.99 1610.78 2521.07 1613.14 2517.53C1617.45 2510.71 1619.77 2502.83 1619.85 2494.76C1619.85 2494.76 1684.56 2475.82 1702.25 2494.76C1705.41 2498.19 1708.05 2502.06 1710.08 2506.25C1719.32 2524.98 1718.34 2547.9 1718.34 2547.9C1718.34 2547.9 1721.63 2568.45 1726.96 2591.96C1732.3 2615.46 1631.1 2601.85 1631.1 2601.85Z" fill="#2D293D"/>
<path d="M1919.43 2572.83L1860.51 2551.82C1844.27 2538.69 1849.45 2523.72 1857.65 2512.78C1860.46 2509.27 1864 2506.39 1868.03 2504.37C1872.05 2502.34 1876.47 2501.21 1880.97 2501.05C1883.31 2500.82 1885.59 2500.21 1887.72 2499.23C1889.28 2498.6 1890.79 2497.87 1892.25 2497.04C1908.74 2487.99 1908.31 2465.74 1908.31 2465.74C1908.31 2465.74 1973.02 2446.8 1990.7 2465.74C1993.07 2468.3 1995.14 2471.13 1996.87 2474.15C2007.96 2493.32 2006.73 2518.88 2006.73 2518.88C2006.73 2518.88 2010.03 2539.46 2015.39 2562.94C2020.75 2586.41 1919.43 2572.83 1919.43 2572.83Z" fill="#2D293D"/>
<path opacity="0.1" d="M1702.34 2494.76C1705.5 2498.19 1708.14 2502.06 1710.17 2506.25L1613.23 2517.5C1617.54 2510.68 1619.86 2502.8 1619.94 2494.73C1619.94 2494.73 1684.65 2475.85 1702.34 2494.76Z" fill="black"/>
<path opacity="0.1" d="M1996.9 2474.15V2492.3C1981.83 2517.13 1908.89 2511.71 1887.72 2499.23C1889.28 2498.6 1890.79 2497.87 1892.25 2497.04C1908.74 2487.99 1908.31 2465.74 1908.31 2465.74C1908.31 2465.74 1973.02 2446.8 1990.7 2465.74C1993.08 2468.3 1995.16 2471.12 1996.9 2474.15Z" fill="black"/>
<path d="M2008.42 2395.94C2003.9 2403.82 2000.05 2412.06 1996.9 2420.58V2485.71C1980.41 2512.88 1894.72 2503.82 1883.19 2489C1871.67 2474.19 1859.31 2435.46 1872.47 2428.87C1885.63 2422.28 1896.32 2389.34 1896.32 2389.34C1896.32 2389.34 1882.3 2392.64 1860.05 2366.27C1837.8 2339.9 1844.4 2281.43 1848.56 2267.44C1852.72 2253.46 1848.56 2206.48 1848.56 2206.48C1848.56 2206.48 1849.39 2173.55 1842.8 2162.83C1836.2 2152.11 1822.37 2091.17 1822.37 2091.17C1822.37 2091.17 1822.37 2070.59 1810.81 2059.87C1799.25 2049.15 1791.86 2007.16 1791.86 2007.16C1785.12 1996.67 1782.21 1984.16 1783.63 1971.77C1786.1 1951.16 1769.61 1928.92 1769.61 1928.92L1741.6 1839.98L1715.25 1773.25L1700.43 1811.98C1700.43 1811.98 1696.3 1902.58 1699.6 1921.52C1702.9 1940.47 1707.83 1990.71 1707.83 1990.71C1707.83 1990.71 1691.37 2023.65 1698.77 2051.65C1706.16 2079.65 1703.73 2139.78 1703.73 2139.78C1703.73 2139.78 1711.12 2264.15 1704.53 2274.04C1697.94 2283.93 1698.77 2308.63 1698.77 2308.63C1698.77 2308.63 1732.66 2381.09 1721.85 2390.98C1711.03 2400.87 1714.42 2427.95 1714.42 2427.95C1714.42 2427.95 1737.5 2427.94 1727.61 2437.83C1717.72 2447.72 1710.29 2499.45 1710.29 2499.45L1610.7 2511C1610.7 2511 1601.46 2499.45 1588.39 2468.98C1575.32 2438.51 1590.86 2441.81 1604.11 2438.51C1617.36 2435.22 1608.97 2426.99 1593.32 2416.95C1577.67 2406.9 1586.73 2384.82 1586.73 2384.82C1586.73 2384.82 1610.61 2344.46 1602.38 2341.16C1594.15 2337.87 1593.32 2281.03 1593.32 2281.03C1593.32 2281.03 1576.83 2213.5 1580.99 2195.39C1585.15 2177.28 1567.65 2133.9 1567.65 2133.9L1561.89 2081.99C1532.22 2030.95 1543.77 1984 1543.77 1984V1904.21C1543.77 1904.21 1520.69 1749.38 1517.39 1671.13C1515.3 1621.01 1515.88 1552.62 1516.56 1509.95C1516.96 1486.02 1517.39 1470.15 1517.39 1470.15L1873.3 1433.18C1873.3 1433.18 1872.93 1449.6 1879.77 1486.05C1883.38 1505.58 1889.02 1530.87 1898.02 1562.51C1923.56 1653.11 1907.91 1720.64 1907.91 1720.64L1904.61 1835.08C1904.61 1835.08 1935.92 1911.7 1929.26 1938.03C1925.31 1953.67 1923.1 1969.69 1922.67 1985.82C1922.67 1985.82 1992.77 2152.97 1985.34 2201.67C1977.92 2250.38 2008.42 2326.87 2008.42 2326.87C2008.42 2326.87 2016.65 2381.09 2008.42 2395.94Z" fill="#575988"/>
<path opacity="0.05" d="M1804.92 1966.81L1913.27 1952.39C1913.27 1952.39 1851.88 2014.99 1804.92 1966.81Z" fill="black"/>
<path opacity="0.1" d="M1897.61 1846.57C1897.61 1846.57 1901.31 1884.86 1877.83 1899.28C1877.83 1899.28 1919.86 1892.69 1897.61 1846.57Z" fill="black"/>
<path opacity="0.1" d="M1890.96 1724.67C1890.96 1724.67 1800.39 1799.19 1767.45 1793.03C1734.51 1786.87 1890.96 1724.67 1890.96 1724.67Z" fill="black"/>
<path opacity="0.1" d="M1670.63 2001.83C1670.63 2001.83 1601.86 2017.45 1599.76 2044.96C1597.67 2072.47 1670.63 2001.83 1670.63 2001.83Z" fill="black"/>
<path opacity="0.05" d="M1685.76 2345.26C1685.76 2345.26 1588.54 2363.41 1616.15 2375.76C1643.76 2388.11 1689.06 2397.97 1689.06 2397.97C1689.06 2397.97 1720.37 2399.63 1685.76 2345.26Z" fill="black"/>
<g opacity="0.05">
<path opacity="0.05" d="M1596.52 2395.35C1594.08 2393.83 1592 2391.77 1590.46 2389.33C1588.92 2386.89 1587.95 2384.14 1587.62 2381.27L1586.63 2383C1586.63 2383 1577.57 2405.24 1593.23 2415.13L1598.31 2418.46C1601.18 2417.93 1604.29 2417.53 1607.31 2416.76C1620.56 2413.47 1612.18 2405.24 1596.52 2395.35Z" fill="black"/>
<path opacity="0.05" d="M1721.75 2388.76C1724.4 2386.29 1724.31 2379.98 1722.68 2371.85C1718.3 2378.22 1717.25 2388.14 1717.16 2395.69C1718.18 2393.08 1719.75 2390.72 1721.75 2388.76Z" fill="black"/>
<path opacity="0.05" d="M1706.78 1979.01C1703.18 1988.74 1700.97 1998.94 1700.21 2009.29C1702.07 2002.14 1704.59 1995.18 1707.73 1988.5C1707.73 1988.5 1707.36 1984.77 1706.78 1979.01Z" fill="black"/>
<path opacity="0.05" d="M1929.35 1935.76C1930.03 1932.81 1930.33 1929.78 1930.25 1926.76C1929.05 1932.92 1928.18 1938.62 1927.57 1943.61C1928.09 1941.05 1928.68 1938.44 1929.35 1935.76Z" fill="black"/>
<path opacity="0.05" d="M1704.44 2271.82C1705.79 2269.79 1706.53 2263.01 1706.9 2253.52C1703.82 2259.53 1702.56 2269.23 1702.16 2276.63C1702.72 2274.94 1703.49 2273.33 1704.44 2271.82Z" fill="black"/>
<path opacity="0.05" d="M1724.87 2427.14C1718.09 2445.63 1713.5 2477.73 1713.5 2477.73L1613.87 2489.25C1613.87 2489.25 1604.63 2477.73 1591.56 2447.26C1590.42 2444.58 1589.5 2442.18 1588.76 2439.99C1582.78 2442.73 1580.44 2448.92 1588.27 2467.01C1601.45 2497.47 1610.58 2509.03 1610.58 2509.03L1710.2 2497.41C1710.2 2497.41 1717.62 2445.54 1727.52 2435.8C1732.38 2430.87 1729.27 2428.38 1724.87 2427.14Z" fill="black"/>
<path opacity="0.05" d="M1593.23 2279.21C1593.23 2279.21 1594.06 2336.05 1602.29 2339.35C1606.45 2329.95 1609.22 2320.86 1605.37 2319.54C1597.14 2316.27 1596.31 2259.44 1596.31 2259.44C1596.31 2259.44 1579.82 2191.88 1583.98 2173.76C1588.14 2155.65 1570.79 2112 1570.79 2112L1565.03 2060.12C1535.36 2009.04 1546.91 1962.09 1546.91 1962.09V1882.24C1546.91 1882.24 1523.83 1727.38 1520.54 1649.13C1518.44 1599.04 1519.03 1530.65 1519.7 1487.99C1519.7 1480.26 1519.98 1473.42 1520.1 1467.66L1517.24 1467.93C1517.24 1467.93 1516.81 1483.8 1516.41 1507.73C1515.73 1550.4 1515.14 1618.64 1517.24 1668.91C1520.54 1747.16 1543.62 1901.99 1543.62 1901.99V1981.9C1543.62 1981.9 1532.06 2028.85 1561.74 2079.9L1567.5 2131.81C1567.5 2131.81 1584.78 2175.46 1580.69 2193.42C1576.59 2211.38 1593.23 2279.21 1593.23 2279.21Z" fill="black"/>
<path opacity="0.05" d="M1886.52 2467.01C1878.42 2455.3 1873.04 2441.93 1870.74 2427.88C1860.57 2437.13 1872.25 2472.71 1883.07 2486.78C1894.59 2501.6 1980.29 2510.66 1996.78 2483.49V2467.81C1974.65 2489.9 1897.43 2481.02 1886.52 2467.01Z" fill="black"/>
<path opacity="0.05" d="M2011.75 2373.94C2007.21 2381.82 2003.35 2390.06 2000.19 2398.59V2410.14C2002.07 2405.92 2004.75 2400.28 2008.45 2393.66C2010.82 2389.38 2011.81 2381.83 2012.06 2373.23C2011.93 2373.51 2011.84 2373.76 2011.75 2373.94Z" fill="black"/>
<path opacity="0.05" d="M1891.58 2386.91C1894.73 2380.58 1897.44 2374.05 1899.71 2367.35C1899.71 2367.35 1885.69 2370.65 1863.44 2344.31C1847.26 2325.11 1846.34 2288.86 1848.65 2265.23C1844.49 2279.24 1837.93 2337.71 1860.14 2364.05C1874.75 2381.3 1885.69 2385.83 1891.58 2386.91Z" fill="black"/>
<path opacity="0.05" d="M1848.62 2204.26C1850.07 2220.49 1850.61 2236.8 1850.25 2253.09C1850.67 2250.51 1851.24 2247.96 1851.95 2245.45C1856.11 2231.46 1851.95 2184.51 1851.95 2184.51C1851.95 2184.51 1852.78 2151.55 1846.18 2140.86C1839.59 2130.17 1825.45 2069.21 1825.45 2069.21C1825.45 2069.21 1825.45 2048.6 1813.92 2037.91C1802.4 2027.22 1794.97 1985.2 1794.97 1985.2C1788.23 1974.69 1785.32 1962.18 1786.74 1949.77C1789.21 1929.19 1772.72 1906.95 1772.72 1906.95L1744.71 1817.98L1718.37 1751.29L1703.51 1789.98C1703.51 1789.98 1703.3 1794.85 1703.02 1802.49L1715.07 1771.03L1741.41 1837.76L1769.42 1926.7C1769.42 1926.7 1785.91 1948.94 1783.45 1969.55C1782.02 1981.94 1784.93 1994.45 1791.67 2004.95C1791.67 2004.95 1799.1 2046.97 1810.62 2057.65C1822.15 2068.34 1822.36 2088.95 1822.36 2088.95C1822.36 2088.95 1836.38 2149.92 1842.98 2160.61C1849.57 2171.3 1848.62 2204.26 1848.62 2204.26Z" fill="black"/>
</g>
<path d="M1917.89 689.092L1911.73 719.159L1912.1 732.529L1912.34 742.417L1877.83 745.806L1873.98 738.69C1866.86 725.813 1852.1 699.597 1847.29 695.561C1840.95 690.201 1829.61 606.593 1843.23 611.553C1851.53 614.763 1858.34 620.93 1862.36 628.866C1862.36 628.866 1929.97 636.722 1917.89 689.092Z" fill="#FFCDD3"/>
<path opacity="0.1" d="M1912.22 742.263L1877.83 745.806L1873.98 738.69C1878.91 733.607 1892.99 722.054 1911.94 732.529L1912.22 742.263Z" fill="black"/>
<path d="M1920.97 758.529L1875.58 769.188L1874.63 762.41L1872.07 744.266C1872.07 744.266 1889.97 720.36 1915.95 738.258L1918.2 747.5L1920.97 758.529Z" fill="#DCE6F2"/>
<path d="M1186.6 692.173L1138.28 718.173C1138.28 718.173 1136.43 714.353 1133.91 708.931C1129.28 699.289 1122.44 684.748 1120.56 679.542C1117.7 671.532 1097.48 661.428 1097.48 661.428C1046.86 613.032 1107.19 571.443 1107.19 571.443C1139.11 507.212 1174.74 593.254 1174.74 593.254C1174.74 593.254 1179.67 638.601 1176.18 641.65C1172.7 644.7 1172.7 657.054 1172.7 657.054C1177.32 665.968 1181.22 675.24 1184.35 684.779C1185.8 689.4 1186.6 692.173 1186.6 692.173Z" fill="#FFCDD3"/>
<path opacity="0.1" d="M1186.6 692.172L1138.28 718.173C1138.28 718.173 1136.43 714.353 1133.91 708.931C1140.72 703.232 1164.94 683.608 1172.89 684.502C1176.69 684.973 1180.53 685.066 1184.35 684.779C1185.8 689.4 1186.6 692.172 1186.6 692.172Z" fill="black"/>
<path d="M1191.56 706.836L1137.17 733.638L1136.09 721.931L1135.2 713.737C1135.2 713.737 1166.69 686.751 1176 687.798C1180.71 688.492 1185.49 688.492 1190.2 687.798L1190.82 697.594L1191.56 706.836Z" fill="#DCE6F2"/>
<path d="M1785.97 888.685C1785.97 888.685 1548.89 915.425 1593.2 901.008C1624.01 890.965 1636.34 871.341 1638.87 849.592C1640.96 831.386 1636.28 811.7 1630.05 794.757C1624.45 779.803 1617.35 765.456 1608.85 751.937C1608.85 751.937 1790.1 652.248 1753.68 742.695C1748.09 756.404 1744.63 770.885 1743.42 785.638C1742.31 800.29 1743.89 815.021 1748.07 829.106C1754.94 852.095 1768.06 872.722 1785.97 888.685Z" fill="#FFCDD3"/>
<path opacity="0.1" d="M1753.83 742.88C1748.25 756.589 1744.79 771.07 1743.57 785.823C1726.5 800.148 1707.76 799.224 1683.73 799.224C1665.24 799.224 1644.81 803.691 1630.05 794.788C1624.45 779.834 1617.35 765.487 1608.85 751.968C1608.85 751.968 1790.1 652.279 1753.83 742.88Z" fill="black"/>
<path d="M1680.52 805.508C1734.68 805.508 1778.58 761.621 1778.58 707.483C1778.58 653.345 1734.68 609.458 1680.52 609.458C1626.37 609.458 1582.47 653.345 1582.47 707.483C1582.47 761.621 1626.37 805.508 1680.52 805.508Z" fill="#FFCDD3"/>
<path opacity="0.1" d="M1785.97 888.685C1785.97 888.685 1548.89 915.425 1593.2 901.008C1624.01 890.965 1636.34 871.341 1638.87 849.592C1650.67 836.838 1674.39 827.596 1689.62 822.698C1703.58 818 1718.65 817.752 1732.76 821.99C1738.29 823.639 1743.55 826.088 1748.38 829.26C1755.18 852.158 1768.2 872.726 1785.97 888.685Z" fill="black"/>
<path opacity="0.1" d="M1920.97 758.529L1875.58 769.188L1874.63 762.41C1887.41 746.083 1903.53 744.112 1918.2 747.531L1920.97 758.529Z" fill="black"/>
<path opacity="0.1" d="M1191.56 706.836L1137.17 733.638L1136.09 721.931C1155.54 710.471 1188.11 698.673 1190.94 697.656L1191.56 706.836Z" fill="black"/>
<path opacity="0.1" d="M1879.77 1485.95C1787.94 1500.43 1657.26 1519.32 1636.52 1513C1619.33 1507.77 1564.38 1508.32 1516.56 1509.92C1516.96 1485.99 1517.39 1470.12 1517.39 1470.12L1873.3 1433.15C1873.3 1433.15 1872.93 1449.51 1879.77 1485.95Z" fill="black"/>
<path d="M1971.35 1464.39C1971.35 1464.39 1669 1516.3 1636.52 1506.41C1604.04 1496.52 1437.49 1507.24 1437.49 1507.24C1362.52 1557.46 1393.83 1483.34 1393.83 1483.34C1393.83 1483.34 1387.23 1444.64 1396.29 1413.34C1402.33 1390.39 1406.46 1366.96 1408.62 1343.32C1408.62 1343.32 1406.98 1294.03 1416.04 1282.39C1425.1 1270.74 1435.8 1188.49 1435.8 1188.49C1435.8 1188.49 1444.05 1132.48 1443.22 1120.13C1442.39 1107.78 1445.69 1073.18 1445.69 1073.18L1456.44 1015.64C1394.81 1007.41 1206.84 892.104 1206.84 892.104C1197.78 853.381 1127.74 762.718 1127.74 762.718C1126.72 755.1 1124.79 747.632 1121.98 740.476C1117.02 727.291 1191.19 700.952 1191.19 700.952C1191.19 700.952 1246.38 768.479 1257.9 786.593C1269.43 804.707 1308.99 838.502 1308.99 838.502C1315.14 837.87 1321.34 838.683 1327.11 840.874C1327.45 840.874 1327.73 841.058 1328.07 841.151C1328.41 841.243 1328.07 841.151 1328.07 841.151C1346.56 847.589 1365.05 862.315 1365.05 862.315C1394.72 860.682 1415.3 881.261 1415.3 881.261C1415.3 881.261 1449.2 876.331 1454.84 882.092C1460.48 887.853 1489.44 882.092 1489.44 882.092C1489.44 882.092 1518.29 821.127 1537.24 838.964C1556.19 856.8 1636.58 855.845 1636.58 855.845C1647.31 841.613 1673.38 831.416 1689.68 826.148C1703.64 821.45 1718.71 821.202 1732.82 825.44C1738.9 827.171 1744.63 829.944 1749.77 833.634L1798.55 881.384C1798.55 881.384 1812.57 863.27 1810.87 859.142C1809.18 855.014 1827.36 851.748 1827.36 851.748C1827.36 851.748 1851.24 844.324 1860.3 841.859C1869.36 839.395 1877.68 849.191 1878.42 850.054C1878.11 849.006 1871.91 829.075 1874.32 813.857C1876.72 798.638 1864.43 784.19 1864.43 784.19C1893.27 713.336 1958.35 772.669 1958.35 772.669C1958.35 772.669 1965.78 811.392 1959.18 826.21C1952.59 841.028 1965.78 872.419 1964.11 880.552C1962.45 888.685 1967.41 902.794 1967.41 918.444C1967.41 934.093 1959.18 963.759 1954.22 976.975C1949.26 990.191 1909.57 1019.64 1909.57 1019.64C1909.57 1019.64 1907.07 1066.59 1889.79 1093.76C1872.5 1120.93 1883.19 1213.91 1883.19 1213.91C1883.19 1213.91 1899.68 1286.39 1920.17 1309.4C1940.66 1332.42 1971.35 1464.39 1971.35 1464.39Z" fill="#656691"/>
<path opacity="0.1" d="M1530.58 922.448C1530.58 922.448 1521.52 895.277 1513.29 892.782C1505.09 889.767 1497.1 886.195 1489.38 882.092L1494.68 871.957C1494.68 871.957 1525.65 880.429 1530.58 889.486C1535.51 898.543 1530.58 922.448 1530.58 922.448Z" fill="black"/>
<path opacity="0.1" d="M1364.98 862.315C1363.35 870.571 1290.01 877.964 1290.01 877.964L1326.99 840.812L1327.91 841.12C1346.65 847.589 1364.98 862.315 1364.98 862.315Z" fill="black"/>
<path d="M1152.83 755.849C1156.47 755.849 1159.42 752.897 1159.42 749.256C1159.42 745.615 1156.47 742.664 1152.83 742.664C1149.18 742.664 1146.23 745.615 1146.23 749.256C1146.23 752.897 1149.18 755.849 1152.83 755.849Z" fill="#575988"/>
<path d="M1161.27 769.034C1164.91 769.034 1167.86 766.082 1167.86 762.441C1167.86 758.8 1164.91 755.849 1161.27 755.849C1157.63 755.849 1154.67 758.8 1154.67 762.441C1154.67 766.082 1157.63 769.034 1161.27 769.034Z" fill="#575988"/>
<path d="M1169.53 781.202C1173.17 781.202 1176.12 778.251 1176.12 774.61C1176.12 770.969 1173.17 768.017 1169.53 768.017C1165.89 768.017 1162.93 770.969 1162.93 774.61C1162.93 778.251 1165.89 781.202 1169.53 781.202Z" fill="#575988"/>
<path d="M1178.15 794.357C1181.8 794.357 1184.75 791.405 1184.75 787.764C1184.75 784.123 1181.8 781.172 1178.15 781.172C1174.51 781.172 1171.56 784.123 1171.56 787.764C1171.56 791.405 1174.51 794.357 1178.15 794.357Z" fill="#575988"/>
<path d="M1954.75 792.416C1957.71 792.416 1960.11 790.016 1960.11 787.055C1960.11 784.095 1957.71 781.695 1954.75 781.695C1951.79 781.695 1949.38 784.095 1949.38 787.055C1949.38 790.016 1951.79 792.416 1954.75 792.416Z" fill="#575988"/>
<path d="M1955.58 804.553C1958.54 804.553 1960.94 802.153 1960.94 799.193C1960.94 796.233 1958.54 793.833 1955.58 793.833C1952.62 793.833 1950.21 796.233 1950.21 799.193C1950.21 802.153 1952.62 804.553 1955.58 804.553Z" fill="#575988"/>
<path d="M1956.31 816.722C1959.28 816.722 1961.68 814.322 1961.68 811.361C1961.68 808.401 1959.28 806.001 1956.31 806.001C1953.35 806.001 1950.95 808.401 1950.95 811.361C1950.95 814.322 1953.35 816.722 1956.31 816.722Z" fill="#575988"/>
<path opacity="0.1" d="M1530.98 1145.64C1530.24 1144.68 1715.87 1379.15 1860.11 1243.66C1860.11 1243.6 1632.33 1274.56 1530.98 1145.64Z" fill="black"/>
<path opacity="0.1" d="M1424.3 1267.54C1424.3 1267.54 1535.42 1270.62 1547.07 1302.53V1335.77C1543.91 1337.54 1540.35 1338.47 1536.73 1338.47C1533.11 1338.47 1529.55 1337.54 1526.39 1335.77C1515.17 1329.61 1448 1295.73 1424.3 1312.02V1267.54Z" fill="black"/>
<path d="M1426.37 1267.54C1426.37 1267.54 1532.65 1270.43 1543.77 1300.9V1332.6C1540.75 1334.29 1537.34 1335.18 1533.88 1335.18C1530.42 1335.18 1527.01 1334.29 1523.99 1332.6C1513.3 1326.84 1449.02 1294.31 1426.37 1309.96V1267.54Z" fill="#656691"/>
<path opacity="0.1" d="M1484.97 1026.3C1484.97 1026.3 1497.7 1059.01 1528.12 1100.23C1546.92 1125.45 1569.7 1147.45 1595.57 1165.36C1595.57 1165.36 1486.82 1041.58 1484.97 1026.3Z" fill="black"/>
<path opacity="0.1" d="M1448.62 897.188C1448.62 897.188 1467.1 977.284 1514.93 1004.39L1448.62 897.188Z" fill="black"/>
<path opacity="0.1" d="M1420.17 905.29C1419.71 903.811 1403.72 968.565 1481.8 1004.39C1481.77 1004.39 1448.62 993.149 1420.17 905.29Z" fill="black"/>
<path opacity="0.1" d="M1905.57 851.625C1904.33 851.625 1944.08 876.917 1954.87 888.593C1954.87 888.685 1928.92 849.962 1905.57 851.625Z" fill="black"/>
<path d="M1654.03 796.328C1655.41 801.38 1657.11 806.925 1661.67 809.575C1664.55 810.96 1667.71 811.666 1670.91 811.639C1700.8 813.487 1731.9 814.719 1759.57 803.29C1764.72 801.457 1769.34 798.389 1773.03 794.356C1777.93 788.349 1778.89 780.186 1780.86 772.792C1784.74 758.159 1793 745.067 1798.98 731.173C1808.99 707.619 1812.35 681.768 1808.68 656.437C1807.91 648.656 1805.35 641.159 1801.2 634.534C1793.25 623.228 1778.83 618.638 1768.32 609.643C1757.81 600.647 1751.09 586.877 1738.86 580.1C1727.83 573.938 1714.21 574.709 1701.88 576.803C1677.43 580.971 1654.01 589.764 1632.86 602.711C1625.77 607.086 1617.97 612.107 1609.78 610.567C1602.63 609.211 1597.45 603.204 1592.83 597.567C1586.97 611 1584.45 625.647 1585.46 640.264C1585.78 642.406 1585.71 644.587 1585.25 646.703C1584.23 649.264 1582.68 651.576 1580.69 653.48C1573.32 662.044 1568.7 675.599 1576 684.286C1579.09 688.044 1584.05 690.108 1587.13 693.928C1592.67 700.829 1590.8 710.718 1590.67 719.528C1590.34 722.588 1591.11 725.665 1592.83 728.216C1595.6 731.573 1600.66 731.851 1604.94 731.111C1609.22 730.372 1613.6 728.924 1617.82 729.879C1622.42 731.412 1626.37 734.45 1629.04 738.505C1642.84 755.91 1648.23 775.349 1654.03 796.328Z" fill="#2D293D"/>
<g opacity="0.1">
<path opacity="0.1" d="M1776.33 786.809C1772.64 790.842 1768.02 793.91 1762.86 795.743C1735.13 807.264 1704.1 805.94 1674.21 804.061C1671.01 804.113 1667.85 803.417 1664.97 802.027C1660.44 799.347 1658.8 793.833 1657.32 788.781C1651.53 767.648 1646.14 748.363 1632.33 730.804C1629.67 726.749 1625.72 723.71 1621.12 722.178C1616.9 721.223 1612.52 722.671 1608.24 723.41C1603.95 724.15 1598.99 723.872 1596.13 720.514C1594.4 717.964 1593.64 714.887 1593.97 711.827C1593.97 703.016 1595.94 693.097 1590.43 686.227C1587.34 682.376 1582.48 680.343 1579.27 676.585C1574.71 671.132 1574.83 663.769 1577.39 656.9C1572.15 665.217 1569.87 675.907 1576 683.147C1579.09 686.936 1584.05 688.969 1587.13 692.82C1592.64 699.689 1590.8 709.609 1590.67 718.419C1590.34 721.479 1591.11 724.557 1592.83 727.107C1595.6 730.465 1600.66 730.742 1604.94 730.003C1609.22 729.263 1613.6 727.815 1617.82 728.77C1622.42 730.303 1626.37 733.342 1629.04 737.396C1642.84 754.956 1648.23 774.363 1654.03 795.373C1655.41 800.395 1657.11 805.94 1661.67 808.62C1664.55 810.01 1667.72 810.706 1670.91 810.653C1700.8 812.532 1731.9 813.734 1759.57 802.335C1764.72 800.502 1769.34 797.435 1773.03 793.402C1774.9 791.019 1776.34 788.33 1777.29 785.454C1776.98 785.916 1776.67 786.378 1776.33 786.809Z" fill="black"/>
<path opacity="0.1" d="M1585.56 643.992C1586.92 642.574 1587.97 640.884 1588.64 639.032C1589.1 636.916 1589.17 634.735 1588.85 632.594C1588.04 620.588 1589.6 608.539 1593.45 597.136L1592.92 596.489C1587.07 609.921 1584.54 624.569 1585.56 639.186C1585.71 640.784 1585.71 642.394 1585.56 643.992Z" fill="black"/>
</g>
<path opacity="0.1" d="M1636.52 855.722C1636.52 855.722 1759.01 871.957 1770.01 853.566L1636.52 855.722Z" fill="black"/>
<path opacity="0.1" d="M1874.75 805.077C1874.75 805.077 1942.79 805.077 1957.76 830.646L1874.75 805.077Z" fill="black"/>
<defs>
<linearGradient id="paint0_linear" x1="2230.38" y1="1149.4" x2="2230.38" y2="504.471" gradientUnits="userSpaceOnUse">
<stop stop-color="#808080" stop-opacity="0.25"/>
<stop offset="0.54" stop-color="#808080" stop-opacity="0.12"/>
<stop offset="1" stop-color="#808080" stop-opacity="0.1"/>
</linearGradient>
<linearGradient id="paint1_linear" x1="131434" y1="270507" x2="131434" y2="118784" gradientUnits="userSpaceOnUse">
<stop stop-color="#808080" stop-opacity="0.25"/>
<stop offset="0.54" stop-color="#808080" stop-opacity="0.12"/>
<stop offset="1" stop-color="#808080" stop-opacity="0.1"/>
</linearGradient>
<linearGradient id="paint2_linear" x1="503974" y1="621182" x2="503974" y2="390214" gradientUnits="userSpaceOnUse">
<stop stop-color="#808080" stop-opacity="0.25"/>
<stop offset="0.54" stop-color="#808080" stop-opacity="0.12"/>
<stop offset="1" stop-color="#808080" stop-opacity="0.1"/>
</linearGradient>
<linearGradient id="paint3_linear" x1="132910" y1="572183" x2="132910" y2="359828" gradientUnits="userSpaceOnUse">
<stop stop-color="#808080" stop-opacity="0.25"/>
<stop offset="0.54" stop-color="#808080" stop-opacity="0.12"/>
<stop offset="1" stop-color="#808080" stop-opacity="0.1"/>
</linearGradient>
<linearGradient id="paint4_linear" x1="358386" y1="588721" x2="358386" y2="379369" gradientUnits="userSpaceOnUse">
<stop stop-color="#808080" stop-opacity="0.25"/>
<stop offset="0.54" stop-color="#808080" stop-opacity="0.12"/>
<stop offset="1" stop-color="#808080" stop-opacity="0.1"/>
</linearGradient>
<linearGradient id="paint5_linear" x1="477469" y1="154937" x2="477469" y2="78294.8" gradientUnits="userSpaceOnUse">
<stop stop-color="#808080" stop-opacity="0.25"/>
<stop offset="0.54" stop-color="#808080" stop-opacity="0.12"/>
<stop offset="1" stop-color="#808080" stop-opacity="0.1"/>
</linearGradient>
<linearGradient id="paint6_linear" x1="607086" y1="1.7911e+06" x2="607086" y2="416411" gradientUnits="userSpaceOnUse">
<stop stop-color="#808080" stop-opacity="0.25"/>
<stop offset="0.54" stop-color="#808080" stop-opacity="0.12"/>
<stop offset="1" stop-color="#808080" stop-opacity="0.1"/>
</linearGradient>
</defs>
</svg>
