<svg width="46" height="46" viewBox="0 0 46 46" fill="none" xmlns="http://www.w3.org/2000/svg">
<path d="M24.8647 46H21.1176C19.6991 46 18.5466 44.847 18.5466 43.428V38.8635C17.1517 38.4733 15.816 37.8997 14.5689 37.1548L11.6256 40.0756C11.1409 40.5546 10.4967 40.8206 9.81704 40.8206C9.12553 40.8206 8.4754 40.5486 7.99075 40.0638L5.34884 37.4031C4.34999 36.398 4.3559 34.7661 5.36066 33.7669L8.43402 30.7159C7.88436 29.6753 7.44109 28.5815 7.12784 27.4522H2.57099C1.15251 27.4463 0 26.2933 0 24.8743V21.1257C0 19.7067 1.15251 18.5537 2.57099 18.5537H7.13375C7.52383 17.1584 8.09714 15.828 8.84184 14.5746L5.45522 11.1571C4.45638 10.1519 4.46229 8.52005 5.47295 7.52082L8.1326 4.87789C8.61724 4.39897 9.25556 4.1329 9.94115 4.1329C10.6327 4.1329 11.2828 4.40488 11.7674 4.88972L15.2841 8.43728C16.3243 7.88149 17.4236 7.44396 18.5525 7.13059V2.57198C18.5525 1.15296 19.705 0 21.1235 0H24.8706C26.2891 0 27.4416 1.15296 27.4416 2.57198V7.1365C28.6118 7.4617 29.7466 7.92288 30.8223 8.50823L34.3685 4.99023C34.8531 4.51131 35.4915 4.24524 36.1771 4.24524C36.8686 4.24524 37.5187 4.51722 38.0033 5.00206L40.6453 7.66273C41.1299 8.14756 41.39 8.79794 41.39 9.48381C41.39 10.1697 41.1181 10.8141 40.6334 11.299L37.2232 14.6869C37.9384 15.9049 38.488 17.2057 38.8662 18.5596H43.429C44.8475 18.5596 46 19.7126 46 21.1316V24.8743C46 26.2933 44.8475 27.4463 43.429 27.4463H38.8662C38.5412 28.617 38.0802 29.7522 37.4951 30.8283L40.5448 33.9028C41.0295 34.3877 41.2895 35.038 41.2895 35.7239C41.2895 36.4098 41.0177 37.0542 40.533 37.5391L37.8734 40.182C37.3887 40.6609 36.7504 40.927 36.0648 40.927C35.3733 40.927 34.7232 40.655 34.2385 40.1702L31.3247 37.2316C30.1072 37.947 28.8129 38.4969 27.4594 38.8753V43.4398C27.4357 44.847 26.2832 46 24.8647 46ZM14.3975 35.6707L14.7935 35.919C16.1824 36.8 17.6896 37.4504 19.2735 37.8466L19.7168 37.9589V43.428C19.7168 44.2026 20.3434 44.8293 21.1176 44.8293H24.8647C25.639 44.8293 26.2655 44.2026 26.2655 43.428V37.9589L26.7087 37.8466C28.2513 37.4623 29.723 36.8355 31.0824 35.9841L31.4783 35.7358L35.0482 39.3365C35.3141 39.6026 35.6629 39.7504 36.0411 39.7504C36.4135 39.7504 36.7622 39.6085 37.0281 39.3483L39.6878 36.7054C39.9537 36.4453 40.0956 36.0905 40.1015 35.7181C40.1015 35.3396 39.9597 34.9907 39.6996 34.7247L36.0234 31.0234L36.248 30.6391C36.9572 29.4033 37.4951 28.0907 37.8319 26.7249L37.9442 26.2815H43.4113C44.1855 26.2815 44.812 25.6548 44.812 24.8802V21.1316C44.812 20.3571 44.1855 19.7303 43.4113 19.7303H37.9442L37.8319 19.2869C37.4478 17.7437 36.8213 16.2656 35.9702 14.9057L35.722 14.5095L39.7883 10.4712C40.0543 10.2111 40.1961 9.8563 40.202 9.48381C40.202 9.1054 40.0602 8.75656 39.8001 8.49049L37.1582 5.82982C36.8923 5.56375 36.5436 5.41594 36.1653 5.41594C35.7929 5.41594 35.4442 5.55784 35.1783 5.81799L31.0055 9.96272L30.6214 9.73805C29.392 9.02854 28.074 8.4964 26.7088 8.15347L26.2655 8.04113V2.57198C26.2655 1.79743 25.639 1.17069 24.8648 1.17069H21.1176C20.3434 1.17069 19.7169 1.79743 19.7169 2.57198V8.04113L19.2736 8.15347C17.9438 8.48458 16.6672 8.99897 15.4615 9.67892L15.0714 9.89769L10.9341 5.71748C10.6682 5.45141 10.3195 5.3036 9.94121 5.3036C9.56886 5.3036 9.22015 5.4455 8.95419 5.70566L6.29455 8.34859C5.74489 8.89255 5.74489 9.77944 6.28864 10.3293L10.3313 14.4031L10.0831 14.7992C9.20242 16.1887 8.55229 17.6964 8.1563 19.2751L8.044 19.7185H2.57099C1.79674 19.7185 1.17024 20.3452 1.17024 21.1198V24.8743C1.17024 25.6488 1.79674 26.2756 2.57099 26.2756H8.03803L8.15033 26.719C8.48131 28.0494 8.9955 29.3265 9.67519 30.5267L9.89387 30.917L6.1881 34.5946C5.63844 35.1385 5.63844 36.0254 6.18219 36.5753L8.8241 39.236C9.09007 39.5021 9.43878 39.6499 9.81704 39.6499C10.1894 39.6499 10.5381 39.508 10.8041 39.2478L14.3975 35.6707Z" fill="white"/>
<path d="M22.9911 31.7684C18.1565 31.7684 14.2202 27.8306 14.2202 22.9941C14.2202 18.1576 18.1565 14.2258 22.9911 14.2258C27.8258 14.2258 31.762 18.1636 31.762 23.0001C31.762 27.8366 27.8258 31.7684 22.9911 31.7684ZM22.9911 15.3964C18.8007 15.3964 15.3905 18.808 15.3905 23C15.3905 27.192 18.8007 30.5977 22.9911 30.5977C27.1815 30.5977 30.5918 27.1861 30.5918 22.9941C30.5918 18.8021 27.1815 15.3964 22.9911 15.3964Z" fill="white"/>
</svg>
