<svg width="1280" height="1280" viewBox="0 0 1280 1280" fill="none" xmlns="http://www.w3.org/2000/svg">
<rect width="320" height="320" fill="black" fill-opacity="0" transform="scale(4)"/>
<rect width="320" height="320" fill="black" fill-opacity="0" transform="scale(4)"/>
<path d="M29.0918 814.547C13.0254 814.547 0 801.522 0 785.455V494.545C0 478.479 13.0254 465.453 29.0918 465.453C45.1581 465.453 58.1836 478.479 58.1836 494.545V785.455C58.1808 801.522 45.1581 814.547 29.0918 814.547Z" fill="#F44336" fill-opacity="0.1"/>
<path d="M203.637 1047.27C187.57 1047.27 174.545 1034.25 174.545 1018.18V261.818C174.545 245.752 187.57 232.727 203.637 232.727C219.703 232.727 232.728 245.752 232.728 261.818V1018.18C232.726 1034.25 219.703 1047.27 203.637 1047.27Z" fill="#F44336" fill-opacity="0.1"/>
<path d="M378.182 1280C362.115 1280 349.09 1266.97 349.09 1250.91V29.0891C349.09 13.0255 362.115 0 378.182 0C394.248 0 407.273 13.0255 407.273 29.0918V1250.91C407.271 1266.98 394.248 1280 378.182 1280Z" fill="#F44336" fill-opacity="0.1"/>
<path d="M552.727 1221.82C536.66 1221.82 523.635 1208.79 523.635 1192.73V87.2727C523.635 71.2064 536.66 58.1809 552.727 58.1809C568.793 58.1809 581.816 71.2064 581.816 87.2727V1192.73C581.816 1208.79 568.793 1221.82 552.727 1221.82Z" fill="#F44336" fill-opacity="0.1"/>
<path d="M727.273 989.093C711.207 989.093 698.182 976.067 698.182 960.001V320C698.182 303.933 711.207 290.908 727.273 290.908C743.34 290.908 756.365 303.933 756.365 320V960.001C756.363 976.067 743.34 989.093 727.273 989.093Z" fill="#F44336" fill-opacity="0.1"/>
<path d="M901.818 1221.82C885.752 1221.82 872.727 1208.79 872.727 1192.73V87.2727C872.727 71.2064 885.752 58.1809 901.818 58.1809C917.885 58.1809 930.91 71.2064 930.91 87.2727V1192.73C930.907 1208.79 917.885 1221.82 901.818 1221.82Z" fill="#F44336" fill-opacity="0.1"/>
<path d="M1076.36 989.093C1060.3 989.093 1047.27 976.067 1047.27 960.001V320C1047.27 303.933 1060.3 290.908 1076.36 290.908C1092.43 290.908 1105.46 303.933 1105.46 320V960.001C1105.45 976.067 1092.43 989.093 1076.36 989.093Z" fill="#F44336" fill-opacity="0.1"/>
<path d="M1250.91 814.547C1234.84 814.547 1221.82 801.522 1221.82 785.455V494.545C1221.82 478.479 1234.84 465.453 1250.91 465.453C1266.97 465.453 1280 478.479 1280 494.545V785.455C1280 801.522 1266.97 814.547 1250.91 814.547Z" fill="#F44336" fill-opacity="0.1"/>
</svg>
