<svg width="5760" height="3600" viewBox="0 0 5760 3600" fill="none" xmlns="http://www.w3.org/2000/svg">
<g clip-path="url(#clip0)">
<rect width="1440" height="900" fill="white" transform="scale(4)"/>
<path d="M1625.82 1228H1993.77C2028.11 1228 2055.58 1255.5 2055.58 1289.87V1658.13C2055.58 1692.5 2028.11 1720 1993.77 1720H1625.82C1591.47 1720 1564 1692.5 1564 1658.13V1289.87C1564 1255.5 1591.47 1228 1625.82 1228Z" fill="#FF5722"/>
<g opacity="0.5">
<g opacity="0.5">
<g opacity="0.5">
<path opacity="0.03" d="M1823.6 1375.2V1425.2H1798.4C1798.4 1439.2 1809.6 1450.4 1823.6 1450.4V1475.6C1796 1475.6 1773.6 1453.2 1773.6 1425.6V1375.2H1823.6ZM1698.8 1375.2V1425.2C1698.8 1452.8 1721.2 1475.2 1748.8 1475.2V1450C1734.8 1450 1723.6 1438.8 1723.6 1424.8H1748.8V1375.2H1698.8Z" fill="#8C6B6B"/>
<path opacity="0.06" d="M1820.8 1372.4V1422.4H1795.6C1795.6 1436.4 1806.8 1447.6 1820.8 1447.6V1472.8C1793.2 1472.8 1770.8 1450.4 1770.8 1422.8V1372.4H1820.8ZM1695.6 1372.4V1422.4C1695.6 1450 1718 1472.4 1745.6 1472.4V1447.2C1731.6 1447.2 1720.4 1436 1720.4 1422H1745.6V1372.4H1695.6Z" fill="#8C6B6B"/>
<path opacity="0.09" d="M1818 1369.6V1419.6H1792.8C1792.8 1433.6 1804 1444.8 1818 1444.8V1470C1790.4 1470 1768 1447.6 1768 1420V1369.6H1818ZM1692.8 1369.6V1419.6C1692.8 1447.2 1715.2 1469.6 1742.8 1469.6V1444.4C1728.8 1444.4 1717.6 1433.2 1717.6 1419.2H1742.8V1369.6H1692.8Z" fill="#8C6B6B"/>
<path opacity="0.11" d="M1815.2 1366.4V1416.4H1790C1790 1430.4 1801.2 1441.6 1815.2 1441.6V1466.8C1787.6 1466.8 1765.2 1444.4 1765.2 1416.8V1366.4H1815.2ZM1690 1366.4V1416.4C1690 1444 1712.4 1466.4 1740 1466.4V1441.2C1726 1441.2 1714.8 1430 1714.8 1416H1740V1366.4H1690Z" fill="#8C6B6B"/>
<path opacity="0.14" d="M1812.4 1363.6V1413.6H1787.2C1787.2 1427.6 1798.4 1438.8 1812.4 1438.8V1464C1784.8 1464 1762.4 1441.6 1762.4 1414V1363.6H1812.4ZM1687.2 1363.6V1413.6C1687.2 1441.2 1709.6 1463.6 1737.2 1463.6V1438.4C1723.2 1438.4 1712 1427.2 1712 1413.2H1737.2V1363.6H1687.2Z" fill="#8C6B6B"/>
<path opacity="0.17" d="M1809.2 1360.8V1410.8H1784C1784 1424.8 1795.2 1436 1808.8 1436V1461.2C1781.2 1461.2 1758.8 1438.8 1758.8 1411.2V1360.8H1809.2ZM1684.4 1360.8V1410.8C1684.4 1438.4 1706.8 1460.8 1734.4 1460.8V1436C1720.4 1436 1709.2 1424.8 1709.2 1410.8H1734.4V1360.8H1684.4Z" fill="#8C6B6B"/>
<path opacity="0.2" d="M1806.4 1358V1408H1781.2C1781.2 1422 1792.4 1433.2 1806.4 1433.2V1458.4C1778.8 1458.4 1756.4 1436 1756.4 1408.4V1358H1806.4ZM1681.6 1358V1408C1681.6 1435.6 1704 1458 1731.6 1458V1432.8C1717.6 1432.8 1706.4 1421.6 1706.4 1407.6H1731.6V1358H1681.6Z" fill="#8C6B6B"/>
<path opacity="0.23" d="M1803.6 1355.2V1405.2H1778.4C1778.4 1419.2 1789.6 1430.4 1803.6 1430.4V1455.6C1776 1455.6 1753.6 1433.2 1753.6 1405.6V1355.2H1803.6ZM1678.8 1355.2V1405.2C1678.8 1432.8 1701.2 1455.2 1728.8 1455.2V1430C1714.8 1430 1703.6 1418.8 1703.6 1404.8H1728.8V1355.2H1678.8Z" fill="#8C6B6B"/>
<path opacity="0.26" d="M1800.8 1352.4V1402.4H1775.6C1775.6 1416.4 1786.8 1427.6 1800.8 1427.6V1452.8C1773.2 1452.8 1750.8 1430.4 1750.8 1402.8V1352.4H1800.8ZM1675.6 1352.4V1402.4C1675.6 1430 1698 1452.4 1725.6 1452.4V1427.2C1711.6 1427.2 1700.4 1416 1700.4 1402H1725.6V1352.4H1675.6Z" fill="#8C6B6B"/>
<path opacity="0.29" d="M1798 1349.6V1399.6H1772.8C1772.8 1413.6 1784 1424.8 1798 1424.8V1450C1770.4 1450 1748 1427.6 1748 1400V1349.6H1798ZM1672.8 1349.6V1399.6C1672.8 1427.2 1695.2 1449.6 1722.8 1449.6V1424.4C1708.8 1424.4 1697.6 1413.2 1697.6 1399.2H1722.8V1349.6H1672.8Z" fill="#8C6B6B"/>
<path opacity="0.31" d="M1795.2 1346.4V1396.4H1770C1770 1410.4 1781.2 1421.6 1795.2 1421.6V1446.8C1767.6 1446.8 1745.2 1424.4 1745.2 1396.8V1346.4H1795.2ZM1670 1346.4V1396.4C1670 1424 1692.4 1446.4 1720 1446.4V1421.2C1706 1421.2 1694.8 1410 1694.8 1396H1720V1346.4H1670Z" fill="#8C6B6B"/>
<path opacity="0.34" d="M1792.4 1343.6V1393.6H1767.2C1767.2 1407.6 1778.4 1418.8 1792.4 1418.8V1444C1764.8 1444 1742.4 1421.6 1742.4 1394V1343.6H1792.4ZM1667.2 1343.6V1393.6C1667.2 1421.2 1689.6 1443.6 1717.2 1443.6V1418.4C1703.2 1418.4 1692 1407.2 1692 1393.2H1717.2V1343.6H1667.2Z" fill="#8C6B6B"/>
<path opacity="0.37" d="M1789.2 1340.8V1390.8H1764C1764 1404.8 1775.2 1416 1788.8 1416V1441.2C1761.2 1441.2 1738.8 1418.8 1738.8 1391.2V1340.8H1789.2ZM1664.4 1340.8V1390.8C1664.4 1418.4 1686.8 1440.8 1714.4 1440.8V1416C1700.4 1416 1689.2 1404.8 1689.2 1390.8H1714.4V1340.8H1664.4Z" fill="#8C6B6B"/>
<path opacity="0.4" d="M1786.4 1338V1388H1761.2C1761.2 1402 1772.4 1413.2 1786.4 1413.2V1438.4C1758.8 1438.4 1736.4 1416 1736.4 1388.4V1338H1786.4ZM1661.6 1338V1388C1661.6 1415.6 1684 1438 1711.6 1438V1412.8C1697.6 1412.8 1686.4 1401.6 1686.4 1387.6H1711.6V1338H1661.6Z" fill="#8C6B6B"/>
<path opacity="0.43" d="M1783.6 1335.2V1385.2H1758.4C1758.4 1399.2 1769.6 1410.4 1783.6 1410.4V1435.6C1756 1435.6 1733.6 1413.2 1733.6 1385.6V1335.2H1783.6ZM1658.8 1335.2V1385.2C1658.8 1412.8 1681.2 1435.2 1708.8 1435.2V1410C1694.8 1410 1683.6 1398.8 1683.6 1384.8H1708.8V1335.2H1658.8Z" fill="#8C6B6B"/>
<path opacity="0.46" d="M1780.8 1332.4V1382.4H1755.6C1755.6 1396.4 1766.8 1407.6 1780.8 1407.6V1432.8C1753.2 1432.8 1730.8 1410.4 1730.8 1382.8V1332.4H1780.8ZM1655.6 1332.4V1382.4C1655.6 1410 1678 1432.4 1705.6 1432.4V1407.2C1691.6 1407.2 1680.4 1396 1680.4 1382H1705.6V1332.4H1655.6Z" fill="#8C6B6B"/>
<path opacity="0.49" d="M1778 1329.6V1379.6H1752.8C1752.8 1393.6 1764 1404.8 1778 1404.8V1430C1750.4 1430 1728 1407.6 1728 1380V1329.6H1778ZM1652.8 1329.6V1379.6C1652.8 1407.2 1675.2 1429.6 1702.8 1429.6V1404.4C1688.8 1404.4 1677.6 1393.2 1677.6 1379.2H1702.8V1329.6H1652.8Z" fill="#8C6B6B"/>
<path opacity="0.51" d="M1775.2 1326.4V1376.4H1750C1750 1390.4 1761.2 1401.6 1775.2 1401.6V1426.8C1747.6 1426.8 1725.2 1404.4 1725.2 1376.8V1326.4H1775.2ZM1650 1326.4V1376.4C1650 1404 1672.4 1426.4 1700 1426.4V1401.2C1686 1401.2 1674.8 1390 1674.8 1376H1700V1326.4H1650Z" fill="#8C6B6B"/>
<path opacity="0.54" d="M1772.4 1323.6V1373.6H1747.2C1747.2 1387.6 1758.4 1398.8 1772.4 1398.8V1424C1744.8 1424 1722.4 1401.6 1722.4 1374V1323.6H1772.4ZM1647.2 1323.6V1373.6C1647.2 1401.2 1669.6 1423.6 1697.2 1423.6V1398.4C1683.2 1398.4 1672 1387.2 1672 1373.2H1697.2V1323.6H1647.2Z" fill="#8C6B6B"/>
<path opacity="0.57" d="M1769.2 1320.8V1370.8H1744C1744 1384.8 1755.2 1396 1768.8 1396V1421.2C1741.2 1421.2 1718.8 1398.8 1718.8 1371.2V1320.8H1769.2ZM1644.4 1320.8V1370.8C1644.4 1398.4 1666.8 1420.8 1694.4 1420.8V1396C1680.4 1396 1669.2 1384.8 1669.2 1370.8H1694.4V1320.8H1644.4Z" fill="#8C6B6B"/>
<path opacity="0.6" d="M1766.4 1318V1368H1741.2C1741.2 1382 1752.4 1393.2 1766.4 1393.2V1418.4C1738.8 1418.4 1716.4 1396 1716.4 1368.4V1318H1766.4ZM1641.6 1318V1368C1641.6 1395.6 1664 1418 1691.6 1418V1392.8C1677.6 1392.8 1666.8 1381.6 1666.8 1367.6H1691.6V1318H1641.6Z" fill="#8C6B6B"/>
<path opacity="0.63" d="M1763.6 1315.2V1365.2H1738.4C1738.4 1379.2 1749.6 1390.4 1763.6 1390.4V1415.6C1736 1415.6 1713.6 1393.2 1713.6 1365.6V1315.2H1763.6ZM1638.8 1315.2V1365.2C1638.8 1392.8 1661.2 1415.2 1688.8 1415.2V1390C1674.8 1390 1663.6 1378.8 1663.6 1364.8H1688.8V1315.2H1638.8Z" fill="#8C6B6B"/>
<path opacity="0.66" d="M1760.8 1312.4V1362.4H1735.6C1735.6 1376.4 1746.8 1387.6 1760.8 1387.6V1412.8C1733.2 1412.8 1710.8 1390.4 1710.8 1362.8V1312.4H1760.8ZM1635.6 1312.4V1362.4C1635.6 1390 1658 1412.4 1685.6 1412.4V1387.2C1671.6 1387.2 1660.4 1376 1660.4 1362H1685.6V1312.4H1635.6Z" fill="#8C6B6B"/>
<path opacity="0.69" d="M1758 1309.6V1359.6H1732.8C1732.8 1373.6 1744 1384.8 1758 1384.8V1410C1730.4 1410 1708 1387.6 1708 1360V1309.6H1758ZM1632.8 1309.6V1359.6C1632.8 1387.2 1655.2 1409.6 1682.8 1409.6V1384.4C1668.8 1384.4 1657.6 1373.2 1657.6 1359.2H1682.8V1309.6H1632.8Z" fill="#8C6B6B"/>
<path opacity="0.71" d="M1755.2 1306.4V1356.4H1730C1730 1370.4 1741.2 1381.6 1755.2 1381.6V1406.8C1727.6 1406.8 1705.2 1384.4 1705.2 1356.8V1306.4H1755.2ZM1630 1306.4V1356.4C1630 1384 1652.4 1406.4 1680 1406.4V1381.2C1666 1381.2 1654.8 1370 1654.8 1356H1680V1306.4H1630Z" fill="#8C6B6B"/>
<path opacity="0.74" d="M1752.4 1303.6V1353.6H1727.2C1727.2 1367.6 1738.4 1378.8 1752.4 1378.8V1404C1724.8 1404 1702.4 1381.6 1702.4 1354V1303.6H1752.4ZM1627.2 1303.6V1353.6C1627.2 1381.2 1649.6 1403.6 1677.2 1403.6V1378.4C1663.2 1378.4 1652 1367.2 1652 1353.2H1677.2V1303.6H1627.2Z" fill="#8C6B6B"/>
<path opacity="0.77" d="M1749.2 1300.8V1350.8H1724C1724 1364.8 1735.2 1376 1748.8 1376V1401.2C1721.2 1401.2 1698.8 1378.8 1698.8 1351.2V1300.8H1749.2ZM1624.4 1300.8V1350.8C1624.4 1378.4 1646.8 1400.8 1674.4 1400.8V1376C1660.4 1376 1649.2 1364.8 1649.2 1350.8H1674.4V1300.8H1624.4Z" fill="#8C6B6B"/>
<path opacity="0.8" d="M1746.4 1298V1348H1721.2C1721.2 1362 1732.4 1373.2 1746.4 1373.2V1398.4C1718.8 1398.4 1696.4 1376 1696.4 1348.4V1298H1746.4ZM1621.6 1298V1348C1621.6 1375.6 1644 1398 1671.6 1398V1372.8C1657.6 1372.8 1646.8 1361.6 1646.8 1347.6H1672V1298H1621.6Z" fill="#8C6B6B"/>
<path opacity="0.83" d="M1743.6 1295.2V1345.2H1718.4C1718.4 1359.2 1729.6 1370.4 1743.6 1370.4V1395.6C1716 1395.6 1693.6 1373.2 1693.6 1345.6V1295.2H1743.6ZM1618.8 1295.2V1345.2C1618.8 1372.8 1641.2 1395.2 1668.8 1395.2V1370C1654.8 1370 1643.6 1358.8 1643.6 1344.8H1668.8V1295.2H1618.8Z" fill="#8C6B6B"/>
<path opacity="0.86" d="M1740.8 1292.4V1342.4H1715.6C1715.6 1356.4 1726.8 1367.6 1740.8 1367.6V1392.8C1713.2 1392.8 1690.8 1370.4 1690.8 1342.8V1292.4H1740.8ZM1615.6 1292.4V1342.4C1615.6 1370 1638 1392.4 1665.6 1392.4V1367.2C1651.6 1367.2 1640.4 1356 1640.4 1342H1665.6V1292.4H1615.6Z" fill="#8C6B6B"/>
<path opacity="0.89" d="M1738 1289.6V1339.6H1712.8C1712.8 1353.6 1724 1364.8 1738 1364.8V1390C1710.4 1390 1688 1367.6 1688 1340V1289.6H1738ZM1612.8 1289.6V1339.6C1612.8 1367.2 1635.2 1389.6 1662.8 1389.6V1364.4C1648.8 1364.4 1637.6 1353.2 1637.6 1339.2H1662.8V1289.6H1612.8Z" fill="#8C6B6B"/>
<path opacity="0.91" d="M1735.2 1286.4V1336.4H1710C1710 1350.4 1721.2 1361.6 1735.2 1361.6V1386.8C1707.6 1386.8 1685.2 1364.4 1685.2 1336.8V1286.4H1735.2ZM1610 1286.4V1336.4C1610 1364 1632.4 1386.4 1660 1386.4V1361.2C1646 1361.2 1634.8 1350 1634.8 1336H1660V1286.4H1610Z" fill="#8C6B6B"/>
<path opacity="0.94" d="M1732.4 1283.6V1333.6H1707.2C1707.2 1347.6 1718.4 1358.8 1732.4 1358.8V1384C1704.8 1384 1682.4 1361.6 1682.4 1334V1283.6H1732.4ZM1607.2 1283.6V1333.6C1607.2 1361.2 1629.6 1383.6 1657.2 1383.6V1358.4C1643.2 1358.4 1632 1347.2 1632 1333.2H1657.2V1283.6H1607.2Z" fill="#8C6B6B"/>
<path opacity="0.97" d="M1729.2 1280.8V1330.8H1704C1704 1344.8 1715.2 1356 1728.8 1356V1381.2C1701.2 1381.2 1678.8 1358.8 1678.8 1331.2V1280.8H1729.2ZM1604.4 1280.8V1330.8C1604.4 1358.4 1626.8 1380.8 1654.4 1380.8V1356C1640.4 1356 1629.2 1344.8 1629.2 1330.8H1654.4V1280.8H1604.4Z" fill="#8C6B6B"/>
<path opacity="0.5" d="M1726.4 1278V1328H1701.2C1701.2 1342 1712.4 1353.2 1726.4 1353.2V1378.4C1698.8 1378.4 1676.4 1356 1676.4 1328.4V1278H1726.4ZM1601.6 1278V1328C1601.6 1355.6 1624 1378 1651.6 1378V1352.8C1637.6 1352.8 1626.8 1341.6 1626.8 1327.6H1652V1278H1601.6Z" fill="#8C6B6B"/>
</g>
</g>
</g>
<path d="M1962.37 1350.75V1473.51H1900.55C1900.55 1507.88 1928.03 1535.38 1962.37 1535.38V1597.25C1894.66 1597.25 1839.72 1542.25 1839.72 1474.49V1350.75H1962.37Z" fill="white"/>
<path d="M1778.88 1350.75V1473.51H1717.07C1717.07 1507.88 1744.54 1535.38 1778.88 1535.38V1597.25C1711.18 1597.25 1656.23 1542.25 1656.23 1474.49V1350.75H1778.88Z" fill="white"/>
<path d="M2691.4 1474.49C2691.4 1406.73 2739.48 1350.75 2808.16 1350.75C2886.66 1350.75 2922.96 1411.64 2922.96 1478.42C2922.96 1483.33 2922.96 1490.2 2921.98 1496.1H2758.12C2762.04 1524.57 2787.56 1544.22 2816.01 1542.25C2837.6 1542.25 2858.2 1533.41 2872.92 1517.7L2911.19 1552.07C2887.64 1581.53 2852.31 1597.25 2815.03 1596.26C2743.4 1596.26 2691.4 1546.18 2691.4 1474.49ZM2857.22 1454.85C2853.3 1425.39 2835.63 1404.77 2807.18 1404.77C2778.72 1404.77 2761.06 1424.41 2756.16 1454.85H2857.22Z" fill="#212121"/>
<path d="M2960.25 1474.49C2960.25 1406.73 3008.32 1350.75 3077.01 1350.75C3155.5 1350.75 3191.81 1411.64 3191.81 1478.42C3191.81 1483.33 3191.81 1490.2 3190.83 1496.1H3026.97C3030.89 1524.57 3056.4 1544.22 3084.86 1542.25C3106.44 1542.25 3127.05 1533.41 3141.77 1517.7L3180.04 1552.07C3156.49 1581.53 3121.16 1597.25 3083.88 1596.26C3013.23 1596.26 2960.25 1546.18 2960.25 1474.49ZM3127.05 1454.85C3123.13 1425.39 3105.46 1404.77 3077.01 1404.77C3048.55 1404.77 3030.89 1424.41 3025.99 1454.85H3127.05Z" fill="#212121"/>
<path d="M3350.77 1539.31C3314.46 1539.31 3285.02 1509.84 3285.02 1473.51C3285.02 1437.17 3314.46 1407.71 3350.77 1407.71C3375.3 1407.71 3397.86 1421.46 3408.66 1443.07H3469.49C3452.81 1377.27 3386.09 1337.99 3320.35 1354.68C3254.61 1371.38 3215.36 1438.16 3232.04 1503.95C3248.72 1569.75 3315.44 1609.03 3381.18 1592.34C3424.36 1581.53 3457.72 1547.16 3469.49 1503.95H3408.66C3396.88 1525.56 3375.3 1539.31 3350.77 1539.31Z" fill="#212121"/>
<path d="M2166.46 1559.93L2194.91 1515.74C2216.5 1532.43 2242.99 1542.25 2270.46 1544.22C2290.09 1544.22 2298.92 1537.34 2298.92 1526.54V1525.56C2298.92 1510.83 2275.37 1505.92 2249.86 1498.06C2216.5 1488.24 2179.21 1472.53 2179.21 1426.37V1425.39C2179.21 1377.27 2218.46 1349.77 2265.56 1349.77C2296.95 1350.75 2327.37 1359.59 2353.86 1377.27L2328.35 1423.43C2308.73 1410.66 2287.14 1402.8 2264.58 1400.84C2247.89 1400.84 2240.05 1407.71 2240.05 1417.53V1418.52C2240.05 1431.28 2262.61 1438.16 2288.12 1446.99C2321.48 1457.8 2359.75 1474.49 2359.75 1517.7V1518.68C2359.75 1571.71 2320.5 1595.28 2268.5 1595.28C2231.21 1596.26 2195.89 1583.5 2166.46 1559.93Z" fill="#212121"/>
<path d="M3633.35 1407.71C3669.65 1407.71 3699.09 1437.17 3699.09 1473.51C3699.09 1509.84 3669.65 1539.31 3633.35 1539.31C3597.05 1539.31 3567.61 1509.84 3567.61 1473.51C3567.61 1437.17 3597.05 1407.71 3633.35 1407.71ZM3633.35 1350.75C3565.65 1350.75 3510.7 1405.75 3510.7 1473.51C3510.7 1541.27 3565.65 1596.26 3633.35 1596.26C3701.05 1596.26 3756 1541.27 3756 1473.51C3756 1405.75 3701.05 1350.75 3633.35 1350.75Z" fill="#212121"/>
<path d="M2467.68 1687.59V1576.62C2524.59 1610.99 2599.17 1593.32 2633.51 1536.36C2667.85 1479.4 2650.19 1404.77 2593.28 1370.4C2555.01 1346.83 2505.95 1346.83 2467.68 1370.4V1350.75H2408.81V1687.59H2467.68ZM2530.48 1412.62C2563.84 1412.62 2591.32 1440.12 2591.32 1473.51C2591.32 1506.9 2563.84 1534.4 2530.48 1534.4C2497.12 1534.4 2469.65 1506.9 2469.65 1473.51C2469.65 1440.12 2497.12 1412.62 2530.48 1412.62Z" fill="#212121"/>
<g opacity="0.4">
<path opacity="0.1" d="M4868.47 1580.48C4733.57 1694.89 4558.54 1687.5 4405.33 1627.98C4252.12 1568.46 4110.99 1462.46 3961.6 1387.14C3839.32 1324.93 3707.6 1283.35 3571.77 1264.07C3381.36 1237.66 3168.68 1269.83 3035.99 1454.79C2888.24 1660.76 2899.61 2032.25 3059.41 2221.43C3140.7 2317.6 3247.14 2364.8 3339.98 2439.91C3432.82 2515.01 3518.7 2639.68 3510.82 2784.63C3503.51 2918.82 3418.37 3021.83 3330.37 3086.53C3262.3 3136.43 3178.48 3190.96 3170.13 3294.38C3162.18 3394.43 3232.65 3472.84 3299.98 3517.44C3519.51 3662.91 3789.93 3661.49 4008.72 3513.78C4086.77 3461.07 4158.48 3390.98 4240.32 3349.89C4455.16 3242.07 4691.94 3350.6 4919.41 3390.31C5111.97 3423.92 5309.43 3406.51 5497.03 3339.38C5609.69 3299.09 5722.78 3237.48 5801.94 3122.69C5859.01 3039.92 5894.57 2935.14 5927.94 2831.7C5963.56 2721.37 5997.79 2610.27 6030.62 2498.41C6050.31 2431.25 6069.72 2362.86 6074.8 2290.96C6084.05 2160.74 6045.16 2032.19 5992.25 1922.15C5866.74 1661.03 5655.14 1477.58 5426.1 1430.97C5197.05 1384.36 4954.36 1475.4 4776.62 1674.56" fill="#FF5722"/>
<g opacity="0.35">
<path opacity="0.2" d="M4475.77 1884.56V1864.08H4152.84C4137.98 1864.08 4147.04 1884.69 4147.04 1884.69H3971.59V2344.16H4741.95V1884.56H4475.77Z" fill="#FF5722"/>
</g>
<path d="M5500.11 2227.28C5500.11 2227.28 5597.21 2055.32 5743.55 2005.78C5805.01 1985.39 5858.2 1945.61 5895.12 1892.42C5912.46 1867.04 5927.43 1840.13 5939.84 1812.01" stroke="#535461" stroke-width="2" stroke-miterlimit="10"/>
<path d="M5827.95 2070.48C5806.01 2062.9 5756.15 2001.16 5756.15 2001.16C5756.15 2001.16 5833.53 1983.45 5855.47 1991.06C5860.68 1992.87 5865.49 1995.68 5869.62 1999.35C5873.75 2003.01 5877.11 2007.45 5879.52 2012.42C5881.93 2017.38 5883.34 2022.77 5883.67 2028.28C5884 2033.79 5883.23 2039.31 5881.43 2044.52C5879.62 2049.74 5876.8 2054.55 5873.14 2058.67C5869.47 2062.8 5865.03 2066.16 5860.06 2068.57C5855.1 2070.98 5849.71 2072.39 5844.2 2072.72C5838.69 2073.05 5833.16 2072.28 5827.95 2070.48Z" fill="#FF5722"/>
<path d="M5681.3 2157.38C5658.41 2153.65 5598.81 2101.28 5598.81 2101.28C5598.81 2101.28 5672.09 2070.79 5695.01 2074.54C5700.46 2075.44 5705.68 2077.41 5710.36 2080.32C5715.05 2083.24 5719.12 2087.05 5722.33 2091.54C5725.55 2096.02 5727.85 2101.1 5729.1 2106.47C5730.35 2111.85 5730.53 2117.42 5729.63 2122.86C5728.73 2128.31 5726.77 2133.52 5723.85 2138.21C5720.94 2142.9 5717.13 2146.96 5712.64 2150.18C5708.15 2153.39 5703.07 2155.69 5697.7 2156.94C5692.32 2158.19 5686.75 2158.37 5681.3 2157.47V2157.38Z" fill="#FF5722"/>
<path d="M5655.88 1939.64C5662.81 1961.79 5723.05 2013.58 5723.05 2013.58C5723.05 2013.58 5743.05 1936.78 5736.12 1914.63C5734.68 1909.12 5732.15 1903.96 5728.66 1899.47C5725.17 1894.97 5720.8 1891.23 5715.82 1888.47C5710.84 1885.71 5705.35 1883.99 5699.69 1883.42C5694.03 1882.84 5688.31 1883.43 5682.88 1885.13C5677.44 1886.83 5672.41 1889.62 5668.09 1893.32C5663.77 1897.03 5660.25 1901.57 5657.73 1906.68C5655.22 1911.78 5653.77 1917.34 5653.47 1923.03C5653.18 1928.71 5654.04 1934.4 5656 1939.74L5655.88 1939.64Z" fill="#FF5722"/>
<path d="M5504.27 2063.24C5507.35 2086.25 5558.01 2147.37 5558.01 2147.37C5558.01 2147.37 5590.71 2075.07 5587.63 2052.06C5587.23 2046.32 5585.66 2040.72 5583.01 2035.62C5580.37 2030.51 5576.7 2026 5572.25 2022.36C5567.79 2018.73 5562.63 2016.05 5557.09 2014.49C5551.56 2012.92 5545.76 2012.51 5540.06 2013.28C5534.36 2014.04 5528.87 2015.97 5523.95 2018.94C5519.02 2021.91 5514.76 2025.86 5511.42 2030.54C5508.08 2035.22 5505.73 2040.54 5504.53 2046.17C5503.33 2051.79 5503.29 2057.6 5504.43 2063.24H5504.27Z" fill="#FF5722"/>
<path opacity="0.25" d="M5827.95 2070.48C5806.01 2062.9 5756.15 2001.16 5756.15 2001.16C5756.15 2001.16 5833.53 1983.45 5855.47 1991.06C5860.68 1992.87 5865.49 1995.68 5869.62 1999.35C5873.75 2003.01 5877.11 2007.45 5879.52 2012.42C5881.93 2017.38 5883.34 2022.77 5883.67 2028.28C5884 2033.79 5883.23 2039.31 5881.43 2044.52C5879.62 2049.74 5876.8 2054.55 5873.14 2058.67C5869.47 2062.8 5865.03 2066.16 5860.06 2068.57C5855.1 2070.98 5849.71 2072.39 5844.2 2072.72C5838.69 2073.05 5833.16 2072.28 5827.95 2070.48Z" fill="black"/>
<path opacity="0.25" d="M5681.3 2157.38C5658.41 2153.65 5598.81 2101.28 5598.81 2101.28C5598.81 2101.28 5672.09 2070.79 5695.01 2074.54C5700.46 2075.44 5705.68 2077.41 5710.36 2080.32C5715.05 2083.24 5719.12 2087.05 5722.33 2091.54C5725.55 2096.02 5727.85 2101.1 5729.1 2106.47C5730.35 2111.85 5730.53 2117.42 5729.63 2122.86C5728.73 2128.31 5726.77 2133.52 5723.85 2138.21C5720.94 2142.9 5717.13 2146.96 5712.64 2150.18C5708.15 2153.39 5703.07 2155.69 5697.7 2156.94C5692.32 2158.19 5686.75 2158.37 5681.3 2157.47V2157.38Z" fill="black"/>
<path opacity="0.25" d="M5655.88 1939.64C5662.81 1961.79 5723.05 2013.58 5723.05 2013.58C5723.05 2013.58 5743.05 1936.78 5736.12 1914.63C5734.68 1909.12 5732.15 1903.96 5728.66 1899.47C5725.17 1894.97 5720.8 1891.23 5715.82 1888.47C5710.84 1885.71 5705.35 1883.99 5699.69 1883.42C5694.03 1882.84 5688.31 1883.43 5682.88 1885.13C5677.44 1886.83 5672.41 1889.62 5668.09 1893.32C5663.77 1897.03 5660.25 1901.57 5657.73 1906.68C5655.22 1911.78 5653.77 1917.34 5653.47 1923.03C5653.18 1928.71 5654.04 1934.4 5656 1939.74L5655.88 1939.64Z" fill="black"/>
<path opacity="0.25" d="M5504.27 2063.24C5507.35 2086.25 5558.01 2147.37 5558.01 2147.37C5558.01 2147.37 5590.71 2075.07 5587.63 2052.06C5587.23 2046.32 5585.66 2040.72 5583.01 2035.62C5580.37 2030.51 5576.7 2026 5572.25 2022.36C5567.79 2018.73 5562.63 2016.05 5557.09 2014.49C5551.56 2012.92 5545.76 2012.51 5540.06 2013.28C5534.36 2014.04 5528.87 2015.97 5523.95 2018.94C5519.02 2021.91 5514.76 2025.86 5511.42 2030.54C5508.08 2035.22 5505.73 2040.54 5504.53 2046.17C5503.33 2051.79 5503.29 2057.6 5504.43 2063.24H5504.27Z" fill="black"/>
<path d="M5505.72 2223.86C5505.72 2223.86 5524.76 2027.32 5638.22 1922.79C5686.16 1879.26 5718.65 1821.35 5730.82 1757.76C5736.39 1727.53 5739.17 1696.86 5739.11 1666.12" stroke="#535461" stroke-width="2" stroke-miterlimit="10"/>
<path d="M5810.48 1599.82C5801.79 1621.39 5737.63 1668.09 5737.63 1668.09C5737.63 1668.09 5723.79 1589.9 5732.48 1568.34C5734.55 1563.22 5737.6 1558.55 5741.47 1554.61C5745.33 1550.67 5749.94 1547.53 5755.02 1545.37C5760.1 1543.21 5765.56 1542.07 5771.08 1542.02C5776.6 1541.97 5782.07 1543 5787.2 1545.06C5792.32 1547.13 5796.98 1550.18 5800.92 1554.04C5804.86 1557.91 5808 1562.51 5810.17 1567.59C5812.33 1572.67 5813.47 1578.13 5813.52 1583.64C5813.57 1589.16 5812.54 1594.64 5810.48 1599.76V1599.82Z" fill="#FF5722"/>
<path d="M5826.84 1745.04C5807.86 1758.41 5728.6 1762.76 5728.6 1762.76C5728.6 1762.76 5759.42 1689.65 5778.46 1676.31C5782.97 1673.14 5788.07 1670.88 5793.46 1669.67C5798.84 1668.47 5804.41 1668.33 5809.85 1669.28C5815.29 1670.22 5820.49 1672.23 5825.15 1675.18C5829.81 1678.14 5833.85 1681.98 5837.02 1686.49C5840.2 1691.01 5842.46 1696.1 5843.66 1701.49C5844.87 1706.87 5845.01 1712.44 5844.06 1717.88C5843.11 1723.31 5841.11 1728.51 5838.15 1733.17C5835.2 1737.83 5831.35 1741.87 5826.84 1745.04Z" fill="#FF5722"/>
<path d="M5741.85 1947.72C5718.71 1949.66 5648.11 1913.43 5648.11 1913.43C5648.11 1913.43 5711.68 1865.89 5734.83 1863.95C5740.33 1863.49 5745.87 1864.12 5751.12 1865.8C5756.38 1867.48 5761.26 1870.17 5765.48 1873.74C5769.69 1877.3 5773.17 1881.66 5775.7 1886.56C5778.23 1891.47 5779.77 1896.82 5780.23 1902.32C5780.69 1907.82 5780.07 1913.36 5778.39 1918.62C5776.71 1923.87 5774.01 1928.75 5770.44 1932.97C5766.88 1937.18 5762.52 1940.65 5757.62 1943.18C5752.71 1945.71 5747.35 1947.25 5741.85 1947.72Z" fill="#FF5722"/>
<path d="M5643.03 2086.56C5620.57 2092.41 5544.82 2068.6 5544.82 2068.6C5544.82 2068.6 5599.46 2011.02 5621.86 2005.2C5627.2 2003.81 5632.77 2003.49 5638.24 2004.26C5643.7 2005.02 5648.97 2006.86 5653.72 2009.65C5658.48 2012.45 5662.64 2016.16 5665.97 2020.56C5669.29 2024.97 5671.72 2029.99 5673.11 2035.33C5674.49 2040.67 5674.81 2046.23 5674.05 2051.7C5673.28 2057.16 5671.45 2062.43 5668.65 2067.18C5665.85 2071.94 5662.14 2076.1 5657.74 2079.42C5653.33 2082.75 5648.31 2085.17 5642.97 2086.56H5643.03Z" fill="#FF5722"/>
<path d="M5645.03 1733.95C5654.43 1755.18 5720.13 1799.69 5720.13 1799.69C5720.13 1799.69 5731.31 1721.14 5721.91 1699.91C5717.42 1689.7 5709.05 1681.69 5698.65 1677.64C5688.25 1673.6 5676.66 1673.85 5666.45 1678.35C5656.23 1682.84 5648.22 1691.21 5644.18 1701.61C5640.13 1712 5640.38 1723.58 5644.88 1733.8L5645.03 1733.95Z" fill="#FF5722"/>
<path d="M5531.51 1897.96C5546.92 1915.4 5622.85 1938.26 5622.85 1938.26C5622.85 1938.26 5610 1859.95 5594.68 1842.48C5587.33 1834.11 5576.94 1829 5565.82 1828.27C5554.7 1827.55 5543.74 1831.28 5535.36 1838.63C5526.99 1845.98 5521.88 1856.36 5521.15 1867.48C5520.43 1878.61 5524.16 1889.56 5531.51 1897.93V1897.96Z" fill="#FF5722"/>
<path d="M5443.01 2072.2C5455.34 2091.98 5526.21 2127.35 5526.21 2127.35C5526.21 2127.35 5526.98 2047.99 5514.66 2028.21C5508.7 2018.97 5499.36 2012.42 5488.64 2009.98C5477.91 2007.53 5466.66 2009.39 5457.29 2015.14C5447.91 2020.89 5441.17 2030.09 5438.49 2040.76C5435.82 2051.42 5437.43 2062.71 5442.98 2072.2H5443.01Z" fill="#FF5722"/>
<path d="M3404.97 3018.94C3404.97 3018.94 3284.79 2870.05 3292.34 2720.64C3295.93 2658.01 3279.11 2595.9 3244.39 2543.63C3227.71 2518.95 3208.81 2495.85 3187.91 2474.62" stroke="#535461" stroke-width="2" stroke-miterlimit="10"/>
<path d="M3192.13 2380.45C3200.76 2401.24 3188.16 2477.12 3188.16 2477.12C3188.16 2477.12 3125.54 2432.45 3116.91 2411.66C3112.78 2401.68 3112.78 2390.46 3116.91 2380.48C3121.05 2370.5 3128.98 2362.57 3138.96 2358.44C3148.94 2354.3 3160.16 2354.3 3170.14 2358.44C3180.13 2362.57 3188.06 2370.5 3192.19 2380.48L3192.13 2380.45Z" fill="#FF5722"/>
<path d="M3302.17 2469.82C3298.1 2491.94 3246.24 2548.71 3246.24 2548.71C3246.24 2548.71 3217.86 2477.12 3222.05 2455.06C3222.96 2449.74 3224.91 2444.66 3227.8 2440.1C3230.69 2435.54 3234.45 2431.6 3238.88 2428.51C3243.3 2425.42 3248.29 2423.24 3253.56 2422.1C3258.84 2420.95 3264.29 2420.87 3269.59 2421.84C3274.9 2422.82 3279.96 2424.84 3284.48 2427.79C3289 2430.74 3292.89 2434.56 3295.92 2439.02C3298.95 2443.48 3301.06 2448.5 3302.13 2453.79C3303.21 2459.08 3303.22 2464.53 3302.17 2469.82Z" fill="#FF5722"/>
<path d="M3380.87 2667.65C3366.17 2684.72 3292.71 2707.55 3292.71 2707.55C3292.71 2707.55 3304.42 2631.55 3319.12 2614.48C3326.31 2606.81 3336.19 2602.22 3346.69 2601.66C3357.19 2601.1 3367.5 2604.63 3375.46 2611.5C3383.42 2618.37 3388.42 2628.05 3389.4 2638.51C3390.39 2648.98 3387.29 2659.42 3380.75 2667.65H3380.87Z" fill="#FF5722"/>
<path d="M3406.75 2830.77C3395.17 2850.06 3326.64 2884.99 3326.64 2884.99C3326.64 2884.99 3325.31 2807.98 3336.93 2788.82C3342.56 2779.69 3351.56 2773.16 3361.98 2770.62C3372.4 2768.09 3383.39 2769.77 3392.58 2775.29C3401.77 2780.81 3408.42 2789.74 3411.07 2800.12C3413.72 2810.51 3412.17 2821.52 3406.75 2830.77Z" fill="#FF5722"/>
<path d="M3168.74 2585.49C3189.67 2593.78 3265.35 2580.01 3265.35 2580.01C3265.35 2580.01 3219.74 2518.09 3198.85 2509.77C3188.88 2506.12 3177.87 2506.5 3168.17 2510.83C3158.47 2515.17 3150.85 2523.11 3146.93 2532.98C3143 2542.85 3143.09 2553.86 3147.16 2563.67C3151.24 2573.48 3158.98 2581.31 3168.74 2585.49Z" fill="#FF5722"/>
<path d="M3201.47 2775.94C3223.9 2777.6 3292 2741.84 3292 2741.84C3292 2741.84 3229.94 2696.37 3207.51 2694.7C3202.17 2694.3 3196.81 2694.95 3191.73 2696.62C3186.64 2698.28 3181.94 2700.94 3177.88 2704.42C3173.82 2707.91 3170.48 2712.16 3168.07 2716.93C3165.65 2721.7 3164.2 2726.91 3163.8 2732.24C3163.39 2737.57 3164.04 2742.94 3165.71 2748.02C3167.38 2753.1 3170.03 2757.81 3173.52 2761.86C3177.01 2765.92 3181.26 2769.25 3186.03 2771.67C3190.81 2774.08 3196.01 2775.53 3201.34 2775.94H3201.47Z" fill="#FF5722"/>
<path d="M3258.66 2956.55C3280.48 2962.01 3353.66 2938.07 3353.66 2938.07C3353.66 2938.07 3300.17 2882.96 3278.35 2877.6C3267.87 2874.99 3256.77 2876.65 3247.51 2882.22C3238.25 2887.78 3231.58 2896.8 3228.97 2907.28C3226.36 2917.76 3228.02 2928.85 3233.59 2938.11C3239.16 2947.37 3248.17 2954.04 3258.66 2956.65V2956.55Z" fill="#FF5722"/>
<path d="M5408.5 1828.87H5405.91C5409.98 1824.24 5412.07 1819.62 5411.74 1815.53L5388.32 1792.11L5397.25 1772.09H5367.15L5372.72 1756.47H5354.88L5157.49 1822.21C5157.49 1822.21 5157.27 1824.95 5157.49 1828.87H5030.38V2401.4H5582.45V1828.87H5408.5Z" fill="url(#paint0_linear)"/>
<path d="M5578.23 1830.87H5034.47V2395.36H5578.23V1830.87Z" fill="#F6F7F9"/>
<path opacity="0.1" d="M5406.99 1830.87C5381.23 1868.79 5209.16 1918.73 5209.16 1918.73L5210.24 1879.2H5178.41C5179.28 1875.4 5178.89 1871.41 5177.3 1867.84C5175.71 1864.28 5173.01 1861.32 5169.59 1859.42C5160.35 1854.34 5159.46 1837.86 5159.58 1830.87H5406.99Z" fill="black"/>
<path d="M5354.14 1759.49L5159.73 1824.18C5159.73 1824.18 5157.52 1849.44 5169.6 1856.01C5173 1857.91 5175.7 1860.87 5177.29 1864.43C5178.88 1867.99 5179.27 1871.98 5178.41 1875.78H5210.24L5209.16 1915.31C5209.16 1915.31 5413.46 1856.01 5410.16 1817.59L5387.11 1794.52L5395.9 1774.74H5366.22L5371.74 1759.34L5354.14 1759.49Z" fill="#9D9CB5"/>
<g opacity="0.35">
<path opacity="0.2" d="M5477.71 2013.86H5134.99V2023.47H5477.71V2013.86Z" fill="#FF5722"/>
</g>
<g opacity="0.35">
<path opacity="0.2" d="M5477.71 2064.53H5134.99V2074.14H5477.71V2064.53Z" fill="#FF5722"/>
</g>
<g opacity="0.35">
<path opacity="0.2" d="M5477.71 2115.18H5134.99V2124.79H5477.71V2115.18Z" fill="#FF5722"/>
</g>
<g opacity="0.35">
<path opacity="0.2" d="M5477.71 2165.82H5134.99V2175.43H5477.71V2165.82Z" fill="#FF5722"/>
</g>
<g opacity="0.35">
<path opacity="0.2" d="M5477.71 2216.47H5134.99V2226.08H5477.71V2216.47Z" fill="#FF5722"/>
</g>
<g opacity="0.35">
<path opacity="0.2" d="M5477.71 2267.14H5134.99V2276.76H5477.71V2267.14Z" fill="#FF5722"/>
</g>
<path d="M3566.16 1782.47H3564.87C3574.6 1757.52 3583.6 1733.18 3583.2 1728.53C3582.34 1719.29 3563.82 1739.37 3562.95 1734.35C3562.09 1729.33 3562.95 1710.29 3554.54 1710.29C3546.13 1710.29 3541.05 1720.18 3536.05 1720.18C3531.06 1720.18 3510.75 1716.85 3510.75 1716.85L3484.9 1782.47H3290.15V2393.94H3773.45V1782.47H3566.16Z" fill="url(#paint1_linear)"/>
<path d="M3767.93 1785.86H3295.58V2389.85H3767.93V1785.86Z" fill="#F6F7F9"/>
<path opacity="0.1" d="M3565.39 1785.86C3555.44 1811.71 3544.22 1838.94 3541.66 1845.44C3536.7 1857.76 3533.43 1851.2 3527.64 1849.57C3521.85 1847.93 3514.48 1851.2 3511.19 1849.57C3507.89 1847.93 3488.54 1849.57 3488.54 1849.57C3488.75 1846.54 3488.75 1843.5 3488.54 1840.48C3488.11 1837.21 3465.86 1840.48 3465.86 1840.48L3487.06 1785.86H3565.39Z" fill="black"/>
<path d="M3511.19 1721.07L3465.86 1837.21C3465.86 1837.21 3488.11 1833.92 3488.51 1837.21C3488.74 1840.23 3488.74 1843.26 3488.51 1846.27C3488.51 1846.27 3507.89 1844.61 3511.19 1846.27C3514.48 1847.93 3521.88 1844.61 3527.64 1846.27C3533.4 1847.93 3536.7 1854.5 3541.66 1842.14C3546.62 1829.79 3582.86 1741.65 3582.03 1732.6C3581.2 1723.54 3563.08 1743.32 3562.25 1738.36C3561.41 1733.4 3562.25 1714.6 3554.02 1714.6C3545.79 1714.6 3540.83 1724.37 3535.9 1724.37C3530.97 1724.37 3511.19 1721.07 3511.19 1721.07Z" fill="#9D9CB5"/>
<g opacity="0.35">
<path opacity="0.2" d="M3703.13 1946.17H3360.41V1955.79H3703.13V1946.17Z" fill="#FF5722"/>
</g>
<g opacity="0.35">
<path opacity="0.2" d="M3703.13 1982.43H3360.41V1992.05H3703.13V1982.43Z" fill="#FF5722"/>
</g>
<g opacity="0.35">
<path opacity="0.2" d="M3703.13 2018.66H3360.41V2028.27H3703.13V2018.66Z" fill="#FF5722"/>
</g>
<g opacity="0.35">
<path opacity="0.2" d="M3703.13 2054.92H3360.41V2064.53H3703.13V2054.92Z" fill="#FF5722"/>
</g>
<g opacity="0.35">
<path opacity="0.2" d="M3703.13 2091.15H3360.41V2100.76H3703.13V2091.15Z" fill="#FF5722"/>
</g>
<g opacity="0.35">
<path opacity="0.2" d="M3703.13 2127.38H3360.41V2136.99H3703.13V2127.38Z" fill="#FF5722"/>
</g>
<path d="M5348.63 2686.6H5347.33C5359.29 2655.79 5370.32 2625.7 5369.8 2620.06C5368.78 2608.75 5346.04 2633.43 5345.15 2627.27C5344.25 2621.11 5345.15 2597.57 5334.82 2597.57C5324.5 2597.57 5318.31 2609.89 5312.11 2609.89C5305.92 2609.89 5281.11 2605.77 5281.11 2605.77L5249.25 2686.6H5010.59V3441.01H5602.94V2686.6H5348.63Z" fill="url(#paint2_linear)"/>
<path d="M5597.36 2691.84H5015.34V3436.11H5597.36V2691.84Z" fill="#F6F7F9"/>
<path opacity="0.1" d="M5347.49 2691.84C5335.35 2723.44 5321.73 2756.53 5318.55 2764.48C5312.39 2779.7 5308.41 2771.56 5301.3 2769.56C5294.18 2767.56 5285.06 2771.56 5280.99 2769.56C5276.92 2767.56 5253.07 2769.56 5253.07 2769.56C5253.34 2765.84 5253.34 2762.1 5253.07 2758.38C5252.55 2754.34 5225.15 2758.38 5225.15 2758.38L5251.13 2691.84H5347.49Z" fill="black"/>
<path d="M5280.99 2611.99L5225.15 2755.08C5225.15 2755.08 5252.55 2751.02 5253.07 2755.08C5253.34 2758.8 5253.34 2762.52 5253.07 2766.23C5253.07 2766.23 5276.92 2764.23 5280.99 2766.23C5285.06 2768.24 5294.18 2764.23 5301.3 2766.23C5308.41 2768.24 5312.45 2776.4 5318.55 2761.18C5324.65 2745.96 5369.3 2637.34 5368.29 2626.19C5367.27 2615.04 5344.93 2639.38 5343.91 2633.31C5342.89 2627.24 5343.91 2604.01 5333.77 2604.01C5323.64 2604.01 5317.53 2616.05 5311.43 2616.05C5305.33 2616.05 5280.99 2611.99 5280.99 2611.99Z" fill="#9D9CB5"/>
<g opacity="0.35">
<path opacity="0.2" d="M5477.71 2899.81H5134.99V2924.24H5477.71V2899.81Z" fill="#FF5722"/>
</g>
<g opacity="0.35">
<path opacity="0.2" d="M5477.71 3058.49H5134.99V3082.92H5477.71V3058.49Z" fill="#FF5722"/>
</g>
<g opacity="0.35">
<path opacity="0.2" d="M5477.71 3217.21H5134.99V3241.63H5477.71V3217.21Z" fill="#FF5722"/>
</g>
<path d="M3665.29 2712.39V2621.29H3537.38V2712.39H3270.31V3430.11H3897.6V2712.39H3665.29Z" fill="url(#paint3_linear)"/>
<path d="M3890.98 2716.02H3276.93V3425.42H3890.98V2716.02Z" fill="#F6F7F9"/>
<path opacity="0.1" d="M3663.59 2716.02H3538.36V2812.66H3663.59V2716.02Z" fill="black"/>
<path d="M3663.59 2625.97H3538.36V2809.36H3663.59V2625.97Z" fill="#9D9CB5"/>
<g opacity="0.35">
<path opacity="0.2" d="M3755.3 2887.61H3412.58V2912.04H3755.3V2887.61Z" fill="#FF5722"/>
</g>
<g opacity="0.35">
<path opacity="0.2" d="M3755.3 2936.19H3412.58V2960.62H3755.3V2936.19Z" fill="#FF5722"/>
</g>
<g opacity="0.35">
<path opacity="0.2" d="M3755.3 2984.8H3412.58V3009.23H3755.3V2984.8Z" fill="#FF5722"/>
</g>
<g opacity="0.35">
<path opacity="0.2" d="M3755.3 3033.39H3412.58V3057.81H3755.3V3033.39Z" fill="#FF5722"/>
</g>
<g opacity="0.35">
<path opacity="0.2" d="M3755.33 3087.48H3663.59V3161.6H3755.33V3087.48Z" fill="#FF5722"/>
</g>
<g opacity="0.35">
<path opacity="0.2" d="M3504.32 3179.16H3412.58V3253.28H3504.32V3179.16Z" fill="#FF5722"/>
</g>
<path d="M4546.25 2711.25H4545.39C4555.37 2672.21 4562.89 2641.13 4562.89 2641.13L4520.3 2661.15C4520.3 2661.15 4490.07 2621.11 4478.89 2627.79C4467.7 2634.48 4443.14 2651.14 4443.14 2651.14L4410.54 2634.45L4398.06 2711.25H4140.61V3265.42L4157.15 3275.31C4170.8 3270.41 4193.27 3262.09 4193.27 3262.09L4182.94 3290.74L4189.91 3294.87L4201.65 3284.24L4205.99 3304.54L4219.95 3312.89L4241.99 3298.87L4235.82 3322.47L4256.5 3334.79L4316.62 3312.21L4298.5 3359.9L4310.42 3367.05L4337.63 3362.27C4337.63 3362.27 4336.4 3371.79 4335.63 3382.11L4362.93 3398.44C4374.12 3394.09 4384.66 3389.81 4384.66 3389.81C4384.66 3389.81 4383.58 3400.23 4383.09 3410.45L4401.39 3421.42C4415.84 3412.98 4434.24 3401.49 4434.24 3401.49L4418.83 3430.14H4766.73V2711.25H4546.25Z" fill="url(#paint4_linear)"/>
<path d="M4759.88 2716.02V3425.42H4418.67L4433.9 3397.18C4433.9 3397.18 4415.87 3408.48 4401.7 3416.83L4383.76 3405.99C4384.25 3395.91 4385.33 3385.62 4385.33 3385.62C4385.33 3385.62 4374.98 3389.84 4364.01 3394.13L4337.23 3378.01C4338 3367.85 4339.17 3358.45 4339.17 3358.45L4312.52 3363.17L4300.84 3356.11L4318.59 3309.04L4259.64 3331.34L4239.33 3319.02L4245.25 3295.73L4223.68 3309.56L4210 3301.34L4205.75 3281.31L4194.22 3291.85L4187.38 3287.75L4197.52 3259.5C4197.52 3259.5 4175.49 3267.7 4162.08 3272.53L4145.87 3262.8V2716.02H4759.88Z" fill="#F6F7F9"/>
<g opacity="0.35">
<path opacity="0.2" d="M4624.21 2936.19H4281.49V2960.62H4624.21V2936.19Z" fill="#FF5722"/>
</g>
<g opacity="0.35">
<path opacity="0.2" d="M4624.21 3009.23H4281.49V3033.66H4624.21V3009.23Z" fill="#FF5722"/>
</g>
<g opacity="0.35">
<path opacity="0.2" d="M4624.21 3082.24H4281.49V3106.67H4624.21V3082.24Z" fill="#FF5722"/>
</g>
<g opacity="0.35">
<path opacity="0.2" d="M4350.14 3155.29H4281.49V3179.71H4350.14V3155.29Z" fill="#FF5722"/>
</g>
<path opacity="0.1" d="M4543.63 2716.02C4526.93 2781.88 4502.58 2873.13 4496.24 2871.53C4486.38 2868.85 4470.97 2849.97 4470.97 2849.97C4470.97 2849.97 4434.73 2884.01 4417.17 2866.45C4399.6 2848.89 4375.41 2860.93 4375.41 2860.93L4398.83 2715.99L4543.63 2716.02Z" fill="black"/>
<path d="M4410.57 2640.39L4375.41 2857.82C4375.41 2857.82 4399.57 2845.75 4417.14 2863.34C4434.7 2880.93 4470.97 2846.79 4470.97 2846.79C4470.97 2846.79 4486.38 2865.65 4496.24 2868.36C4506.1 2871.07 4559.96 2646.98 4559.96 2646.98L4518.21 2666.76C4518.21 2666.76 4488.56 2627.21 4477.56 2633.8C4466.56 2640.39 4442.53 2656.87 4442.53 2656.87L4410.57 2640.39Z" fill="#9D9CB5"/>
<path d="M4697.76 1691.75V1670.89H4370.76C4355.75 1670.89 4364.93 1691.75 4364.93 1691.75H4187.26V2156.73H4967.17V1691.56L4697.76 1691.75Z" fill="url(#paint5_linear)"/>
<path d="M4962.49 1693.97H4192.19V2153.56H4962.49V1693.97Z" fill="#F6F7F9"/>
<path opacity="0.1" d="M4696.41 1768.92H4390.76C4390.76 1768.92 4387.46 1733.49 4398.18 1726.93C4408.91 1720.37 4367.68 1697.26 4367.68 1697.26C4367.22 1696.18 4366.82 1695.08 4366.47 1693.97H4696.41V1704.69C4696.41 1704.69 4738.44 1741.75 4696.41 1768.92Z" fill="black"/>
<path d="M4373.44 1673.39H4696.41V1701.39C4696.41 1701.39 4738.44 1738.36 4696.41 1765.62H4390.76C4390.76 1765.62 4387.46 1730.19 4398.18 1723.63C4408.91 1717.07 4367.68 1693.96 4367.68 1693.96C4367.68 1693.96 4358.62 1673.39 4373.44 1673.39Z" fill="#9D9CB5"/>
<g opacity="0.35">
<path opacity="0.2" d="M4867.92 1838.11H4286.82V1847.72H4867.92V1838.11Z" fill="#FF5722"/>
</g>
<g opacity="0.35">
<path opacity="0.2" d="M4633.95 1874.34H4286.82V1883.95H4633.95V1874.34Z" fill="#FF5722"/>
</g>
<g opacity="0.35">
<path opacity="0.2" d="M4867.92 1910.59H4286.82V1920.21H4867.92V1910.59Z" fill="#FF5722"/>
</g>
<g opacity="0.35">
<path opacity="0.2" d="M4867.92 1946.82H4286.82V1956.43H4867.92V1946.82Z" fill="#FF5722"/>
</g>
<g opacity="0.35">
<path opacity="0.2" d="M4867.92 1983.05H4286.82V1992.66H4867.92V1983.05Z" fill="#FF5722"/>
</g>
<path d="M5106.95 3814.94C5101.43 3791.46 5098.04 3770.88 5098.04 3770.88C5098.04 3770.88 5099.31 3745.35 5087.84 3726.18V3719.81V3672.64C5091.09 3664.1 5095.07 3655.86 5099.74 3648C5108.24 3633.15 5099.74 3578.81 5099.74 3578.81C5099.74 3578.81 5068.24 3502.19 5075.92 3453.61C5083.59 3405.03 5011.21 3237.82 5011.21 3237.82C5011.65 3221.68 5013.94 3205.65 5018.02 3190.03C5018.77 3186.75 5019.08 3183.39 5018.94 3180.02C5018.94 3179.62 5018.94 3179.22 5018.94 3178.79V3179.19C5017.86 3147.15 4992.53 3087.08 4992.53 3087.08L4995.92 2972.57C4995.92 2972.57 5012.1 2905.05 4985.72 2814.45C4976.48 2782.81 4970.59 2757.52 4966.86 2737.99C4966.43 2735.77 4966.03 2733.64 4965.66 2731.61C5019.99 2723.32 5061.46 2716.42 5061.46 2716.42C5061.46 2716.42 5029.94 2584.57 5008.68 2561.53C4987.42 2538.48 4970.38 2466.03 4970.38 2466.03C4970.38 2466.03 4959.28 2372.96 4977.19 2345.88C4995.09 2318.81 4997.59 2271.73 4997.59 2271.73C4997.59 2271.73 5038.45 2242.1 5043.56 2228.91C5048.68 2215.73 5057.18 2186.09 5057.18 2170.38C5057.18 2154.67 5052.07 2140.72 5053.79 2132.49C5055.52 2124.27 5041.87 2092.97 5048.68 2078.12C5050.45 2073.56 5051.37 2068.71 5051.39 2063.82C5051.41 2063.68 5051.41 2063.54 5051.39 2063.39C5051.39 2063.39 5051.39 2063.39 5051.39 2063.24C5051.43 2050.27 5050.23 2037.32 5047.78 2024.58C5047.78 2024.58 5029.29 2008.28 5007.39 2003.01L5006.49 1999.47L5004.18 1990.23C5002.88 1989.35 5001.53 1988.55 5000.14 1987.82V1984.47L4999.77 1971.1L5006.18 1941C5018.73 1888.63 4948.93 1880.9 4948.93 1880.9C4944.75 1872.83 4937.7 1866.61 4929.18 1863.46C4915.13 1858.5 4926.84 1942.14 4933.4 1947.47C4938.36 1951.5 4953.61 1977.72 4960.95 1990.6L4962.15 1992.72C4961.04 1993.76 4960.01 1994.88 4959.07 1996.08L4961.72 2014.23L4962.12 2017C4957.5 2022.76 4953.75 2029.16 4950.99 2036.01C4950.99 2036.01 4963.78 2049.99 4961.23 2065.64C4958.67 2081.29 4965.14 2100.79 4965.45 2101.87C4964.68 2101.01 4955.71 2091.27 4946.74 2093.64C4937.78 2096.02 4912.85 2103.53 4912.85 2103.53C4912.85 2103.53 4894.11 2106.83 4895.84 2110.96C4897.56 2115.09 4883.05 2133.2 4883.05 2133.2L4832.73 2085.51C4832.24 2084.09 4831.74 2082.68 4831.28 2081.2C4829.18 2074.39 4827.72 2067.39 4826.9 2060.31C4832.38 2059 4837.76 2057.3 4842.99 2055.2C4848.28 2053.39 4853.06 2050.34 4856.92 2046.29C4861.97 2040.13 4863.08 2032.09 4865.02 2024.73C4869 2010.07 4877.56 1997.01 4883.7 1983.11C4894.05 1959.64 4897.54 1933.72 4893.74 1908.35C4892.95 1900.54 4890.3 1893.04 4886.01 1886.47C4877.81 1875.17 4862.9 1870.58 4852.11 1861.55C4841.33 1852.52 4834.3 1838.78 4821.67 1832.01C4810.26 1825.85 4796.34 1826.62 4783.49 1828.71C4758.3 1832.86 4734.11 1841.65 4712.15 1854.65C4704.82 1858.99 4696.74 1863.89 4688.3 1862.47C4681.09 1861.18 4675.79 1855.39 4671.14 1849.87C4671.19 1849.63 4671.27 1849.4 4671.35 1849.17L4670.8 1848.52C4665.47 1860.35 4662.8 1873.2 4662.97 1886.16C4662.97 1888.17 4662.97 1890.17 4663.22 1892.33C4663.22 1893.03 4663.22 1893.74 4663.22 1894.45C4663.26 1895.03 4663.26 1895.6 4663.22 1896.18C4663.22 1897.07 4663.09 1897.96 4662.85 1898.83C4661.78 1901.4 4660.17 1903.73 4658.13 1905.63C4656.6 1907.36 4655.22 1909.23 4654.03 1911.21C4654.25 1910.53 4654.47 1909.85 4654.71 1909.18C4651.5 1913.85 4649.69 1919.34 4649.5 1925.01C4649.23 1929.15 4650.59 1933.23 4653.29 1936.38C4655.8 1938.84 4658.55 1941.05 4661.49 1942.97C4658.02 1962.3 4660.56 1982.22 4668.77 2000.06C4676.98 2017.89 4690.47 2032.78 4707.41 2042.72C4707.99 2044.14 4708.55 2045.59 4709.13 2047.03C4715.54 2063.98 4720.38 2083.69 4718.38 2101.9C4718.19 2103.26 4718.01 2104.58 4717.76 2105.9C4717.11 2106.58 4716.5 2107.29 4715.94 2108C4715.94 2108 4632.74 2108.8 4613.3 2091.09C4593.85 2073.37 4563.99 2134.22 4563.99 2134.22C4563.99 2134.22 4534.2 2140.01 4528.25 2134.22C4522.3 2128.42 4487.39 2133.41 4487.39 2133.41C4487.39 2133.41 4466.1 2112.81 4435.47 2114.47C4423.83 2105.63 4411 2098.49 4397.35 2093.27L4396.39 2092.94C4390.4 2090.77 4384 2089.96 4377.66 2090.56C4377.66 2090.56 4336.8 2056.68 4324.9 2038.69C4313.01 2020.7 4256.22 1953.35 4255.97 1953.04L4255.76 1949.96L4255.11 1940.17C4253.43 1940.43 4251.73 1940.58 4250.02 1940.6L4248.88 1937.21C4245.62 1927.65 4241.58 1918.38 4236.81 1909.48C4236.81 1909.48 4236.81 1897.16 4240.41 1894.08C4244.02 1891 4238.93 1845.69 4238.93 1845.69C4238.93 1845.69 4202.11 1759.61 4169.14 1823.87C4169.14 1823.87 4106.8 1865.43 4159.12 1913.83C4159.12 1913.83 4179.98 1923.96 4182.94 1931.97C4184.88 1937.18 4191.97 1951.69 4196.75 1961.36C4197.55 1962.96 4198.26 1964.44 4198.87 1965.68L4198.29 1966.17L4199.06 1974.24L4199.37 1977.32C4189.51 1982.93 4182.82 1988.44 4184.45 1992.72C4187.36 1999.86 4189.36 2007.33 4190.4 2014.97C4190.4 2014.97 4262.75 2105.57 4272.12 2144.35C4272.12 2144.35 4466.25 2259.66 4530.04 2267.91L4518.97 2325.55C4518.97 2325.55 4515.55 2360.15 4516.42 2372.5C4517.28 2384.85 4508.74 2440.89 4508.74 2440.89C4508.74 2440.89 4497.68 2523.24 4488.31 2534.76C4478.95 2546.28 4480.67 2595.72 4480.67 2595.72C4478.42 2619.39 4474.14 2642.81 4467.88 2665.74C4458.64 2697.04 4465.36 2735.74 4465.36 2735.74C4465.36 2735.74 4433 2809.89 4510.47 2759.64C4510.47 2759.64 4548.49 2757.27 4592.28 2755.79C4592.28 2757.21 4592.28 2758.66 4592.28 2760.13C4592.28 2765.77 4592.1 2771.87 4592.04 2778.31C4591.45 2820.76 4591.2 2879.26 4593.11 2923.53C4596.5 3001.78 4620.35 3156.64 4620.35 3156.64V3234.43C4618.82 3241.74 4618.06 3249.2 4618.1 3256.67C4617.58 3284.09 4624.86 3311.1 4639.09 3334.55L4644.36 3385.9C4644.36 3385.9 4658.35 3420.09 4658.63 3440.52C4658.56 3442.19 4658.35 3443.85 4658.01 3445.48C4657.49 3448.1 4657.26 3450.76 4657.33 3453.43C4656.53 3476.99 4670.74 3533.34 4670.74 3533.34C4670.74 3533.34 4671.6 3590.18 4679.98 3593.47C4687.25 3596.28 4670.27 3626.22 4665.19 3634.81C4665.19 3634.26 4664.97 3633.74 4664.88 3633.18C4664.23 3634.29 4663.83 3634.91 4663.83 3634.91C4662.08 3639.49 4661.19 3644.36 4661.18 3649.26C4660.7 3653.15 4661.33 3657.09 4663 3660.62C4664.67 3664.16 4667.31 3667.16 4670.61 3669.26C4686.79 3679.14 4695.48 3687.37 4681.77 3690.82C4676.72 3691.59 4671.71 3692.62 4666.76 3693.9C4666.51 3693.25 4666.27 3692.61 4666.05 3691.99C4664.14 3692.78 4662.54 3694.19 4661.53 3696C4660.51 3697.8 4660.13 3699.89 4660.44 3701.94C4660.07 3706.1 4661.46 3712.17 4665.53 3721.23C4679.15 3751.69 4688.58 3763.24 4688.58 3763.24L4695.11 3762.51C4694.11 3764.98 4692.84 3767.34 4691.32 3769.53C4688.83 3773.1 4685.53 3776.03 4681.68 3778.06C4678.13 3780.2 4674.17 3781.56 4670.06 3782.04C4665.44 3782.19 4660.9 3783.32 4656.74 3785.34C4652.59 3787.36 4648.9 3790.23 4645.93 3793.77C4637.46 3804.74 4632.13 3819.71 4649.01 3832.84L4709.9 3853.85C4709.9 3853.85 4814.67 3867.43 4809.03 3843.96C4803.39 3820.48 4800.13 3799.9 4800.13 3799.9C4800.13 3799.9 4801.3 3776.98 4791.62 3758.25C4790.54 3756.11 4789.3 3754.05 4787.92 3752.09L4791.62 3751.66C4791.62 3751.66 4799.26 3699.78 4809.49 3690.05C4811.84 3687.77 4812.36 3686.01 4811.81 3684.69C4812.88 3681.85 4810.2 3680.19 4806.78 3679.27L4806.04 3681.3C4802.7 3680.57 4799.29 3680.19 4795.87 3680.16C4795.87 3680.16 4792.45 3652.99 4803.52 3643.19C4804.42 3642.07 4805.07 3640.77 4805.45 3639.38C4805.82 3638 4805.89 3636.54 4805.67 3635.12C4805.77 3631.4 4805.38 3627.69 4804.53 3624.06C4804.53 3624.25 4804.29 3624.49 4804.13 3624.68C4798.55 3600.03 4779.7 3560.82 4779.7 3560.82C4779.7 3560.82 4778.83 3536.17 4785.64 3526.25C4792.45 3516.33 4784.81 3391.97 4784.81 3391.97C4784.81 3391.97 4787.37 3331.87 4779.7 3303.86C4772.02 3275.86 4788.94 3242.9 4788.94 3242.9C4788.94 3242.9 4788.94 3242.25 4788.76 3241.11L4788.97 3240.68C4788.97 3240.68 4788.6 3236.98 4787.99 3231.22C4787.9 3231.4 4787.83 3231.59 4787.77 3231.78C4786.08 3215.88 4782.81 3187.05 4780.44 3173.71C4777.02 3154.76 4781.27 3064.16 4781.27 3064.16L4796.68 3025.47L4823.92 3092.16L4852.88 3181.13C4852.88 3181.13 4867.21 3199.92 4867.55 3218.96C4867.55 3219.89 4867.55 3220.81 4867.36 3221.73C4867.13 3223.71 4867.02 3225.69 4867.02 3227.68C4866.52 3238.91 4869.6 3250.02 4875.84 3259.38C4875.84 3259.38 4883.51 3301.37 4895.44 3312.09C4907.36 3322.81 4907.33 3343.39 4907.33 3343.39C4907.33 3343.39 4921.81 3404.32 4928.62 3415.04C4934.35 3424.07 4934.79 3448.93 4934.6 3456.48C4934.6 3457.89 4934.6 3458.7 4934.6 3458.7C4934.6 3458.7 4936.6 3480.48 4936.54 3498.74C4936.54 3500.99 4936.54 3503.18 4936.33 3505.24V3504.78C4936.31 3509.77 4935.72 3514.74 4934.57 3519.6C4934.47 3519.87 4934.39 3520.15 4934.32 3520.43C4934.32 3519.41 4934.32 3518.37 4934.57 3517.35C4931.6 3529.79 4930.18 3542.55 4930.32 3555.33C4929.92 3577.24 4933.4 3603.21 4946.53 3618.42C4969.51 3644.8 4984 3641.5 4984 3641.5C4984 3641.5 4972.9 3674.43 4959.35 3681.02C4958.83 3681.28 4958.35 3681.59 4957.9 3681.95C4957.9 3681.3 4957.65 3680.68 4957.56 3680.04C4954.72 3682.5 4953.58 3686.94 4953.58 3692.36C4952.6 3706.84 4961.72 3730.37 4970.44 3741.19C4973.66 3744.34 4977.61 3746.65 4981.93 3747.9C4981.24 3748.38 4980.52 3748.82 4979.78 3749.23C4978.26 3750.06 4976.7 3750.79 4975.09 3751.42C4972.89 3752.39 4970.55 3753 4968.16 3753.23C4963.54 3753.34 4958.99 3754.43 4954.82 3756.42C4950.65 3758.42 4946.95 3761.28 4943.97 3764.82C4935.49 3775.75 4930.16 3790.72 4947.05 3803.85L5007.94 3824.86C5007.94 3824.86 5112.52 3838.41 5106.95 3814.94Z" fill="url(#paint6_linear)"/>
<path d="M5084.42 3647.94C5079.9 3655.82 5076.05 3664.06 5072.9 3672.58V3737.71C5056.41 3764.88 4970.72 3755.82 4959.19 3741C4947.67 3726.19 4935.31 3687.46 4948.47 3680.87C4961.63 3674.28 4972.32 3641.34 4972.32 3641.34C4972.32 3641.34 4958.3 3644.64 4936.05 3618.27C4913.8 3591.9 4920.4 3533.43 4924.56 3519.44C4928.72 3505.46 4924.56 3458.48 4924.56 3458.48C4924.56 3458.48 4925.39 3425.55 4918.8 3414.83C4912.2 3404.11 4898.37 3343.17 4898.37 3343.17C4898.37 3343.17 4898.37 3322.59 4886.81 3311.87C4875.25 3301.15 4867.86 3259.16 4867.86 3259.16C4861.12 3248.67 4858.21 3236.16 4859.63 3223.77C4862.1 3203.16 4845.61 3180.92 4845.61 3180.92L4817.6 3091.98L4791.25 3025.25L4776.43 3063.98C4776.43 3063.98 4772.3 3154.58 4775.6 3173.52C4778.9 3192.47 4783.83 3242.71 4783.83 3242.71C4783.83 3242.71 4767.37 3275.65 4774.77 3303.65C4782.16 3331.65 4779.73 3391.78 4779.73 3391.78C4779.73 3391.78 4787.12 3516.15 4780.53 3526.04C4773.94 3535.93 4774.77 3560.63 4774.77 3560.63C4774.77 3560.63 4808.66 3633.09 4797.85 3642.98C4787.03 3652.87 4790.42 3679.95 4790.42 3679.95C4790.42 3679.95 4813.5 3679.94 4803.61 3689.83C4793.72 3699.72 4786.29 3751.45 4786.29 3751.45L4686.7 3763C4686.7 3763 4677.46 3751.45 4664.39 3720.98C4651.32 3690.51 4666.86 3693.81 4680.11 3690.51C4693.36 3687.22 4684.97 3678.99 4669.32 3668.95C4653.67 3658.9 4662.73 3636.82 4662.73 3636.82C4662.73 3636.82 4686.61 3596.46 4678.38 3593.16C4670.15 3589.87 4669.32 3533.03 4669.32 3533.03C4669.32 3533.03 4652.83 3465.5 4656.99 3447.39C4661.15 3429.28 4643.65 3385.9 4643.65 3385.9L4637.89 3333.99C4608.22 3282.95 4619.77 3236 4619.77 3236V3156.21C4619.77 3156.21 4596.69 3001.38 4593.39 2923.13C4591.3 2873.01 4591.88 2804.62 4592.56 2761.95C4592.96 2738.02 4593.39 2722.15 4593.39 2722.15L4949.3 2685.18C4949.3 2685.18 4948.93 2701.6 4955.77 2738.05C4959.38 2757.58 4965.02 2782.87 4974.02 2814.51C4999.56 2905.11 4983.91 2972.64 4983.91 2972.64L4980.61 3087.08C4980.61 3087.08 5011.92 3163.7 5005.26 3190.03C5001.31 3205.67 4999.1 3221.69 4998.67 3237.82C4998.67 3237.82 5068.77 3404.97 5061.34 3453.67C5053.92 3502.38 5084.42 3578.87 5084.42 3578.87C5084.42 3578.87 5092.65 3633.09 5084.42 3647.94Z" fill="#575988"/>
<path opacity="0.05" d="M4880.92 3218.81L4989.27 3204.39C4989.27 3204.39 4927.88 3266.99 4880.92 3218.81Z" fill="black"/>
<path opacity="0.1" d="M4973.61 3098.57C4973.61 3098.57 4977.31 3136.86 4953.83 3151.28C4953.83 3151.28 4995.86 3144.69 4973.61 3098.57Z" fill="black"/>
<path opacity="0.1" d="M4966.96 2976.67C4966.96 2976.67 4876.39 3051.19 4843.45 3045.03C4810.51 3038.87 4966.96 2976.67 4966.96 2976.67Z" fill="black"/>
<path opacity="0.1" d="M4746.63 3253.83C4746.63 3253.83 4677.86 3269.45 4675.76 3296.96C4673.67 3324.47 4746.63 3253.83 4746.63 3253.83Z" fill="black"/>
<path opacity="0.05" d="M4761.76 3597.26C4761.76 3597.26 4664.54 3615.41 4692.15 3627.76C4719.76 3640.11 4765.06 3649.97 4765.06 3649.97C4765.06 3649.97 4796.37 3651.63 4761.76 3597.26Z" fill="black"/>
<g opacity="0.05">
<path opacity="0.05" d="M4782.78 3231.01C4779.18 3240.74 4776.97 3250.94 4776.21 3261.29C4778.07 3254.14 4780.59 3247.18 4783.73 3240.5C4783.73 3240.5 4783.36 3236.77 4782.78 3231.01Z" fill="black"/>
<path opacity="0.05" d="M5005.35 3187.76C5006.03 3184.81 5006.33 3181.78 5006.25 3178.76C5005.05 3184.92 5004.18 3190.62 5003.57 3195.61C5004.09 3193.05 5004.68 3190.44 5005.35 3187.76Z" fill="black"/>
<path opacity="0.05" d="M4780.44 3523.82C4781.79 3521.79 4782.53 3515.01 4782.9 3505.52C4779.82 3511.53 4778.56 3521.23 4778.16 3528.63C4778.72 3526.94 4779.49 3525.33 4780.44 3523.82Z" fill="black"/>
<path opacity="0.05" d="M4669.23 3531.21C4669.23 3531.21 4670.06 3588.05 4678.29 3591.35C4682.45 3581.95 4685.22 3572.86 4681.37 3571.54C4673.14 3568.27 4672.31 3511.44 4672.31 3511.44C4672.31 3511.44 4655.82 3443.88 4659.98 3425.76C4664.14 3407.65 4646.79 3364 4646.79 3364L4641.03 3312.12C4611.36 3261.04 4622.91 3214.09 4622.91 3214.09V3134.24C4622.91 3134.24 4599.83 2979.38 4596.54 2901.13C4594.44 2851.04 4595.03 2782.65 4595.7 2739.99C4595.7 2732.26 4595.98 2725.42 4596.1 2719.66L4593.24 2719.93C4593.24 2719.93 4592.81 2735.8 4592.41 2759.73C4591.73 2802.4 4591.14 2870.64 4593.24 2920.91C4596.54 2999.16 4619.62 3153.99 4619.62 3153.99V3233.9C4619.62 3233.9 4608.06 3280.85 4637.74 3331.9L4643.5 3383.81C4643.5 3383.81 4660.78 3427.46 4656.69 3445.42C4652.59 3463.38 4669.23 3531.21 4669.23 3531.21Z" fill="black"/>
<path opacity="0.05" d="M4967.58 3638.91C4970.73 3632.58 4973.44 3626.05 4975.71 3619.35C4975.71 3619.35 4961.69 3622.65 4939.44 3596.31C4923.26 3577.11 4922.34 3540.86 4924.65 3517.23C4920.49 3531.24 4913.93 3589.71 4936.14 3616.05C4950.75 3633.3 4961.69 3637.83 4967.58 3638.91Z" fill="black"/>
<path opacity="0.05" d="M4924.62 3456.26C4926.07 3472.49 4926.61 3488.8 4926.25 3505.09C4926.67 3502.51 4927.24 3499.96 4927.95 3497.45C4932.11 3483.46 4927.95 3436.51 4927.95 3436.51C4927.95 3436.51 4928.78 3403.55 4922.18 3392.86C4915.59 3382.17 4901.45 3321.21 4901.45 3321.21C4901.45 3321.21 4901.45 3300.6 4889.92 3289.91C4878.4 3279.22 4870.97 3237.2 4870.97 3237.2C4864.23 3226.69 4861.32 3214.18 4862.74 3201.77C4865.21 3181.19 4848.72 3158.95 4848.72 3158.95L4820.71 3069.98L4794.37 3003.29L4779.51 3041.98C4779.51 3041.98 4779.3 3046.85 4779.02 3054.49L4791.07 3023.03L4817.41 3089.76L4845.42 3178.7C4845.42 3178.7 4861.91 3200.94 4859.45 3221.55C4858.02 3233.94 4860.93 3246.45 4867.67 3256.95C4867.67 3256.95 4875.1 3298.97 4886.62 3309.66C4898.15 3320.34 4898.36 3340.95 4898.36 3340.95C4898.36 3340.95 4912.38 3401.92 4918.98 3412.61C4925.57 3423.3 4924.62 3456.26 4924.62 3456.26Z" fill="black"/>
</g>
<path d="M4993.89 1941.09L4987.73 1971.16L4988.1 1984.53L4988.34 1994.42L4953.83 1997.81L4949.98 1990.69C4942.86 1977.81 4928.1 1951.6 4923.29 1947.56C4916.95 1942.2 4905.61 1858.59 4919.23 1863.55C4927.53 1866.76 4934.34 1872.93 4938.36 1880.87C4938.36 1880.87 5005.97 1888.72 4993.89 1941.09Z" fill="#FFCDD3"/>
<path opacity="0.1" d="M4988.22 1994.26L4953.83 1997.81L4949.98 1990.69C4954.91 1985.61 4968.99 1974.05 4987.94 1984.53L4988.22 1994.26Z" fill="black"/>
<path d="M4996.97 2010.53L4951.58 2021.19L4950.63 2014.41L4948.07 1996.27C4948.07 1996.27 4965.97 1972.36 4991.95 1990.26L4994.2 1999.5L4996.97 2010.53Z" fill="#DCE6F2"/>
<path d="M4262.6 1944.17L4214.28 1970.17C4214.28 1970.17 4212.43 1966.35 4209.91 1960.93C4205.28 1951.29 4198.44 1936.75 4196.56 1931.54C4193.7 1923.53 4173.48 1913.43 4173.48 1913.43C4122.86 1865.03 4183.19 1823.44 4183.19 1823.44C4215.11 1759.21 4250.74 1845.25 4250.74 1845.25C4250.74 1845.25 4255.67 1890.6 4252.18 1893.65C4248.7 1896.7 4248.7 1909.05 4248.7 1909.05C4253.32 1917.97 4257.22 1927.24 4260.35 1936.78C4261.8 1941.4 4262.6 1944.17 4262.6 1944.17Z" fill="#FFCDD3"/>
<path opacity="0.1" d="M4262.6 1944.17L4214.28 1970.17C4214.28 1970.17 4212.43 1966.35 4209.91 1960.93C4216.72 1955.23 4240.94 1935.61 4248.89 1936.5C4252.69 1936.97 4256.53 1937.07 4260.35 1936.78C4261.8 1941.4 4262.6 1944.17 4262.6 1944.17Z" fill="black"/>
<path d="M4267.56 1958.84L4213.17 1985.64L4212.09 1973.93L4211.2 1965.74C4211.2 1965.74 4242.69 1938.75 4252 1939.8C4256.71 1940.49 4261.49 1940.49 4266.2 1939.8L4266.82 1949.59L4267.56 1958.84Z" fill="#DCE6F2"/>
<path d="M4861.97 2140.69C4861.97 2140.69 4624.89 2167.42 4669.2 2153.01C4700.01 2142.96 4712.34 2123.34 4714.87 2101.59C4716.96 2083.39 4712.28 2063.7 4706.05 2046.76C4700.45 2031.8 4693.35 2017.46 4684.85 2003.94C4684.85 2003.94 4866.1 1904.25 4829.68 1994.69C4824.09 2008.4 4820.63 2022.89 4819.42 2037.64C4818.31 2052.29 4819.89 2067.02 4824.07 2081.11C4830.94 2104.09 4844.06 2124.72 4861.97 2140.69Z" fill="#FFCDD3"/>
<path opacity="0.1" d="M4829.83 1994.88C4824.25 2008.59 4820.79 2023.07 4819.57 2037.82C4802.5 2052.15 4783.76 2051.22 4759.73 2051.22C4741.24 2051.22 4720.81 2055.69 4706.05 2046.79C4700.45 2031.83 4693.35 2017.49 4684.85 2003.97C4684.85 2003.97 4866.1 1904.28 4829.83 1994.88Z" fill="black"/>
<path d="M4756.52 2057.51C4810.68 2057.51 4854.58 2013.62 4854.58 1959.48C4854.58 1905.35 4810.68 1861.46 4756.52 1861.46C4702.37 1861.46 4658.47 1905.35 4658.47 1959.48C4658.47 2013.62 4702.37 2057.51 4756.52 2057.51Z" fill="#FFCDD3"/>
<path opacity="0.1" d="M4861.97 2140.69C4861.97 2140.69 4624.89 2167.42 4669.2 2153.01C4700.01 2142.96 4712.34 2123.34 4714.87 2101.59C4726.67 2088.84 4750.39 2079.6 4765.62 2074.7C4779.58 2070 4794.65 2069.75 4808.76 2073.99C4814.29 2075.64 4819.55 2078.09 4824.38 2081.26C4831.18 2104.16 4844.2 2124.73 4861.97 2140.69Z" fill="black"/>
<path opacity="0.1" d="M4996.97 2010.53L4951.58 2021.19L4950.63 2014.41C4963.41 1998.08 4979.53 1996.11 4994.2 1999.53L4996.97 2010.53Z" fill="black"/>
<path opacity="0.1" d="M4267.56 1958.84L4213.17 1985.64L4212.09 1973.93C4231.54 1962.47 4264.11 1950.67 4266.94 1949.66L4267.56 1958.84Z" fill="black"/>
<path opacity="0.1" d="M4955.77 2737.95C4863.94 2752.43 4733.26 2771.32 4712.52 2765C4695.33 2759.77 4640.38 2760.32 4592.56 2761.92C4592.96 2737.99 4593.39 2722.12 4593.39 2722.12L4949.3 2685.15C4949.3 2685.15 4948.93 2701.51 4955.77 2737.95Z" fill="black"/>
<path d="M5047.35 2716.39C5047.35 2716.39 4745 2768.3 4712.52 2758.41C4680.04 2748.52 4513.49 2759.24 4513.49 2759.24C4438.52 2809.46 4469.83 2735.34 4469.83 2735.34C4469.83 2735.34 4463.23 2696.64 4472.29 2665.34C4478.33 2642.39 4482.46 2618.96 4484.62 2595.32C4484.62 2595.32 4482.98 2546.03 4492.04 2534.39C4501.1 2522.74 4511.8 2440.49 4511.8 2440.49C4511.8 2440.49 4520.05 2384.48 4519.22 2372.13C4518.39 2359.78 4521.69 2325.18 4521.69 2325.18L4532.44 2267.64C4470.81 2259.41 4282.84 2144.1 4282.84 2144.1C4273.78 2105.38 4203.74 2014.72 4203.74 2014.72C4202.72 2007.1 4200.79 1999.63 4197.98 1992.48C4193.02 1979.29 4267.19 1952.95 4267.19 1952.95C4267.19 1952.95 4322.38 2020.48 4333.9 2038.59C4345.43 2056.71 4384.99 2090.5 4384.99 2090.5C4391.14 2089.87 4397.34 2090.68 4403.11 2092.87C4403.45 2092.87 4403.73 2093.06 4404.07 2093.15C4404.41 2093.24 4404.07 2093.15 4404.07 2093.15C4422.56 2099.59 4441.05 2114.31 4441.05 2114.31C4470.72 2112.68 4491.3 2133.26 4491.3 2133.26C4491.3 2133.26 4525.2 2128.33 4530.84 2134.09C4536.48 2139.85 4565.44 2134.09 4565.44 2134.09C4565.44 2134.09 4594.29 2073.13 4613.24 2090.96C4632.19 2108.8 4712.58 2107.85 4712.58 2107.85C4723.31 2093.61 4749.38 2083.42 4765.68 2078.15C4779.64 2073.45 4794.71 2073.2 4808.82 2077.44C4814.9 2079.17 4820.63 2081.94 4825.77 2085.63L4874.55 2133.38C4874.55 2133.38 4888.57 2115.27 4886.87 2111.14C4885.18 2107.01 4903.36 2103.75 4903.36 2103.75C4903.36 2103.75 4927.24 2096.32 4936.3 2093.86C4945.36 2091.39 4953.68 2101.19 4954.42 2102.05C4954.11 2101.01 4947.91 2081.07 4950.32 2065.86C4952.72 2050.64 4940.43 2036.19 4940.43 2036.19C4969.27 1965.34 5034.35 2024.67 5034.35 2024.67C5034.35 2024.67 5041.78 2063.39 5035.18 2078.21C5028.59 2093.03 5041.78 2124.42 5040.11 2132.55C5038.45 2140.68 5043.41 2154.79 5043.41 2170.44C5043.41 2186.09 5035.18 2215.76 5030.22 2228.98C5025.26 2242.19 4985.57 2271.64 4985.57 2271.64C4985.57 2271.64 4983.07 2318.59 4965.79 2345.76C4948.5 2372.93 4959.19 2465.91 4959.19 2465.91C4959.19 2465.91 4975.68 2538.39 4996.17 2561.4C5016.66 2584.42 5047.35 2716.39 5047.35 2716.39Z" fill="#656691"/>
<path opacity="0.1" d="M4606.58 2174.45C4606.58 2174.45 4597.52 2147.28 4589.29 2144.78C4581.09 2141.77 4573.1 2138.2 4565.38 2134.09L4570.68 2123.96C4570.68 2123.96 4601.65 2132.43 4606.58 2141.49C4611.51 2150.54 4606.58 2174.45 4606.58 2174.45Z" fill="black"/>
<path opacity="0.1" d="M4440.98 2114.31C4439.35 2122.57 4366.01 2129.96 4366.01 2129.96L4402.99 2092.81L4403.91 2093.12C4422.65 2099.59 4440.98 2114.31 4440.98 2114.31Z" fill="black"/>
<path d="M4228.83 2007.85C4232.47 2007.85 4235.42 2004.9 4235.42 2001.26C4235.42 1997.62 4232.47 1994.66 4228.83 1994.66C4225.18 1994.66 4222.23 1997.62 4222.23 2001.26C4222.23 2004.9 4225.18 2007.85 4228.83 2007.85Z" fill="#575988"/>
<path d="M4237.27 2021.03C4240.91 2021.03 4243.86 2018.08 4243.86 2014.44C4243.86 2010.8 4240.91 2007.85 4237.27 2007.85C4233.63 2007.85 4230.67 2010.8 4230.67 2014.44C4230.67 2018.08 4233.63 2021.03 4237.27 2021.03Z" fill="#575988"/>
<path d="M4245.53 2033.2C4249.17 2033.2 4252.12 2030.25 4252.12 2026.61C4252.12 2022.97 4249.17 2020.02 4245.53 2020.02C4241.89 2020.02 4238.93 2022.97 4238.93 2026.61C4238.93 2030.25 4241.89 2033.2 4245.53 2033.2Z" fill="#575988"/>
<path d="M4254.15 2046.36C4257.8 2046.36 4260.75 2043.41 4260.75 2039.76C4260.75 2036.12 4257.8 2033.17 4254.15 2033.17C4250.51 2033.17 4247.56 2036.12 4247.56 2039.76C4247.56 2043.41 4250.51 2046.36 4254.15 2046.36Z" fill="#575988"/>
<path d="M5030.75 2044.42C5033.71 2044.42 5036.11 2042.02 5036.11 2039.06C5036.11 2036.09 5033.71 2033.7 5030.75 2033.7C5027.79 2033.7 5025.38 2036.09 5025.38 2039.06C5025.38 2042.02 5027.79 2044.42 5030.75 2044.42Z" fill="#575988"/>
<path d="M5031.58 2056.55C5034.54 2056.55 5036.94 2054.15 5036.94 2051.19C5036.94 2048.23 5034.54 2045.83 5031.58 2045.83C5028.62 2045.83 5026.21 2048.23 5026.21 2051.19C5026.21 2054.15 5028.62 2056.55 5031.58 2056.55Z" fill="#575988"/>
<path d="M5032.31 2068.72C5035.28 2068.72 5037.68 2066.32 5037.68 2063.36C5037.68 2060.4 5035.28 2058 5032.31 2058C5029.35 2058 5026.95 2060.4 5026.95 2063.36C5026.95 2066.32 5029.35 2068.72 5032.31 2068.72Z" fill="#575988"/>
<path opacity="0.1" d="M4606.98 2397.64C4606.24 2396.68 4791.87 2631.15 4936.11 2495.66C4936.11 2495.6 4708.33 2526.56 4606.98 2397.64Z" fill="black"/>
<path opacity="0.1" d="M4500.3 2519.54C4500.3 2519.54 4611.42 2522.62 4623.07 2554.53V2587.77C4619.91 2589.54 4616.35 2590.47 4612.73 2590.47C4609.11 2590.47 4605.55 2589.54 4602.39 2587.77C4591.17 2581.61 4524 2547.73 4500.3 2564.02V2519.54Z" fill="black"/>
<path d="M4502.37 2519.54C4502.37 2519.54 4608.65 2522.43 4619.77 2552.9V2584.6C4616.75 2586.29 4613.34 2587.18 4609.88 2587.18C4606.42 2587.18 4603.01 2586.29 4599.99 2584.6C4589.3 2578.84 4525.02 2546.31 4502.37 2561.96V2519.54Z" fill="#656691"/>
<path opacity="0.1" d="M4560.97 2278.3C4560.97 2278.3 4573.7 2311.01 4604.12 2352.23C4622.92 2377.45 4645.7 2399.45 4671.57 2417.36C4671.57 2417.36 4562.82 2293.58 4560.97 2278.3Z" fill="black"/>
<path opacity="0.1" d="M4524.62 2149.19C4524.62 2149.19 4543.1 2229.28 4590.93 2256.39L4524.62 2149.19Z" fill="black"/>
<path opacity="0.1" d="M4496.17 2157.29C4495.71 2155.81 4479.72 2220.57 4557.8 2256.39C4557.77 2256.39 4524.62 2245.15 4496.17 2157.29Z" fill="black"/>
<path opacity="0.1" d="M4981.57 2103.63C4980.33 2103.63 5020.08 2128.92 5030.87 2140.59C5030.87 2140.69 5004.92 2101.96 4981.57 2103.63Z" fill="black"/>
<path d="M4730.03 2048.33C4731.41 2053.38 4733.11 2058.93 4737.67 2061.57C4740.55 2062.96 4743.71 2063.67 4746.91 2063.64C4776.8 2065.49 4807.9 2066.72 4835.57 2055.29C4840.72 2053.46 4845.34 2050.39 4849.03 2046.36C4853.93 2040.35 4854.89 2032.19 4856.86 2024.79C4860.74 2010.16 4869 1997.07 4874.98 1983.17C4884.99 1959.62 4888.35 1933.77 4884.68 1908.44C4883.91 1900.66 4881.35 1893.16 4877.2 1886.53C4869.25 1875.23 4854.83 1870.64 4844.32 1861.64C4833.81 1852.65 4827.09 1838.88 4814.86 1832.1C4803.83 1825.94 4790.21 1826.71 4777.88 1828.8C4753.43 1832.97 4730.01 1841.76 4708.86 1854.71C4701.77 1859.09 4693.97 1864.11 4685.78 1862.57C4678.63 1861.21 4673.45 1855.2 4668.83 1849.57C4662.97 1863 4660.45 1877.65 4661.46 1892.26C4661.78 1894.41 4661.71 1896.59 4661.25 1898.7C4660.23 1901.26 4658.68 1903.58 4656.69 1905.48C4649.32 1914.04 4644.7 1927.6 4652 1936.29C4655.09 1940.04 4660.05 1942.11 4663.13 1945.93C4668.67 1952.83 4666.8 1962.72 4666.67 1971.53C4666.34 1974.59 4667.11 1977.67 4668.83 1980.22C4671.6 1983.57 4676.66 1983.85 4680.94 1983.11C4685.22 1982.37 4689.6 1980.92 4693.82 1981.88C4698.42 1983.41 4702.37 1986.45 4705.04 1990.5C4718.84 2007.91 4724.23 2027.35 4730.03 2048.33Z" fill="#2D293D"/>
<g opacity="0.1">
<path opacity="0.1" d="M4852.33 2038.81C4848.64 2042.84 4844.02 2045.91 4838.86 2047.74C4811.13 2059.26 4780.1 2057.94 4750.21 2056.06C4747.01 2056.11 4743.85 2055.42 4740.97 2054.03C4736.44 2051.35 4734.8 2045.83 4733.32 2040.78C4727.53 2019.65 4722.14 2000.36 4708.33 1982.8C4705.67 1978.75 4701.72 1975.71 4697.12 1974.18C4692.9 1973.22 4688.52 1974.67 4684.24 1975.41C4679.95 1976.15 4674.99 1975.87 4672.13 1972.51C4670.4 1969.96 4669.64 1966.89 4669.97 1963.83C4669.97 1955.02 4671.94 1945.1 4666.43 1938.23C4663.34 1934.38 4658.48 1932.34 4655.27 1928.58C4650.71 1923.13 4650.83 1915.77 4653.39 1908.9C4648.15 1917.22 4645.87 1927.91 4652 1935.15C4655.09 1938.94 4660.05 1940.97 4663.13 1944.82C4668.64 1951.69 4666.8 1961.61 4666.67 1970.42C4666.34 1973.48 4667.11 1976.56 4668.83 1979.11C4671.6 1982.46 4676.66 1982.74 4680.94 1982C4685.22 1981.26 4689.6 1979.82 4693.82 1980.77C4698.42 1982.3 4702.37 1985.34 4705.04 1989.4C4718.84 2006.96 4724.23 2026.36 4730.03 2047.37C4731.41 2052.39 4733.11 2057.94 4737.67 2060.62C4740.55 2062.01 4743.72 2062.71 4746.91 2062.65C4776.8 2064.53 4807.9 2065.73 4835.57 2054.34C4840.72 2052.5 4845.34 2049.43 4849.03 2045.4C4850.9 2043.02 4852.34 2040.33 4853.29 2037.45C4852.98 2037.92 4852.67 2038.38 4852.33 2038.81Z" fill="black"/>
<path opacity="0.1" d="M4661.56 1895.99C4662.92 1894.57 4663.97 1892.88 4664.64 1891.03C4665.1 1888.92 4665.17 1886.74 4664.85 1884.59C4664.04 1872.59 4665.6 1860.54 4669.45 1849.14L4668.92 1848.49C4663.07 1861.92 4660.54 1876.57 4661.56 1891.19C4661.71 1892.78 4661.71 1894.39 4661.56 1895.99Z" fill="black"/>
</g>
<path opacity="0.1" d="M4712.52 2107.72C4712.52 2107.72 4835.01 2123.96 4846.01 2105.57L4712.52 2107.72Z" fill="black"/>
<path opacity="0.1" d="M4950.75 2057.08C4950.75 2057.08 5018.79 2057.08 5033.76 2082.65L4950.75 2057.08Z" fill="black"/>
</g>
</g>
<defs>
<linearGradient id="paint0_linear" x1="5306.38" y1="2401.4" x2="5306.38" y2="1756.47" gradientUnits="userSpaceOnUse">
<stop stop-color="#808080" stop-opacity="0.25"/>
<stop offset="0.54" stop-color="#808080" stop-opacity="0.12"/>
<stop offset="1" stop-color="#808080" stop-opacity="0.1"/>
</linearGradient>
<linearGradient id="paint1_linear" x1="134510" y1="271759" x2="134510" y2="120036" gradientUnits="userSpaceOnUse">
<stop stop-color="#808080" stop-opacity="0.25"/>
<stop offset="0.54" stop-color="#808080" stop-opacity="0.12"/>
<stop offset="1" stop-color="#808080" stop-opacity="0.1"/>
</linearGradient>
<linearGradient id="paint2_linear" x1="507050" y1="622434" x2="507050" y2="391466" gradientUnits="userSpaceOnUse">
<stop stop-color="#808080" stop-opacity="0.25"/>
<stop offset="0.54" stop-color="#808080" stop-opacity="0.12"/>
<stop offset="1" stop-color="#808080" stop-opacity="0.1"/>
</linearGradient>
<linearGradient id="paint3_linear" x1="135986" y1="573435" x2="135986" y2="361080" gradientUnits="userSpaceOnUse">
<stop stop-color="#808080" stop-opacity="0.25"/>
<stop offset="0.54" stop-color="#808080" stop-opacity="0.12"/>
<stop offset="1" stop-color="#808080" stop-opacity="0.1"/>
</linearGradient>
<linearGradient id="paint4_linear" x1="361462" y1="589973" x2="361462" y2="380621" gradientUnits="userSpaceOnUse">
<stop stop-color="#808080" stop-opacity="0.25"/>
<stop offset="0.54" stop-color="#808080" stop-opacity="0.12"/>
<stop offset="1" stop-color="#808080" stop-opacity="0.1"/>
</linearGradient>
<linearGradient id="paint5_linear" x1="480545" y1="156189" x2="480545" y2="79546.8" gradientUnits="userSpaceOnUse">
<stop stop-color="#808080" stop-opacity="0.25"/>
<stop offset="0.54" stop-color="#808080" stop-opacity="0.12"/>
<stop offset="1" stop-color="#808080" stop-opacity="0.1"/>
</linearGradient>
<linearGradient id="paint6_linear" x1="610162" y1="1.79236e+06" x2="610162" y2="417663" gradientUnits="userSpaceOnUse">
<stop stop-color="#808080" stop-opacity="0.25"/>
<stop offset="0.54" stop-color="#808080" stop-opacity="0.12"/>
<stop offset="1" stop-color="#808080" stop-opacity="0.1"/>
</linearGradient>
<clipPath id="clip0">
<rect width="1440" height="900" fill="white" transform="scale(4)"/>
</clipPath>
</defs>
</svg>
