<svg width="752" height="680" viewBox="0 0 752 680" fill="none" xmlns="http://www.w3.org/2000/svg">
<rect width="253.512" height="214.845" fill="black" fill-opacity="0" transform="translate(0 -180) scale(4)"/>
<path d="M469.736 505.264C469.736 505.264 566.833 333.304 713.171 283.768C774.639 263.377 827.828 223.596 864.748 170.401C882.085 145.027 897.052 118.112 909.46 89.9973" stroke="#535461" stroke-width="2" stroke-miterlimit="10"/>
<path d="M797.573 348.461C775.633 340.883 725.775 279.147 725.775 279.147C725.775 279.147 803.151 261.434 825.091 269.043C830.307 270.849 835.116 273.665 839.243 277.329C843.371 280.994 846.737 285.435 849.147 290.4C851.558 295.364 852.967 300.755 853.294 306.264C853.62 311.773 852.859 317.292 851.052 322.507C849.245 327.722 846.429 332.529 842.763 336.656C839.098 340.782 834.655 344.147 829.69 346.557C824.724 348.967 819.331 350.375 813.821 350.702C808.31 351.029 802.789 350.267 797.573 348.461Z" fill="#FF5722"/>
<path d="M650.926 435.366C628.031 431.638 568.436 379.268 568.436 379.268C568.436 379.268 641.713 348.77 664.639 352.528C670.085 353.428 675.301 355.392 679.989 358.307C684.677 361.223 688.744 365.033 691.959 369.52C695.174 374.006 697.473 379.082 698.725 384.458C699.978 389.833 700.159 395.402 699.259 400.847C698.358 406.293 696.394 411.507 693.478 416.194C690.562 420.88 686.751 424.946 682.262 428.16C677.774 431.374 672.697 433.673 667.32 434.925C661.944 436.177 656.373 436.358 650.926 435.458V435.366Z" fill="#FF5722"/>
<path d="M625.504 217.627C632.437 239.777 692.68 291.562 692.68 291.562C692.68 291.562 712.678 214.762 705.745 192.613C704.31 187.106 701.771 181.948 698.281 177.451C694.792 172.955 690.426 169.214 685.447 166.455C680.468 163.696 674.98 161.977 669.317 161.403C663.653 160.828 657.932 161.409 652.5 163.112C647.068 164.814 642.039 167.601 637.717 171.305C633.395 175.009 629.871 179.552 627.358 184.658C624.845 189.765 623.396 195.328 623.098 201.012C622.801 206.695 623.661 212.379 625.627 217.72L625.504 217.627Z" fill="#FF5722"/>
<path d="M473.896 341.222C476.977 364.234 527.637 425.353 527.637 425.353C527.637 425.353 560.331 353.051 557.249 330.039C556.853 324.302 555.284 318.707 552.638 313.6C549.993 308.493 546.328 303.983 541.869 300.348C537.411 296.714 532.255 294.032 526.718 292.469C521.182 290.906 515.384 290.495 509.683 291.261C503.982 292.028 498.498 293.955 493.572 296.924C488.645 299.893 484.38 303.841 481.04 308.524C477.7 313.207 475.357 318.524 474.154 324.148C472.952 329.773 472.917 335.583 474.05 341.222H473.896Z" fill="#FF5722"/>
<path opacity="0.25" d="M797.573 348.461C775.633 340.883 725.775 279.147 725.775 279.147C725.775 279.147 803.151 261.434 825.091 269.043C830.307 270.849 835.116 273.665 839.243 277.329C843.371 280.994 846.737 285.435 849.147 290.4C851.558 295.364 852.967 300.755 853.294 306.264C853.62 311.773 852.859 317.292 851.052 322.507C849.245 327.722 846.429 332.529 842.763 336.656C839.098 340.782 834.655 344.147 829.69 346.557C824.724 348.967 819.331 350.375 813.821 350.702C808.31 351.029 802.789 350.267 797.573 348.461Z" fill="black"/>
<path opacity="0.25" d="M650.926 435.366C628.031 431.638 568.436 379.268 568.436 379.268C568.436 379.268 641.713 348.77 664.639 352.528C670.085 353.428 675.301 355.392 679.989 358.307C684.677 361.223 688.744 365.033 691.959 369.52C695.174 374.006 697.473 379.082 698.725 384.458C699.978 389.833 700.159 395.402 699.259 400.847C698.358 406.293 696.394 411.507 693.478 416.194C690.562 420.88 686.751 424.946 682.262 428.16C677.774 431.374 672.697 433.673 667.32 434.925C661.944 436.177 656.373 436.358 650.926 435.458V435.366Z" fill="black"/>
<path opacity="0.25" d="M625.504 217.627C632.437 239.777 692.68 291.562 692.68 291.562C692.68 291.562 712.678 214.762 705.745 192.613C704.31 187.106 701.771 181.948 698.281 177.451C694.792 172.955 690.426 169.214 685.447 166.455C680.468 163.696 674.98 161.977 669.317 161.403C663.653 160.828 657.932 161.409 652.5 163.112C647.068 164.814 642.039 167.601 637.717 171.305C633.395 175.009 629.871 179.552 627.358 184.658C624.845 189.765 623.396 195.328 623.098 201.012C622.801 206.695 623.661 212.379 625.627 217.72L625.504 217.627Z" fill="black"/>
<path opacity="0.25" d="M473.896 341.222C476.977 364.234 527.637 425.353 527.637 425.353C527.637 425.353 560.331 353.051 557.249 330.039C556.853 324.302 555.284 318.707 552.638 313.6C549.993 308.493 546.328 303.983 541.869 300.348C537.411 296.714 532.255 294.032 526.718 292.469C521.182 290.906 515.384 290.495 509.683 291.261C503.982 292.028 498.498 293.955 493.572 296.924C488.645 299.893 484.38 303.841 481.04 308.524C477.7 313.207 475.357 318.524 474.154 324.148C472.952 329.773 472.917 335.583 474.05 341.222H473.896Z" fill="black"/>
<path d="M475.345 501.845C475.345 501.845 494.388 305.301 607.847 200.776C655.78 157.247 688.276 99.3326 700.445 35.7477C706.014 5.51708 708.789 -25.1617 708.734 -55.9006" stroke="#535461" stroke-width="2" stroke-miterlimit="10"/>
<path d="M796.462 23.025C777.481 36.3949 698.226 40.7385 698.226 40.7385C698.226 40.7385 729.04 -32.3644 748.084 -45.7035C752.598 -48.8792 757.693 -51.135 763.079 -52.342C768.465 -53.5491 774.036 -53.6837 779.474 -52.7383C784.912 -51.7929 790.111 -49.7859 794.773 -46.8319C799.436 -43.8779 803.47 -40.0349 806.647 -35.5221C809.823 -31.0093 812.08 -25.9152 813.287 -20.5307C814.494 -15.1461 814.629 -9.57649 813.683 -4.13989C812.738 1.29671 810.73 6.49383 807.775 11.1548C804.821 15.8158 800.976 19.8493 796.462 23.025Z" fill="#FF5722"/>
<path d="M711.477 225.699C688.335 227.639 617.739 191.411 617.739 191.411C617.739 191.411 681.31 143.878 704.451 141.937C709.953 141.476 715.491 142.102 720.75 143.781C726.01 145.459 730.887 148.157 735.103 151.72C739.319 155.283 742.792 159.641 745.323 164.546C747.855 169.451 749.395 174.806 749.857 180.306C750.318 185.806 749.691 191.343 748.012 196.6C746.333 201.858 743.635 206.734 740.071 210.949C736.507 215.164 732.147 218.636 727.241 221.167C722.335 223.698 716.979 225.237 711.477 225.699Z" fill="#FF5722"/>
<path d="M612.656 364.542C590.192 370.395 514.45 346.582 514.45 346.582C514.45 346.582 569.084 289.005 591.487 283.183C596.83 281.797 602.395 281.478 607.862 282.242C613.329 283.006 618.592 284.839 623.35 287.637C628.109 290.435 632.27 294.142 635.595 298.547C638.92 302.952 641.345 307.969 642.731 313.311C644.117 318.653 644.437 324.216 643.673 329.682C642.908 335.148 641.075 340.409 638.276 345.167C635.478 349.924 631.769 354.083 627.363 357.408C622.956 360.732 617.938 363.156 612.595 364.542H612.656Z" fill="#FF5722"/>
<path d="M614.657 11.9347C624.056 33.1601 689.752 77.675 689.752 77.675C689.752 77.675 700.938 -0.880661 691.54 -22.1061C687.045 -32.319 678.676 -40.3285 668.274 -44.3726C657.872 -48.4167 646.289 -48.1641 636.073 -43.6704C625.858 -39.1767 617.846 -30.8101 613.801 -20.411C609.756 -10.0119 610.008 1.56779 614.503 11.7807L614.657 11.9347Z" fill="#FF5722"/>
<path d="M501.137 175.947C516.544 193.383 592.471 216.241 592.471 216.241C592.471 216.241 579.622 137.932 564.307 120.465C556.952 112.09 546.57 106.98 535.446 106.258C524.321 105.535 513.366 109.261 504.989 116.614C496.612 123.967 491.5 134.346 490.778 145.467C490.056 156.589 493.782 167.541 501.137 175.916V175.947Z" fill="#FF5722"/>
<path d="M412.638 350.186C424.964 369.964 495.838 405.329 495.838 405.329C495.838 405.329 496.608 325.973 484.282 306.195C478.327 296.95 468.987 290.405 458.263 287.961C447.539 285.518 436.284 287.372 426.911 293.125C417.537 298.878 410.791 308.073 408.117 318.739C405.444 329.405 407.055 340.694 412.607 350.186H412.638Z" fill="#FF5722"/>
<path d="M378.125 106.849H375.537C379.605 102.228 381.7 97.6067 381.361 93.5095L357.942 70.0968L366.878 50.0728H336.772L342.35 34.4541H324.508L127.11 100.194C127.11 100.194 126.894 102.936 127.11 106.849H0V679.381H552.074V106.849H378.125Z" fill="url(#paint0_linear)"/>
<path d="M547.853 108.851H4.09863V673.343H547.853V108.851Z" fill="#F6F7F9"/>
<path d="M342.569 4.15404L148.16 68.847C148.16 68.847 145.942 94.108 158.021 100.67C161.428 102.574 164.127 105.53 165.715 109.094C167.304 112.659 167.696 116.641 166.834 120.447H198.665L197.587 159.972C197.587 159.972 401.887 100.67 398.59 62.2544L375.541 39.1806L384.323 19.4031H354.649L360.164 4L342.569 4.15404Z" fill="#9D9CB5"/>
<g opacity="0.35">
<rect width="85.6799" height="2.40289" fill="black" fill-opacity="0" transform="translate(104.615 291.839) scale(4)"/>
<path opacity="0.2" d="M447.335 291.839H104.615V301.451H447.335V291.839Z" fill="#FF5722"/>
</g>
<g opacity="0.35">
<rect width="85.6799" height="2.40288" fill="black" fill-opacity="0" transform="translate(104.615 342.515) scale(4)"/>
<path opacity="0.2" d="M447.335 342.515H104.615V352.127H447.335V342.515Z" fill="#FF5722"/>
</g>
<g opacity="0.35">
<rect width="85.6799" height="2.40288" fill="black" fill-opacity="0" transform="translate(104.615 393.161) scale(4)"/>
<path opacity="0.2" d="M447.335 393.161H104.615V402.772H447.335V393.161Z" fill="#FF5722"/>
</g>
<g opacity="0.35">
<rect width="85.6799" height="2.40288" fill="black" fill-opacity="0" transform="translate(104.615 443.806) scale(4)"/>
<path opacity="0.2" d="M447.335 443.806H104.615V453.418H447.335V443.806Z" fill="#FF5722"/>
</g>
<g opacity="0.35">
<rect width="85.6799" height="2.40288" fill="black" fill-opacity="0" transform="translate(104.615 494.451) scale(4)"/>
<path opacity="0.2" d="M447.335 494.451H104.615V504.063H447.335V494.451Z" fill="#FF5722"/>
</g>
<g opacity="0.35">
<rect width="85.6799" height="2.40288" fill="black" fill-opacity="0" transform="translate(104.615 545.127) scale(4)"/>
<path opacity="0.2" d="M447.335 545.127H104.615V554.739H447.335V545.127Z" fill="#FF5722"/>
</g>
<defs>
<linearGradient id="paint0_linear" x1="276.006" y1="679.381" x2="276.006" y2="34.4541" gradientUnits="userSpaceOnUse">
<stop stop-color="#808080" stop-opacity="0.25"/>
<stop offset="0.54" stop-color="#808080" stop-opacity="0.12"/>
<stop offset="1" stop-color="#808080" stop-opacity="0.1"/>
</linearGradient>
</defs>
</svg>
