<svg width="2544" height="504" viewBox="0 0 2544 504" fill="none" xmlns="http://www.w3.org/2000/svg">
<rect width="786.042" height="592.39" fill="black" fill-opacity="0" transform="scale(4)"/>
<rect width="211.028" height="106.697" fill="black" fill-opacity="0" transform="translate(1647.56 32) scale(4)"/>
<path d="M2307.93 32C2307.93 32 2331.44 62.8061 2297.08 109.015C2262.72 155.225 2234.37 194.595 2245.84 223.553C2245.84 223.553 2297.7 137.295 2339.88 136.156C2382.07 135.016 2354.37 83.8159 2307.93 32Z" fill="#FF5722"/>
<path opacity="0.1" d="M2307.93 32C2309.98 34.9711 2311.6 38.2175 2312.74 41.6423C2353.91 90.008 2375.85 135.139 2336.28 136.279C2299.3 137.326 2255.18 203.221 2244.58 219.887C2244.93 221.172 2245.35 222.437 2245.84 223.676C2245.84 223.676 2297.7 137.419 2339.89 136.279C2382.07 135.139 2354.37 83.8159 2307.93 32Z" fill="black"/>
<path d="M1879.98 103.991C1879.98 114.835 1878.75 123.584 1877.27 123.584C1875.79 123.584 1874.56 114.835 1874.56 103.991C1874.56 93.1477 1876.07 98.2922 1877.64 98.2922C1879.21 98.2922 1879.98 93.1785 1879.98 103.991Z" fill="#FFD037"/>
<path d="M1894.95 116.93C1885.46 122.106 1877.17 125.217 1876.47 123.923C1875.76 122.63 1882.87 117.331 1892.37 112.155C1901.86 106.98 1898.13 110.738 1898.84 112.155C1899.55 113.573 1904.48 111.755 1894.95 116.93Z" fill="#FFD037"/>
<path d="M2183.75 32C2183.75 32 2160.24 62.8061 2194.59 109.015C2228.95 155.225 2257.3 194.595 2245.84 223.553C2245.84 223.553 2193.98 137.295 2151.79 136.156C2109.61 135.016 2137.31 83.8159 2183.75 32Z" fill="#FF5722"/>
<path opacity="0.1" d="M2183.75 32C2181.68 34.9622 2180.06 38.2108 2178.94 41.6423C2137.74 90.008 2115.83 135.139 2155.4 136.279C2192.38 137.326 2236.5 203.221 2247.1 219.887C2246.73 221.15 2246.33 222.413 2245.84 223.676C2245.84 223.676 2193.98 137.419 2151.79 136.279C2109.61 135.139 2137.31 83.8159 2183.75 32Z" fill="black"/>
<path d="M1653.34 116.93C1662.86 122.106 1671.15 125.217 1671.83 123.923C1672.51 122.63 1665.42 117.331 1655.93 112.155C1646.44 106.98 1650.16 110.738 1649.46 112.155C1648.75 113.573 1643.85 111.755 1653.34 116.93Z" fill="#FFD037"/>
<path opacity="0.1" d="M2245.84 458.788C2381.61 458.788 2491.68 441.907 2491.68 421.082C2491.68 400.257 2381.61 383.375 2245.84 383.375C2110.07 383.375 2000 400.257 2000 421.082C2000 441.907 2110.07 458.788 2245.84 458.788Z" fill="#FF5722"/>
<path d="M2372.36 182.242L2371.19 191.822L2369.53 205.377L2368.85 211.045L2367.22 224.6L2366.48 230.268L2364.84 243.823L2346.02 397.854C2344.35 411.624 2321.86 422.499 2294.71 422.499H2196.97C2169.82 422.499 2147.35 411.778 2145.66 397.854L2126.83 243.823L2125.17 230.268L2124.49 224.6L2122.83 211.045L2122.12 205.377L2120.48 191.822L2119.28 182.242C2118.36 174.448 2130.53 167.886 2145.88 167.886H2345.8C2361.15 167.886 2373.32 174.448 2372.36 182.242Z" fill="#65617D"/>
<path d="M2371.19 191.822L2369.53 205.377H2122.12L2120.48 191.822H2371.19Z" fill="#9D9CB5"/>
<path d="M2368.85 211.045L2367.18 224.6H2124.49L2122.79 211.045H2368.85Z" fill="#9D9CB5"/>
<path d="M2366.48 230.268L2364.84 243.792H2126.83L2125.17 230.268H2366.48Z" fill="#9D9CB5"/>
<path opacity="0.1" d="M1936.47 324.475C1801.57 438.889 1626.54 431.496 1473.33 371.978C1320.12 312.461 1178.99 206.457 1029.6 131.136C907.322 68.9323 775.604 27.3491 639.767 8.06525C449.364 -18.3356 236.682 13.826 103.994 198.786C-43.7616 404.756 -32.3911 776.247 127.413 965.428C208.702 1061.6 315.136 1108.8 407.98 1183.91C500.824 1259.01 586.704 1383.68 578.816 1528.63C571.513 1662.82 486.372 1765.83 398.366 1830.53C330.296 1880.43 246.481 1934.96 238.13 2038.38C230.18 2138.43 300.653 2216.84 367.983 2261.44C587.506 2406.91 857.934 2405.49 1076.72 2257.78C1154.77 2205.07 1226.48 2134.98 1308.32 2093.89C1523.16 1986.07 1759.94 2094.6 1987.41 2134.31C2179.97 2167.92 2377.43 2150.51 2565.03 2083.38C2677.69 2043.09 2790.78 1981.48 2869.94 1866.69C2927.01 1783.92 2962.57 1679.14 2995.94 1575.7C3031.56 1465.37 3065.79 1354.27 3098.62 1242.41C3118.31 1175.25 3137.72 1106.86 3142.8 1034.96C3152.05 904.74 3113.16 776.186 3060.25 666.146C2934.74 405.033 2723.14 221.583 2494.1 174.973C2265.05 128.363 2022.36 219.395 1844.62 418.557" fill="#FF5722"/>
</svg>
