<svg width="160" height="160" viewBox="0 0 160 160" fill="none" xmlns="http://www.w3.org/2000/svg">
<path d="M9.74703 140.314L9.67784 140.704V152.137H150.314V142.488L150.175 141.037C149.284 132.45 144.683 124.475 137.341 117.725C130.339 111.257 120.8 105.958 109.678 102.445C106.041 105.399 101.855 107.799 97.3232 109.584C91.9697 111.647 86.1362 112.82 80.0259 112.82C73.6432 112.82 67.6022 111.594 62.1103 109.363C57.4443 107.465 53.12 104.844 49.4141 101.668C38.227 104.957 28.6876 110.09 21.7514 116.502C14.6119 123.083 10.2184 131.115 9.73838 139.815V140.314H9.74703ZM80.0303 0C92.9341 0 104.532 5.46357 112.839 14.2193C120.869 22.6975 125.881 34.352 125.881 47.1799C125.881 60.0079 120.869 71.6624 112.839 80.1405C104.532 88.9525 92.9341 94.3634 80.0303 94.3634C67.1265 94.3634 55.4595 88.9525 47.1524 80.1405C39.1222 71.6624 34.1103 60.0079 34.1103 47.1799C34.1103 34.352 39.1222 22.6975 47.1524 14.2193C55.4595 5.46357 67.1265 0 80.0303 0ZM105.219 19.0188C98.6984 12.1604 89.7773 7.86332 80.0303 7.86332C70.2141 7.86332 61.293 12.1569 54.7719 19.0188C47.9784 26.1584 43.7881 36.1404 43.7881 47.1835C43.7881 58.2265 47.9741 68.2085 54.7719 75.3481C61.293 82.2627 70.2141 86.5001 80.0303 86.5001C89.7773 86.5001 98.6984 82.2627 105.219 75.3481C112.013 68.2085 116.203 58.2265 116.203 47.1835C116.203 36.1369 112.017 26.1549 105.219 19.0188ZM0.345946 136.8C1.65189 127.264 6.65946 118.565 14.5557 111.313C23.2043 103.281 35.3514 96.981 49.4227 93.355L52.5103 92.575L54.5686 94.6375C57.933 97.8734 61.9113 100.495 66.374 102.332C70.56 104.005 75.1611 104.953 80.0346 104.953C84.7005 104.953 89.1632 104.061 93.2108 102.501C97.466 100.828 101.379 98.3724 104.744 95.2523L106.871 93.2988L109.959 94.135C123.892 98.0948 135.905 104.507 144.554 112.539C152.242 119.566 157.457 127.876 159.243 136.8H160V140.704V156.096V160H155.126H4.87351H0V156.096V140.704V136.8H0.345946Z" fill="white"/>
</svg>
