<svg width="720" height="1128" viewBox="0 0 720 1128" fill="none" xmlns="http://www.w3.org/2000/svg">
<rect width="180.001" height="282" fill="black" fill-opacity="0" transform="scale(4)"/>
<path d="M342.97 833.451H264.781V1030.19H342.97V833.451Z" fill="#D8D7DA"/>
<path d="M306.679 833.451H264.781V1030.19H306.679V833.451Z" fill="#C6C5CA"/>
<rect width="151.932" height="155.678" fill="black" fill-opacity="0" transform="translate(0 505.287) scale(4)"/>
<path d="M303.867 851.342C136.314 851.342 0 715.504 0 548.538V522.052C0 512.793 7.53233 505.287 16.8245 505.287H100.748V538.818H33.649V548.541C33.649 697.016 154.867 817.811 303.865 817.811C452.862 817.811 574.08 697.016 574.08 548.541V538.818H506.329V505.287H590.905C600.197 505.287 607.729 512.793 607.729 522.052V548.541C607.733 715.504 471.42 851.342 303.867 851.342Z" fill="#676775"/>
<path d="M71.2344 1115.19V1014.32C71.2344 998.492 84.1125 985.661 99.9974 985.661H507.74C523.628 985.661 536.503 998.494 536.503 1014.32V1115.19C536.503 1122.26 530.749 1128 523.65 1128H84.086C76.987 1128 71.2344 1122.27 71.2344 1115.19Z" fill="#676775"/>
<path d="M188.763 985.658H99.9974C99.8846 985.658 99.7763 985.674 99.6636 985.676C83.9577 985.856 71.2344 998.628 71.2344 1014.32V1115.19C71.2344 1122.26 76.9892 1128 84.0882 1128H160.002V1014.32C160 998.518 172.902 985.658 188.763 985.658Z" fill="#4C4C59"/>
<path d="M294.189 738.574C247.932 738.574 203.591 721.453 169.332 690.365C135.309 659.494 114.065 617.518 109.513 572.165L107.539 552.502H500.198L498.223 572.165C493.669 617.518 472.425 659.497 438.405 690.365C404.148 721.451 359.805 738.574 313.547 738.574H294.189Z" fill="#FFD278"/>
<path d="M184.276 552.5H112.424C109.808 552.5 107.765 554.751 108.024 557.344L109.512 572.165C109.749 574.502 110.049 576.829 110.379 579.146C110.525 580.197 110.684 581.246 110.847 582.292C110.995 583.218 111.159 584.141 111.323 585.064C111.827 587.985 112.399 590.889 113.043 593.773C113.043 593.775 113.043 593.775 113.043 593.775V593.777C121.289 630.743 140.793 664.467 169.331 690.362C203.588 721.448 247.93 738.571 294.188 738.571H313.546C313.643 738.571 313.738 738.571 313.836 738.571C318.832 738.562 319.909 731.481 315.142 729.985C289.749 722.012 266.172 708.604 246.071 690.364C230.889 676.588 218.263 660.594 208.529 643.077C196.232 620.944 212.077 593.775 237.464 593.775H491.107C493.197 593.775 495.023 592.321 495.438 590.281C496.659 584.315 497.607 578.272 498.222 572.16L499.71 557.34C499.971 554.747 497.926 552.495 495.31 552.495H184.276V552.5Z" fill="#FFBF4D"/>
<path d="M302.747 658.569C287.684 658.569 275.43 646.357 275.43 631.347C275.43 616.337 287.684 604.125 302.747 604.125C317.809 604.125 330.064 616.337 330.064 631.347C330.064 646.357 317.809 658.569 302.747 658.569Z" fill="#FF3F62"/>
<path d="M108.586 516.194V372.136C108.586 264.833 196.188 177.537 303.867 177.537C411.546 177.537 499.149 264.833 499.149 372.136V516.194H108.586Z" fill="#ABAAB0"/>
<path d="M300.186 177.567C299.428 177.58 298.667 177.6 297.907 177.622C193.723 180.757 108.586 271.021 108.586 374.89V516.088C108.586 516.146 108.632 516.194 108.692 516.194H185.22C185.278 516.194 185.326 516.148 185.326 516.088V372.136C185.326 292.059 234.117 223.128 303.631 193.306C311.884 189.759 309.171 177.402 300.186 177.567Z" fill="#929296"/>
<path d="M104.029 554.736C85.9439 554.736 71.2285 540.074 71.2285 522.05C71.2285 504.029 85.9417 489.365 104.029 489.365H503.704C521.789 489.365 536.504 504.027 536.504 522.05C536.504 540.072 521.791 554.736 503.704 554.736H104.029Z" fill="#FF9750"/>
<path d="M147.971 522.053C147.971 504.031 162.684 489.367 180.771 489.367H104.032C85.9478 489.367 71.2324 504.029 71.2324 522.053C71.2324 540.074 85.9455 554.738 104.032 554.738H180.771C162.684 554.736 147.971 540.074 147.971 522.053Z" fill="#F97923"/>
<rect width="75.8107" height="75.5463" fill="black" fill-opacity="0" transform="translate(416.76) scale(4)"/>
<path d="M602.709 302.185C593.417 302.185 585.885 294.679 585.885 285.419C585.885 201.733 517.563 133.65 433.584 133.65C424.292 133.65 416.76 126.144 416.76 116.884C416.76 107.625 424.292 100.119 433.584 100.119C536.119 100.119 619.534 183.245 619.534 285.419C619.534 294.677 612.001 302.185 602.709 302.185Z" fill="#4C4C59"/>
<path d="M703.178 302.185C693.886 302.185 686.354 294.679 686.354 285.419C686.354 146.528 572.962 33.5338 433.586 33.5338C424.294 33.5338 416.762 26.0277 416.762 16.768C416.762 7.50825 424.294 0 433.586 0C591.518 0 720.003 128.037 720.003 285.417C720.005 294.677 712.47 302.185 703.178 302.185Z" fill="#4C4C59"/>
<rect width="58.4398" height="48.3156" fill="black" fill-opacity="0" transform="translate(213.662 265.493) scale(4)"/>
<path d="M381.403 301.196L358.039 324.479C355.187 327.321 350.566 327.321 347.714 324.479L324.35 301.196C321.498 298.354 321.498 293.749 324.35 290.907L347.714 267.625C350.566 264.783 355.187 264.783 358.039 267.625L381.403 290.907C384.253 293.749 384.253 298.354 381.403 301.196Z" fill="#929296"/>
<path d="M445.284 364.855L421.92 388.138C419.068 390.98 414.447 390.98 411.595 388.138L388.231 364.855C385.379 362.013 385.379 357.409 388.231 354.567L411.595 331.284C414.447 328.442 419.068 328.442 421.92 331.284L445.284 354.567C448.134 357.409 448.134 362.013 445.284 364.855Z" fill="#929296"/>
<path d="M376.561 433.341L353.197 456.624C350.345 459.466 345.724 459.466 342.872 456.624L319.508 433.341C316.656 430.499 316.656 425.895 319.508 423.053L342.872 399.77C345.724 396.928 350.345 396.928 353.197 399.77L376.561 423.053C379.413 425.893 379.413 430.499 376.561 433.341Z" fill="#929296"/>
<path d="M271.428 343.646L249.861 365.137C246.514 368.473 241.089 368.473 237.739 365.137L216.173 343.646C212.825 340.31 212.825 334.904 216.173 331.566L237.739 310.074C241.086 306.739 246.512 306.739 249.861 310.074L271.428 331.566C274.775 334.899 274.775 340.31 271.428 343.646Z" fill="#929296"/>
</svg>
