<svg width="200" height="184" viewBox="0 0 200 184" fill="none" xmlns="http://www.w3.org/2000/svg">
<rect width="18.54" height="48.6062" fill="black" fill-opacity="0" transform="translate(0 56.9697) scale(4) rotate(-50.1927)"/>
<path d="M162.793 144.37L162.133 142.581L162.084 142.54L161.474 140.792L160.255 142.255L159.036 143.717L162.793 144.37ZM2.88861 53.5036L44.5917 3.46291C46.1769 1.56084 49.0388 1.30074 50.9408 2.88589L150.048 85.4803C150.73 86.0488 151.21 86.8601 151.464 87.6493L162.56 117.97L170.51 139.471L170.559 139.512L172.709 145.36L173.805 148.507L173.854 148.548C174.099 149.247 174.172 150.053 174.065 150.875C173.652 153.258 171.326 154.955 168.894 154.5L150.205 151.24C150.025 151.256 149.801 151.231 149.612 151.157L136.745 148.947L104.959 143.452C104.276 143.377 103.578 143.128 102.911 142.734C102.813 142.652 102.718 142.573 102.669 142.532L102.62 142.491L102.57 142.45L102.521 142.409L3.46306 59.8558C1.56355 58.2676 1.30346 55.4057 2.88861 53.5036ZM48.621 12.611L12.6106 55.8208L104.841 132.684L122.846 111.079L140.851 89.4743L48.621 12.611ZM157.89 131.109L154.225 121.031L145.616 97.7405L129.723 116.81L113.831 135.88L138.291 140.15L148.865 141.938L153.378 136.524L157.89 131.109Z" fill="white"/>
</svg>
