<svg width="120" height="160" viewBox="0 0 120 160" fill="none" xmlns="http://www.w3.org/2000/svg">
<rect width="30" height="40" fill="black" fill-opacity="0" transform="scale(4)"/>
<path d="M4.48691 0H81.5806C82.8426 0 83.9813 0.575438 84.8014 1.40439L118.611 35.641C119.494 36.4055 120 37.5564 120 38.836V155.529C120 157.956 117.978 160 115.513 160H4.48691C2.02249 160 0 157.956 0 155.529V4.5351C0 2.04421 2.02249 0 4.48691 0ZM86.0675 15.392V34.3613H104.772L86.0675 15.392ZM77.0937 9.00581H8.97382V150.994H111.09V43.3711H81.5806C79.1162 43.3711 77.0937 41.3269 77.0937 38.836V9.00581Z" fill="white"/>
</svg>
