<svg width="864" height="712" viewBox="0 0 864 712" fill="none" xmlns="http://www.w3.org/2000/svg">
<path d="M469.736 537.264C469.736 537.264 566.833 365.304 713.171 315.768C774.639 295.377 827.828 255.596 864.748 202.401C882.085 177.027 897.052 150.112 909.46 121.997" stroke="#535461" stroke-width="2" stroke-miterlimit="10"/>
<path d="M957.407 229.511C934.635 234.039 860.402 205.913 860.402 205.913C860.402 205.913 918.272 151.602 941.044 147.074C946.458 146 952.031 146.002 957.445 147.081C962.858 148.16 968.006 150.295 972.594 153.363C977.182 156.431 981.121 160.372 984.186 164.962C987.25 169.552 989.381 174.7 990.455 180.113C991.529 185.526 991.527 191.098 990.448 196.51C989.368 201.921 987.233 207.068 984.164 211.655C981.095 216.242 977.153 220.18 972.562 223.243C967.971 226.307 962.821 228.437 957.407 229.511Z" fill="#FF5722"/>
<path d="M797.573 380.461C775.633 372.883 725.775 311.147 725.775 311.147C725.775 311.147 803.151 293.434 825.091 301.043C830.307 302.849 835.116 305.665 839.243 309.329C843.371 312.994 846.737 317.435 849.147 322.4C851.558 327.364 852.967 332.755 853.294 338.264C853.62 343.773 852.859 349.292 851.052 354.507C849.245 359.722 846.429 364.529 842.763 368.656C839.098 372.782 834.655 376.147 829.69 378.557C824.724 380.967 819.331 382.375 813.821 382.702C808.31 383.029 802.789 382.267 797.573 380.461Z" fill="#FF5722"/>
<path d="M650.926 467.366C628.031 463.638 568.436 411.268 568.436 411.268C568.436 411.268 641.713 380.77 664.639 384.528C670.085 385.428 675.301 387.392 679.989 390.307C684.677 393.223 688.744 397.033 691.959 401.52C695.174 406.006 697.473 411.082 698.725 416.458C699.978 421.833 700.159 427.402 699.259 432.847C698.358 438.293 696.394 443.507 693.478 448.194C690.562 452.88 686.751 456.946 682.262 460.16C677.774 463.374 672.697 465.673 667.32 466.925C661.944 468.177 656.373 468.358 650.926 467.458V467.366Z" fill="#FF5722"/>
<path d="M795.695 145.811C795.695 169.039 837.695 236.35 837.695 236.35C837.695 236.35 879.788 169.069 879.788 145.842C879.94 140.226 878.965 134.636 876.921 129.403C874.876 124.171 871.803 119.4 867.883 115.374C863.964 111.349 859.277 108.149 854.1 105.964C848.923 103.779 843.361 102.653 837.741 102.653C832.122 102.653 826.56 103.779 821.382 105.964C816.205 108.149 811.519 111.349 807.6 115.374C803.68 119.4 800.607 124.171 798.563 129.403C796.518 134.636 795.543 140.226 795.695 145.842V145.811Z" fill="#FF5722"/>
<path d="M625.504 249.627C632.437 271.777 692.68 323.562 692.68 323.562C692.68 323.562 712.678 246.762 705.745 224.613C704.31 219.106 701.771 213.948 698.281 209.451C694.792 204.955 690.426 201.214 685.447 198.455C680.468 195.696 674.98 193.977 669.317 193.403C663.653 192.828 657.932 193.409 652.5 195.112C647.068 196.814 642.039 199.601 637.717 203.305C633.395 207.009 629.871 211.552 627.358 216.658C624.845 221.765 623.396 227.328 623.098 233.012C622.801 238.695 623.661 244.379 625.627 249.72L625.504 249.627Z" fill="#FF5722"/>
<path d="M473.896 373.222C476.977 396.234 527.637 457.353 527.637 457.353C527.637 457.353 560.331 385.051 557.249 362.039C556.853 356.302 555.284 350.707 552.638 345.6C549.993 340.493 546.328 335.983 541.869 332.348C537.411 328.714 532.255 326.032 526.718 324.469C521.182 322.906 515.384 322.495 509.683 323.261C503.982 324.028 498.498 325.955 493.572 328.924C488.645 331.893 484.38 335.841 481.04 340.524C477.7 345.207 475.357 350.524 474.154 356.148C472.952 361.773 472.917 367.583 474.05 373.222H473.896Z" fill="#FF5722"/>
<path opacity="0.25" d="M957.407 229.511C934.635 234.039 860.402 205.913 860.402 205.913C860.402 205.913 918.272 151.602 941.044 147.074C946.458 146 952.031 146.002 957.445 147.081C962.858 148.16 968.006 150.295 972.594 153.363C977.182 156.431 981.121 160.372 984.186 164.962C987.25 169.552 989.381 174.7 990.455 180.113C991.529 185.526 991.527 191.098 990.448 196.51C989.368 201.921 987.233 207.068 984.164 211.655C981.095 216.242 977.153 220.18 972.562 223.243C967.971 226.307 962.821 228.437 957.407 229.511Z" fill="black"/>
<path opacity="0.25" d="M797.573 380.461C775.633 372.883 725.775 311.147 725.775 311.147C725.775 311.147 803.151 293.434 825.091 301.043C830.307 302.849 835.116 305.665 839.243 309.329C843.371 312.994 846.737 317.435 849.147 322.4C851.558 327.364 852.967 332.755 853.294 338.264C853.62 343.773 852.859 349.292 851.052 354.507C849.245 359.722 846.429 364.529 842.763 368.656C839.098 372.782 834.655 376.147 829.69 378.557C824.724 380.967 819.331 382.375 813.821 382.702C808.31 383.029 802.789 382.267 797.573 380.461Z" fill="black"/>
<path opacity="0.25" d="M650.926 467.366C628.031 463.638 568.436 411.268 568.436 411.268C568.436 411.268 641.713 380.77 664.639 384.528C670.085 385.428 675.301 387.392 679.989 390.307C684.677 393.223 688.744 397.033 691.959 401.52C695.174 406.006 697.473 411.082 698.725 416.458C699.978 421.833 700.159 427.402 699.259 432.847C698.358 438.293 696.394 443.507 693.478 448.194C690.562 452.88 686.751 456.946 682.262 460.16C677.774 463.374 672.697 465.673 667.32 466.925C661.944 468.177 656.373 468.358 650.926 467.458V467.366Z" fill="black"/>
<path opacity="0.25" d="M795.695 145.811C795.695 169.039 837.695 236.35 837.695 236.35C837.695 236.35 879.788 169.069 879.788 145.842C879.94 140.226 878.965 134.636 876.921 129.403C874.876 124.171 871.803 119.4 867.883 115.374C863.964 111.349 859.277 108.149 854.1 105.964C848.923 103.779 843.361 102.653 837.741 102.653C832.122 102.653 826.56 103.779 821.382 105.964C816.205 108.149 811.519 111.349 807.6 115.374C803.68 119.4 800.607 124.171 798.563 129.403C796.518 134.636 795.543 140.226 795.695 145.842V145.811Z" fill="black"/>
<path opacity="0.25" d="M625.504 249.627C632.437 271.777 692.68 323.562 692.68 323.562C692.68 323.562 712.678 246.762 705.745 224.613C704.31 219.106 701.771 213.948 698.281 209.451C694.792 204.955 690.426 201.214 685.447 198.455C680.468 195.696 674.98 193.977 669.317 193.403C663.653 192.828 657.932 193.409 652.5 195.112C647.068 196.814 642.039 199.601 637.717 203.305C633.395 207.009 629.871 211.552 627.358 216.658C624.845 221.765 623.396 227.328 623.098 233.012C622.801 238.695 623.661 244.379 625.627 249.72L625.504 249.627Z" fill="black"/>
<path opacity="0.25" d="M473.896 373.222C476.977 396.234 527.637 457.353 527.637 457.353C527.637 457.353 560.331 385.051 557.249 362.039C556.853 356.302 555.284 350.707 552.638 345.6C549.993 340.493 546.328 335.983 541.869 332.348C537.411 328.714 532.255 326.032 526.718 324.469C521.182 322.906 515.384 322.495 509.683 323.261C503.982 324.028 498.498 325.955 493.572 328.924C488.645 331.893 484.38 335.841 481.04 340.524C477.7 345.207 475.357 350.524 474.154 356.148C472.952 361.773 472.917 367.583 474.05 373.222H473.896Z" fill="black"/>
<path d="M475.345 533.845C475.345 533.845 494.388 337.301 607.847 232.776C655.78 189.247 688.276 131.333 700.445 67.7477C706.014 37.5171 708.789 6.83831 708.734 -23.9006" stroke="#535461" stroke-width="2" stroke-miterlimit="10"/>
<path d="M796.462 55.025C777.481 68.3949 698.226 72.7385 698.226 72.7385C698.226 72.7385 729.04 -0.364445 748.084 -13.7035C752.598 -16.8792 757.693 -19.135 763.079 -20.342C768.465 -21.5491 774.036 -21.6837 779.474 -20.7383C784.912 -19.7929 790.111 -17.7859 794.773 -14.8319C799.436 -11.8779 803.47 -8.03487 806.647 -3.5221C809.823 0.990683 812.08 6.08478 813.287 11.4693C814.494 16.8539 814.629 22.4235 813.683 27.8601C812.738 33.2967 810.73 38.4938 807.775 43.1548C804.821 47.8158 800.976 51.8493 796.462 55.025Z" fill="#FF5722"/>
<path d="M711.477 257.699C688.335 259.639 617.739 223.411 617.739 223.411C617.739 223.411 681.31 175.878 704.451 173.937C709.953 173.476 715.491 174.102 720.75 175.781C726.01 177.459 730.887 180.157 735.103 183.72C739.319 187.283 742.792 191.641 745.323 196.546C747.855 201.451 749.395 206.806 749.857 212.306C750.318 217.806 749.691 223.343 748.012 228.6C746.333 233.858 743.635 238.734 740.071 242.949C736.507 247.164 732.147 250.636 727.241 253.167C722.335 255.698 716.979 257.237 711.477 257.699Z" fill="#FF5722"/>
<path d="M612.656 396.542C590.192 402.395 514.45 378.582 514.45 378.582C514.45 378.582 569.084 321.005 591.487 315.183C596.83 313.797 602.395 313.478 607.862 314.242C613.329 315.006 618.592 316.839 623.35 319.637C628.109 322.435 632.27 326.142 635.595 330.547C638.92 334.952 641.345 339.969 642.731 345.311C644.117 350.653 644.437 356.216 643.673 361.682C642.908 367.148 641.075 372.409 638.276 377.167C635.478 381.924 631.769 386.083 627.363 389.408C622.956 392.732 617.938 395.156 612.595 396.542H612.656Z" fill="#FF5722"/>
<path d="M614.657 43.9347C624.056 65.1601 689.752 109.675 689.752 109.675C689.752 109.675 700.938 31.1193 691.54 9.8939C687.045 -0.318968 678.676 -8.32849 668.274 -12.3726C657.872 -16.4167 646.289 -16.1641 636.073 -11.6704C625.858 -7.17673 617.846 1.18991 613.801 11.589C609.756 21.9881 610.008 33.5678 614.503 43.7807L614.657 43.9347Z" fill="#FF5722"/>
<path d="M501.137 207.947C516.544 225.383 592.471 248.241 592.471 248.241C592.471 248.241 579.622 169.932 564.307 152.465C556.952 144.09 546.57 138.98 535.446 138.258C524.321 137.535 513.366 141.261 504.989 148.614C496.612 155.967 491.5 166.346 490.778 177.467C490.056 188.589 493.782 199.541 501.137 207.916V207.947Z" fill="#FF5722"/>
<path d="M412.638 382.186C424.964 401.964 495.838 437.329 495.838 437.329C495.838 437.329 496.608 357.973 484.282 338.195C478.327 328.95 468.987 322.405 458.263 319.961C447.539 317.518 436.284 319.372 426.911 325.125C417.537 330.878 410.791 340.073 408.117 350.739C405.444 361.405 407.055 372.694 412.607 382.186H412.638Z" fill="#FF5722"/>
<path d="M378.125 138.849H375.537C379.605 134.228 381.7 129.607 381.361 125.509L357.942 102.097L366.878 82.0728H336.772L342.35 66.4541H324.508L127.11 132.194C127.11 132.194 126.894 134.936 127.11 138.849H0V711.381H552.074V138.849H378.125Z" fill="url(#paint0_linear)"/>
<path d="M547.853 140.851H4.09863V705.343H547.853V140.851Z" fill="#F6F7F9"/>
<path d="M342.569 36.154L148.16 100.847C148.16 100.847 145.942 126.108 158.021 132.67C161.428 134.574 164.127 137.53 165.715 141.094C167.304 144.659 167.696 148.641 166.834 152.447H198.665L197.587 191.972C197.587 191.972 401.887 132.67 398.59 94.2544L375.541 71.1806L384.323 51.4031H354.649L360.164 36L342.569 36.154Z" fill="#9D9CB5"/>
<g opacity="0.35">
<path opacity="0.2" d="M447.335 323.839H104.615V333.451H447.335V323.839Z" fill="#FF5722"/>
</g>
<g opacity="0.35">
<path opacity="0.2" d="M447.335 374.515H104.615V384.127H447.335V374.515Z" fill="#FF5722"/>
</g>
<g opacity="0.35">
<path opacity="0.2" d="M447.335 425.161H104.615V434.772H447.335V425.161Z" fill="#FF5722"/>
</g>
<g opacity="0.35">
<path opacity="0.2" d="M447.335 475.806H104.615V485.418H447.335V475.806Z" fill="#FF5722"/>
</g>
<g opacity="0.35">
<path opacity="0.2" d="M447.335 526.451H104.615V536.063H447.335V526.451Z" fill="#FF5722"/>
</g>
<g opacity="0.35">
<path opacity="0.2" d="M447.335 577.127H104.615V586.739H447.335V577.127Z" fill="#FF5722"/>
</g>
<defs>
<linearGradient id="paint0_linear" x1="276.006" y1="711.381" x2="276.006" y2="66.4541" gradientUnits="userSpaceOnUse">
<stop stop-color="#808080" stop-opacity="0.25"/>
<stop offset="0.54" stop-color="#808080" stop-opacity="0.12"/>
<stop offset="1" stop-color="#808080" stop-opacity="0.1"/>
</linearGradient>
</defs>
</svg>
